{
	"patcher" : 	{
		"fileversion" : 1,
		"appversion" : 		{
			"major" : 7,
			"minor" : 0,
			"revision" : 1,
			"architecture" : "x86",
			"modernui" : 1
		}
,
		"rect" : [ 524.0, 44.0, 493.0, 232.0 ],
		"bglocked" : 0,
		"openinpresentation" : 0,
		"default_fontsize" : 13.0,
		"default_fontface" : 0,
		"default_fontname" : "Arial",
		"gridonopen" : 1,
		"gridsize" : [ 15.0, 15.0 ],
		"gridsnaponopen" : 1,
		"objectsnaponopen" : 1,
		"statusbarvisible" : 2,
		"toolbarvisible" : 0,
		"lefttoolbarpinned" : 0,
		"toptoolbarpinned" : 0,
		"righttoolbarpinned" : 0,
		"bottomtoolbarpinned" : 0,
		"toolbars_unpinned_last_save" : 0,
		"tallnewobj" : 0,
		"boxanimatetime" : 200,
		"enablehscroll" : 1,
		"enablevscroll" : 1,
		"devicewidth" : 0.0,
		"description" : "",
		"digest" : "",
		"tags" : "",
		"style" : "",
		"subpatcher_template" : "",
		"boxes" : [ 			{
				"box" : 				{
					"args" : [ "OSC tools for Max (Mattijs Kneppers)", "a few OSC tools" ],
					"bgmode" : 1,
					"border" : 0,
					"clickthrough" : 1,
					"enablehscroll" : 0,
					"enablevscroll" : 0,
					"id" : "obj-15",
					"lockeddragscroll" : 0,
					"maxclass" : "bpatcher",
					"name" : "Max4VA-Title.maxpat",
					"numinlets" : 0,
					"numoutlets" : 0,
					"offset" : [ 0.0, -278.0 ],
					"patching_rect" : [ 0.0, 0.0, 486.0, 55.0 ],
					"presentation" : 1,
					"presentation_rect" : [ -22.0, -3.0, 487.519531, 73.0 ],
					"viewvisibility" : 1
				}

			}
, 			{
				"box" : 				{
					"bgcolor" : [ 0.311041, 0.314599, 0.318357, 1.0 ],
					"bgoncolor" : [ 0.55, 0.55, 0.55, 1.0 ],
					"fontsize" : 14.0,
					"id" : "obj-12",
					"legacytextcolor" : 1,
					"maxclass" : "textbutton",
					"numinlets" : 1,
					"numoutlets" : 3,
					"outlettype" : [ "", "", "int" ],
					"parameter_enable" : 0,
					"patching_rect" : [ 282.0, 204.5, 101.0, 21.0 ],
					"presentation" : 1,
					"presentation_rect" : [ 190.0, 240.5, 79.0, 17.0 ],
					"style" : "",
					"text" : "303Loop patch",
					"textcolor" : [ 1.0, 1.0, 1.0, 1.0 ],
					"texton" : "Stop",
					"textoncolor" : [ 1.0, 1.0, 1.0, 1.0 ],
					"textovercolor" : [ 0.960784, 0.827451, 0.156863, 1.0 ],
					"usebgoncolor" : 1,
					"usetextovercolor" : 1
				}

			}
, 			{
				"box" : 				{
					"fontname" : "Arial",
					"fontsize" : 10.0,
					"hidden" : 1,
					"id" : "obj-13",
					"maxclass" : "message",
					"numinlets" : 2,
					"numoutlets" : 1,
					"outlettype" : [ "" ],
					"patching_rect" : [ 287.0, 203.5, 71.0, 20.0 ],
					"style" : "",
					"text" : "load 303Loop"
				}

			}
, 			{
				"box" : 				{
					"bgcolor" : [ 0.311041, 0.314599, 0.318357, 1.0 ],
					"bgoncolor" : [ 0.55, 0.55, 0.55, 1.0 ],
					"fontsize" : 14.0,
					"id" : "obj-11",
					"legacytextcolor" : 1,
					"maxclass" : "textbutton",
					"numinlets" : 1,
					"numoutlets" : 3,
					"outlettype" : [ "", "", "int" ],
					"parameter_enable" : 0,
					"patching_rect" : [ 388.0, 204.5, 98.0, 21.0 ],
					"presentation" : 1,
					"presentation_rect" : [ 169.0, 196.5, 79.0, 17.0 ],
					"style" : "",
					"text" : "Sending OSC",
					"textcolor" : [ 1.0, 1.0, 1.0, 1.0 ],
					"texton" : "Stop",
					"textoncolor" : [ 1.0, 1.0, 1.0, 1.0 ],
					"textovercolor" : [ 0.960784, 0.827451, 0.156863, 1.0 ],
					"usebgoncolor" : 1,
					"usetextovercolor" : 1
				}

			}
, 			{
				"box" : 				{
					"fontname" : "Arial",
					"fontsize" : 14.0,
					"id" : "obj-10",
					"maxclass" : "comment",
					"numinlets" : 1,
					"numoutlets" : 0,
					"patching_rect" : [ 115.0, 161.5, 261.0, 22.0 ],
					"style" : "",
					"text" : "Publish an OSC device on the network"
				}

			}
, 			{
				"box" : 				{
					"fontname" : "Arial",
					"fontsize" : 14.0,
					"id" : "obj-9",
					"maxclass" : "comment",
					"numinlets" : 1,
					"numoutlets" : 0,
					"patching_rect" : [ 115.0, 129.5, 229.0, 22.0 ],
					"style" : "",
					"text" : "sends OSC messages"
				}

			}
, 			{
				"box" : 				{
					"bgcolor" : [ 0.311041, 0.314599, 0.318357, 1.0 ],
					"bgoncolor" : [ 0.55, 0.55, 0.55, 1.0 ],
					"fontsize" : 14.0,
					"id" : "obj-8",
					"legacytextcolor" : 1,
					"maxclass" : "textbutton",
					"numinlets" : 1,
					"numoutlets" : 3,
					"outlettype" : [ "", "", "int" ],
					"parameter_enable" : 0,
					"patching_rect" : [ 7.0, 161.5, 85.0, 21.0 ],
					"presentation" : 1,
					"presentation_rect" : [ 318.0, 199.5, 79.0, 17.0 ],
					"style" : "",
					"text" : "Osc Service",
					"textcolor" : [ 1.0, 1.0, 1.0, 1.0 ],
					"texton" : "Stop",
					"textoncolor" : [ 1.0, 1.0, 1.0, 1.0 ],
					"textovercolor" : [ 0.960784, 0.827451, 0.156863, 1.0 ],
					"usebgoncolor" : 1,
					"usetextovercolor" : 1
				}

			}
, 			{
				"box" : 				{
					"bgcolor" : [ 0.311041, 0.314599, 0.318357, 1.0 ],
					"bgoncolor" : [ 0.55, 0.55, 0.55, 1.0 ],
					"fontsize" : 14.0,
					"id" : "obj-7",
					"legacytextcolor" : 1,
					"maxclass" : "textbutton",
					"numinlets" : 1,
					"numoutlets" : 3,
					"outlettype" : [ "", "", "int" ],
					"parameter_enable" : 0,
					"patching_rect" : [ 7.0, 129.5, 71.0, 21.0 ],
					"presentation" : 1,
					"presentation_rect" : [ 294.0, 156.5, 79.0, 17.0 ],
					"style" : "",
					"text" : "Osc Send",
					"textcolor" : [ 1.0, 1.0, 1.0, 1.0 ],
					"texton" : "Stop",
					"textoncolor" : [ 1.0, 1.0, 1.0, 1.0 ],
					"textovercolor" : [ 0.960784, 0.827451, 0.156863, 1.0 ],
					"usebgoncolor" : 1,
					"usetextovercolor" : 1
				}

			}
, 			{
				"box" : 				{
					"fontname" : "Arial",
					"fontsize" : 10.0,
					"hidden" : 1,
					"id" : "obj-5",
					"maxclass" : "message",
					"numinlets" : 2,
					"numoutlets" : 1,
					"outlettype" : [ "" ],
					"patching_rect" : [ 287.0, 203.5, 91.0, 20.0 ],
					"style" : "",
					"text" : "load SendingOSC"
				}

			}
, 			{
				"box" : 				{
					"fontname" : "Arial",
					"fontsize" : 10.0,
					"hidden" : 1,
					"id" : "obj-4",
					"maxclass" : "message",
					"numinlets" : 2,
					"numoutlets" : 1,
					"outlettype" : [ "" ],
					"patching_rect" : [ 7.0, 191.5, 83.0, 20.0 ],
					"style" : "",
					"text" : "help OscService"
				}

			}
, 			{
				"box" : 				{
					"fontname" : "Arial",
					"fontsize" : 10.0,
					"hidden" : 1,
					"id" : "obj-2",
					"maxclass" : "message",
					"numinlets" : 2,
					"numoutlets" : 1,
					"outlettype" : [ "" ],
					"patching_rect" : [ 9.0, 191.5, 73.0, 20.0 ],
					"style" : "",
					"text" : "help OscSend"
				}

			}
, 			{
				"box" : 				{
					"fontname" : "Arial",
					"fontsize" : 10.0,
					"hidden" : 1,
					"id" : "obj-1",
					"maxclass" : "message",
					"numinlets" : 2,
					"numoutlets" : 1,
					"outlettype" : [ "" ],
					"patching_rect" : [ 8.0, 192.5, 86.0, 20.0 ],
					"style" : "",
					"text" : "help OscReceive"
				}

			}
, 			{
				"box" : 				{
					"bgcolor" : [ 0.311041, 0.314599, 0.318357, 1.0 ],
					"bgoncolor" : [ 0.55, 0.55, 0.55, 1.0 ],
					"fontsize" : 14.0,
					"id" : "obj-44",
					"legacytextcolor" : 1,
					"maxclass" : "textbutton",
					"numinlets" : 1,
					"numoutlets" : 3,
					"outlettype" : [ "", "", "int" ],
					"parameter_enable" : 0,
					"patching_rect" : [ 7.0, 97.5, 89.0, 21.0 ],
					"presentation" : 1,
					"presentation_rect" : [ 404.0, 741.0, 79.0, 17.0 ],
					"style" : "",
					"text" : "Osc Receive",
					"textcolor" : [ 1.0, 1.0, 1.0, 1.0 ],
					"texton" : "Stop",
					"textoncolor" : [ 1.0, 1.0, 1.0, 1.0 ],
					"textovercolor" : [ 0.960784, 0.827451, 0.156863, 1.0 ],
					"usebgoncolor" : 1,
					"usetextovercolor" : 1
				}

			}
, 			{
				"box" : 				{
					"bgcolor" : [ 0.311041, 0.314599, 0.318357, 1.0 ],
					"bgoncolor" : [ 0.55, 0.55, 0.55, 1.0 ],
					"fontsize" : 14.0,
					"id" : "obj-46",
					"legacytextcolor" : 1,
					"maxclass" : "textbutton",
					"numinlets" : 1,
					"numoutlets" : 3,
					"outlettype" : [ "", "", "int" ],
					"parameter_enable" : 0,
					"patching_rect" : [ 7.0, 65.5, 84.0, 21.0 ],
					"presentation" : 1,
					"presentation_rect" : [ 716.0, 268.0, 79.0, 17.0 ],
					"style" : "",
					"text" : "Osc Browse",
					"textcolor" : [ 1.0, 1.0, 1.0, 1.0 ],
					"texton" : "Stop",
					"textoncolor" : [ 1.0, 1.0, 1.0, 1.0 ],
					"textovercolor" : [ 0.960784, 0.827451, 0.156863, 1.0 ],
					"usebgoncolor" : 1,
					"usetextovercolor" : 1
				}

			}
, 			{
				"box" : 				{
					"fontname" : "Arial",
					"fontsize" : 10.0,
					"hidden" : 1,
					"id" : "obj-47",
					"maxclass" : "message",
					"numinlets" : 2,
					"numoutlets" : 1,
					"outlettype" : [ "" ],
					"patching_rect" : [ 7.0, 192.5, 83.0, 20.0 ],
					"style" : "",
					"text" : "help OscBrowse"
				}

			}
, 			{
				"box" : 				{
					"fontname" : "Arial",
					"fontsize" : 14.0,
					"id" : "obj-14",
					"maxclass" : "comment",
					"numinlets" : 1,
					"numoutlets" : 0,
					"patching_rect" : [ 115.0, 97.5, 229.0, 22.0 ],
					"style" : "",
					"text" : "receives OSC messages"
				}

			}
, 			{
				"box" : 				{
					"fontname" : "Arial",
					"fontsize" : 14.0,
					"id" : "obj-6",
					"maxclass" : "comment",
					"numinlets" : 1,
					"numoutlets" : 0,
					"patching_rect" : [ 115.0, 64.5, 263.0, 22.0 ],
					"style" : "",
					"text" : "search for OSC devices on the network"
				}

			}
, 			{
				"box" : 				{
					"fontname" : "Arial",
					"fontsize" : 11.595187,
					"hidden" : 1,
					"id" : "obj-26",
					"maxclass" : "newobj",
					"numinlets" : 1,
					"numoutlets" : 1,
					"outlettype" : [ "" ],
					"patching_rect" : [ 7.0, 204.5, 52.0, 21.0 ],
					"style" : "",
					"text" : "pcontrol"
				}

			}
 ],
		"lines" : [ 			{
				"patchline" : 				{
					"destination" : [ "obj-26", 0 ],
					"disabled" : 0,
					"hidden" : 1,
					"source" : [ "obj-1", 0 ]
				}

			}
, 			{
				"patchline" : 				{
					"destination" : [ "obj-5", 0 ],
					"disabled" : 0,
					"hidden" : 1,
					"source" : [ "obj-11", 0 ]
				}

			}
, 			{
				"patchline" : 				{
					"destination" : [ "obj-13", 0 ],
					"disabled" : 0,
					"hidden" : 1,
					"source" : [ "obj-12", 0 ]
				}

			}
, 			{
				"patchline" : 				{
					"destination" : [ "obj-26", 0 ],
					"disabled" : 0,
					"hidden" : 1,
					"source" : [ "obj-13", 0 ]
				}

			}
, 			{
				"patchline" : 				{
					"destination" : [ "obj-26", 0 ],
					"disabled" : 0,
					"hidden" : 1,
					"source" : [ "obj-2", 0 ]
				}

			}
, 			{
				"patchline" : 				{
					"destination" : [ "obj-26", 0 ],
					"disabled" : 0,
					"hidden" : 1,
					"source" : [ "obj-4", 0 ]
				}

			}
, 			{
				"patchline" : 				{
					"destination" : [ "obj-1", 0 ],
					"disabled" : 0,
					"hidden" : 1,
					"source" : [ "obj-44", 0 ]
				}

			}
, 			{
				"patchline" : 				{
					"destination" : [ "obj-47", 0 ],
					"disabled" : 0,
					"hidden" : 1,
					"source" : [ "obj-46", 0 ]
				}

			}
, 			{
				"patchline" : 				{
					"destination" : [ "obj-26", 0 ],
					"disabled" : 0,
					"hidden" : 1,
					"source" : [ "obj-47", 0 ]
				}

			}
, 			{
				"patchline" : 				{
					"destination" : [ "obj-26", 0 ],
					"disabled" : 0,
					"hidden" : 1,
					"source" : [ "obj-5", 0 ]
				}

			}
, 			{
				"patchline" : 				{
					"destination" : [ "obj-2", 0 ],
					"disabled" : 0,
					"hidden" : 1,
					"source" : [ "obj-7", 0 ]
				}

			}
, 			{
				"patchline" : 				{
					"destination" : [ "obj-4", 0 ],
					"disabled" : 0,
					"hidden" : 1,
					"source" : [ "obj-8", 0 ]
				}

			}
 ],
		"dependency_cache" : [ 			{
				"name" : "Max4VA-Title.maxpat",
				"bootpath" : "/Users/Shared/Max 7/Packages/Max4VisualArts/patchers/zpatches",
				"patcherrelativepath" : "../zpatches",
				"type" : "JSON",
				"implicit" : 1
			}
 ],
		"embedsnapshot" : 0
	}

}
