{
	"patcher" : 	{
		"fileversion" : 1,
		"appversion" : 		{
			"major" : 7,
			"minor" : 0,
			"revision" : 1,
			"architecture" : "x86",
			"modernui" : 1
		}
,
		"rect" : [ 100.0, 100.0, 588.0, 613.0 ],
		"bglocked" : 0,
		"openinpresentation" : 0,
		"default_fontsize" : 14.0,
		"default_fontface" : 0,
		"default_fontname" : "Arial",
		"gridonopen" : 1,
		"gridsize" : [ 15.0, 15.0 ],
		"gridsnaponopen" : 1,
		"objectsnaponopen" : 1,
		"statusbarvisible" : 2,
		"toolbarvisible" : 0,
		"lefttoolbarpinned" : 0,
		"toptoolbarpinned" : 0,
		"righttoolbarpinned" : 0,
		"bottomtoolbarpinned" : 0,
		"toolbars_unpinned_last_save" : 7,
		"tallnewobj" : 0,
		"boxanimatetime" : 200,
		"enablehscroll" : 1,
		"enablevscroll" : 1,
		"devicewidth" : 0.0,
		"description" : "",
		"digest" : "",
		"tags" : "",
		"style" : "",
		"subpatcher_template" : "",
		"boxes" : [ 			{
				"box" : 				{
					"bgcolor" : [ 0.862, 0.862, 0.862, 1.0 ],
					"clip" : 0,
					"degrees" : 360,
					"id" : "obj-14",
					"maxclass" : "dial",
					"needlecolor" : [ 1.0, 0.74902, 0.0, 1.0 ],
					"numinlets" : 1,
					"numoutlets" : 1,
					"outlettype" : [ "float" ],
					"outlinecolor" : [ 0.78, 0.78, 0.78, 1.0 ],
					"parameter_enable" : 0,
					"patching_rect" : [ 8.0, 59.0, 122.0, 122.0 ],
					"size" : 360.0,
					"style" : ""
				}

			}
, 			{
				"box" : 				{
					"fontface" : 3,
					"fontname" : "Arial",
					"fontsize" : 20.899994,
					"id" : "obj-3",
					"maxclass" : "comment",
					"numinlets" : 1,
					"numoutlets" : 0,
					"patching_rect" : [ 4.0, 2.0, 235.0, 30.0 ],
					"style" : "",
					"text" : "Delta detect",
					"textcolor" : [ 1.0, 1.0, 1.0, 1.0 ],
					"varname" : "autohelp_top_title"
				}

			}
, 			{
				"box" : 				{
					"fontname" : "Arial",
					"fontsize" : 12.754705,
					"id" : "obj-34",
					"maxclass" : "comment",
					"numinlets" : 1,
					"numoutlets" : 0,
					"patching_rect" : [ 4.0, 30.0, 399.0, 21.0 ],
					"style" : "",
					"text" : "detect the delta's direction and speed",
					"textcolor" : [ 1.0, 1.0, 1.0, 1.0 ],
					"varname" : "autohelp_top_digest"
				}

			}
, 			{
				"box" : 				{
					"fontname" : "Arial",
					"fontsize" : 14.0,
					"id" : "obj-8",
					"maxclass" : "newobj",
					"numinlets" : 2,
					"numoutlets" : 1,
					"outlettype" : [ "int" ],
					"patching_rect" : [ 128.0, 543.0, 36.0, 24.0 ],
					"style" : "",
					"text" : "-"
				}

			}
, 			{
				"box" : 				{
					"fontname" : "Arial",
					"fontsize" : 14.0,
					"id" : "obj-10",
					"maxclass" : "newobj",
					"numinlets" : 1,
					"numoutlets" : 2,
					"outlettype" : [ "int", "int" ],
					"patching_rect" : [ 106.0, 498.0, 41.0, 24.0 ],
					"style" : "",
					"text" : "t i i"
				}

			}
, 			{
				"box" : 				{
					"fontname" : "Arial",
					"fontsize" : 14.0,
					"id" : "obj-4",
					"maxclass" : "number",
					"numinlets" : 1,
					"numoutlets" : 2,
					"outlettype" : [ "", "bang" ],
					"parameter_enable" : 0,
					"patching_rect" : [ 128.0, 577.0, 37.0, 24.0 ],
					"style" : ""
				}

			}
, 			{
				"box" : 				{
					"fontname" : "Arial",
					"fontsize" : 14.0,
					"id" : "obj-12",
					"maxclass" : "number",
					"numinlets" : 1,
					"numoutlets" : 2,
					"outlettype" : [ "", "bang" ],
					"parameter_enable" : 0,
					"patching_rect" : [ 106.0, 467.0, 60.0, 24.0 ],
					"style" : ""
				}

			}
, 			{
				"box" : 				{
					"fontname" : "Arial",
					"fontsize" : 14.0,
					"format" : 6,
					"id" : "obj-37",
					"maxclass" : "flonum",
					"numinlets" : 1,
					"numoutlets" : 2,
					"outlettype" : [ "", "bang" ],
					"parameter_enable" : 0,
					"patching_rect" : [ 331.0, 342.0, 51.0, 24.0 ],
					"style" : ""
				}

			}
, 			{
				"box" : 				{
					"id" : "obj-35",
					"maxclass" : "button",
					"numinlets" : 1,
					"numoutlets" : 1,
					"outlettype" : [ "bang" ],
					"patching_rect" : [ 391.0, 450.0, 35.0, 35.0 ],
					"style" : ""
				}

			}
, 			{
				"box" : 				{
					"id" : "obj-33",
					"maxclass" : "button",
					"numinlets" : 1,
					"numoutlets" : 1,
					"outlettype" : [ "bang" ],
					"patching_rect" : [ 331.0, 450.0, 35.0, 35.0 ],
					"style" : ""
				}

			}
, 			{
				"box" : 				{
					"fontname" : "Arial",
					"fontsize" : 14.0,
					"id" : "obj-31",
					"maxclass" : "newobj",
					"numinlets" : 2,
					"numoutlets" : 2,
					"outlettype" : [ "bang", "" ],
					"patching_rect" : [ 391.0, 414.0, 41.0, 24.0 ],
					"style" : "",
					"text" : "sel 1"
				}

			}
, 			{
				"box" : 				{
					"fontname" : "Arial",
					"fontsize" : 14.0,
					"id" : "obj-30",
					"maxclass" : "newobj",
					"numinlets" : 2,
					"numoutlets" : 2,
					"outlettype" : [ "bang", "" ],
					"patching_rect" : [ 331.0, 414.0, 41.0, 24.0 ],
					"style" : "",
					"text" : "sel 1"
				}

			}
, 			{
				"box" : 				{
					"fontname" : "Arial",
					"fontsize" : 14.0,
					"id" : "obj-29",
					"maxclass" : "newobj",
					"numinlets" : 2,
					"numoutlets" : 1,
					"outlettype" : [ "int" ],
					"patching_rect" : [ 391.0, 382.0, 48.0, 24.0 ],
					"style" : "",
					"text" : "< -0.5"
				}

			}
, 			{
				"box" : 				{
					"fontname" : "Arial",
					"fontsize" : 14.0,
					"id" : "obj-28",
					"maxclass" : "newobj",
					"numinlets" : 2,
					"numoutlets" : 1,
					"outlettype" : [ "int" ],
					"patching_rect" : [ 331.0, 382.0, 43.0, 24.0 ],
					"style" : "",
					"text" : "> 0.5"
				}

			}
, 			{
				"box" : 				{
					"fontname" : "Arial",
					"fontsize" : 14.0,
					"id" : "obj-27",
					"maxclass" : "newobj",
					"numinlets" : 2,
					"numoutlets" : 1,
					"outlettype" : [ "float" ],
					"patching_rect" : [ 372.0, 279.0, 38.0, 24.0 ],
					"style" : "",
					"text" : "float"
				}

			}
, 			{
				"box" : 				{
					"fontname" : "Arial",
					"fontsize" : 14.0,
					"id" : "obj-6",
					"maxclass" : "newobj",
					"numinlets" : 1,
					"numoutlets" : 2,
					"outlettype" : [ "float", "float" ],
					"patching_rect" : [ 331.0, 224.0, 79.0, 24.0 ],
					"style" : "",
					"text" : "t f f"
				}

			}
, 			{
				"box" : 				{
					"color" : [ 0.827451, 0.737255, 0.835294, 1.0 ],
					"fontname" : "Arial",
					"fontsize" : 14.0,
					"id" : "obj-25",
					"maxclass" : "newobj",
					"numinlets" : 2,
					"numoutlets" : 1,
					"outlettype" : [ "float" ],
					"patcher" : 					{
						"fileversion" : 1,
						"appversion" : 						{
							"major" : 7,
							"minor" : 0,
							"revision" : 1,
							"architecture" : "x86",
							"modernui" : 1
						}
,
						"rect" : [ 601.0, 44.0, 220.0, 285.0 ],
						"bglocked" : 0,
						"openinpresentation" : 0,
						"default_fontsize" : 14.0,
						"default_fontface" : 0,
						"default_fontname" : "Arial",
						"gridonopen" : 1,
						"gridsize" : [ 20.0, 20.0 ],
						"gridsnaponopen" : 1,
						"objectsnaponopen" : 1,
						"statusbarvisible" : 2,
						"toolbarvisible" : 0,
						"lefttoolbarpinned" : 0,
						"toptoolbarpinned" : 0,
						"righttoolbarpinned" : 0,
						"bottomtoolbarpinned" : 0,
						"toolbars_unpinned_last_save" : 0,
						"tallnewobj" : 0,
						"boxanimatetime" : 200,
						"enablehscroll" : 1,
						"enablevscroll" : 1,
						"devicewidth" : 0.0,
						"description" : "",
						"digest" : "",
						"tags" : "",
						"style" : "",
						"subpatcher_template" : "",
						"boxes" : [ 							{
								"box" : 								{
									"comment" : "",
									"id" : "obj-1",
									"maxclass" : "inlet",
									"numinlets" : 0,
									"numoutlets" : 1,
									"outlettype" : [ "float" ],
									"patching_rect" : [ 122.0, 60.0, 25.0, 25.0 ],
									"style" : ""
								}

							}
, 							{
								"box" : 								{
									"fontname" : "Arial",
									"fontsize" : 14.0,
									"id" : "obj-15",
									"maxclass" : "newobj",
									"numinlets" : 2,
									"numoutlets" : 1,
									"outlettype" : [ "float" ],
									"patching_rect" : [ 20.0, 203.0, 118.5, 22.0 ],
									"style" : "",
									"text" : "- 0."
								}

							}
, 							{
								"box" : 								{
									"color" : [ 0.827451, 0.737255, 0.835294, 1.0 ],
									"fontname" : "Arial",
									"fontsize" : 14.0,
									"id" : "obj-14",
									"maxclass" : "newobj",
									"numinlets" : 2,
									"numoutlets" : 1,
									"outlettype" : [ "float" ],
									"patcher" : 									{
										"fileversion" : 1,
										"appversion" : 										{
											"major" : 7,
											"minor" : 0,
											"revision" : 1,
											"architecture" : "x86",
											"modernui" : 1
										}
,
										"rect" : [ 829.0, 44.0, 117.0, 182.0 ],
										"bglocked" : 0,
										"openinpresentation" : 0,
										"default_fontsize" : 14.0,
										"default_fontface" : 0,
										"default_fontname" : "Arial",
										"gridonopen" : 1,
										"gridsize" : [ 20.0, 20.0 ],
										"gridsnaponopen" : 1,
										"objectsnaponopen" : 1,
										"statusbarvisible" : 2,
										"toolbarvisible" : 0,
										"lefttoolbarpinned" : 0,
										"toptoolbarpinned" : 0,
										"righttoolbarpinned" : 0,
										"bottomtoolbarpinned" : 0,
										"toolbars_unpinned_last_save" : 0,
										"tallnewobj" : 0,
										"boxanimatetime" : 200,
										"enablehscroll" : 1,
										"enablevscroll" : 1,
										"devicewidth" : 0.0,
										"description" : "",
										"digest" : "",
										"tags" : "",
										"style" : "",
										"subpatcher_template" : "",
										"boxes" : [ 											{
												"box" : 												{
													"comment" : "",
													"id" : "obj-3",
													"maxclass" : "outlet",
													"numinlets" : 1,
													"numoutlets" : 0,
													"patching_rect" : [ 20.0, 140.0, 25.0, 25.0 ],
													"style" : ""
												}

											}
, 											{
												"box" : 												{
													"comment" : "",
													"id" : "obj-2",
													"maxclass" : "inlet",
													"numinlets" : 0,
													"numoutlets" : 1,
													"outlettype" : [ "float" ],
													"patching_rect" : [ 67.0, 20.0, 25.0, 25.0 ],
													"style" : ""
												}

											}
, 											{
												"box" : 												{
													"comment" : "",
													"id" : "obj-1",
													"maxclass" : "inlet",
													"numinlets" : 0,
													"numoutlets" : 1,
													"outlettype" : [ "float" ],
													"patching_rect" : [ 20.0, 20.0, 25.0, 25.0 ],
													"style" : ""
												}

											}
, 											{
												"box" : 												{
													"fontname" : "Arial",
													"fontsize" : 14.0,
													"id" : "obj-8",
													"maxclass" : "newobj",
													"numinlets" : 2,
													"numoutlets" : 1,
													"outlettype" : [ "float" ],
													"patching_rect" : [ 20.0, 100.0, 65.5, 22.0 ],
													"style" : "",
													"text" : "* 1."
												}

											}
, 											{
												"box" : 												{
													"fontname" : "Arial",
													"fontsize" : 14.0,
													"id" : "obj-7",
													"maxclass" : "newobj",
													"numinlets" : 1,
													"numoutlets" : 1,
													"outlettype" : [ "float" ],
													"patching_rect" : [ 67.0, 60.0, 32.0, 22.0 ],
													"style" : "",
													"text" : "cos"
												}

											}
, 											{
												"box" : 												{
													"fontname" : "Arial",
													"fontsize" : 14.0,
													"id" : "obj-6",
													"maxclass" : "newobj",
													"numinlets" : 1,
													"numoutlets" : 1,
													"outlettype" : [ "float" ],
													"patching_rect" : [ 20.0, 60.0, 28.0, 22.0 ],
													"style" : "",
													"text" : "sin"
												}

											}
 ],
										"lines" : [ 											{
												"patchline" : 												{
													"destination" : [ "obj-6", 0 ],
													"disabled" : 0,
													"hidden" : 0,
													"source" : [ "obj-1", 0 ]
												}

											}
, 											{
												"patchline" : 												{
													"destination" : [ "obj-7", 0 ],
													"disabled" : 0,
													"hidden" : 0,
													"source" : [ "obj-2", 0 ]
												}

											}
, 											{
												"patchline" : 												{
													"destination" : [ "obj-8", 0 ],
													"disabled" : 0,
													"hidden" : 0,
													"source" : [ "obj-6", 0 ]
												}

											}
, 											{
												"patchline" : 												{
													"destination" : [ "obj-8", 1 ],
													"disabled" : 0,
													"hidden" : 0,
													"source" : [ "obj-7", 0 ]
												}

											}
, 											{
												"patchline" : 												{
													"destination" : [ "obj-3", 0 ],
													"disabled" : 0,
													"hidden" : 0,
													"source" : [ "obj-8", 0 ]
												}

											}
 ]
									}
,
									"patching_rect" : [ 120.0, 169.0, 81.0, 22.0 ],
									"saved_object_attributes" : 									{
										"description" : "",
										"digest" : "",
										"fontsize" : 14.0,
										"globalpatchername" : "",
										"style" : "",
										"tags" : ""
									}
,
									"style" : "",
									"text" : "p cosAsinB"
								}

							}
, 							{
								"box" : 								{
									"color" : [ 0.827451, 0.737255, 0.835294, 1.0 ],
									"fontname" : "Arial",
									"fontsize" : 14.0,
									"id" : "obj-12",
									"maxclass" : "newobj",
									"numinlets" : 2,
									"numoutlets" : 1,
									"outlettype" : [ "float" ],
									"patcher" : 									{
										"fileversion" : 1,
										"appversion" : 										{
											"major" : 7,
											"minor" : 0,
											"revision" : 1,
											"architecture" : "x86",
											"modernui" : 1
										}
,
										"rect" : [ 829.0, 44.0, 123.0, 184.0 ],
										"bglocked" : 0,
										"openinpresentation" : 0,
										"default_fontsize" : 14.0,
										"default_fontface" : 0,
										"default_fontname" : "Arial",
										"gridonopen" : 1,
										"gridsize" : [ 20.0, 20.0 ],
										"gridsnaponopen" : 1,
										"objectsnaponopen" : 1,
										"statusbarvisible" : 2,
										"toolbarvisible" : 0,
										"lefttoolbarpinned" : 0,
										"toptoolbarpinned" : 0,
										"righttoolbarpinned" : 0,
										"bottomtoolbarpinned" : 0,
										"toolbars_unpinned_last_save" : 0,
										"tallnewobj" : 0,
										"boxanimatetime" : 200,
										"enablehscroll" : 1,
										"enablevscroll" : 1,
										"devicewidth" : 0.0,
										"description" : "",
										"digest" : "",
										"tags" : "",
										"style" : "",
										"subpatcher_template" : "",
										"boxes" : [ 											{
												"box" : 												{
													"comment" : "",
													"id" : "obj-3",
													"maxclass" : "outlet",
													"numinlets" : 1,
													"numoutlets" : 0,
													"patching_rect" : [ 20.0, 140.0, 25.0, 25.0 ],
													"style" : ""
												}

											}
, 											{
												"box" : 												{
													"comment" : "",
													"id" : "obj-2",
													"maxclass" : "inlet",
													"numinlets" : 0,
													"numoutlets" : 1,
													"outlettype" : [ "float" ],
													"patching_rect" : [ 72.0, 20.0, 25.0, 25.0 ],
													"style" : ""
												}

											}
, 											{
												"box" : 												{
													"comment" : "",
													"id" : "obj-1",
													"maxclass" : "inlet",
													"numinlets" : 0,
													"numoutlets" : 1,
													"outlettype" : [ "float" ],
													"patching_rect" : [ 20.0, 20.0, 25.0, 25.0 ],
													"style" : ""
												}

											}
, 											{
												"box" : 												{
													"fontname" : "Arial",
													"fontsize" : 14.0,
													"id" : "obj-8",
													"maxclass" : "newobj",
													"numinlets" : 2,
													"numoutlets" : 1,
													"outlettype" : [ "float" ],
													"patching_rect" : [ 20.0, 100.0, 70.5, 22.0 ],
													"style" : "",
													"text" : "* 1."
												}

											}
, 											{
												"box" : 												{
													"fontname" : "Arial",
													"fontsize" : 14.0,
													"id" : "obj-7",
													"maxclass" : "newobj",
													"numinlets" : 1,
													"numoutlets" : 1,
													"outlettype" : [ "float" ],
													"patching_rect" : [ 20.0, 60.0, 32.0, 22.0 ],
													"style" : "",
													"text" : "cos"
												}

											}
, 											{
												"box" : 												{
													"fontname" : "Arial",
													"fontsize" : 14.0,
													"id" : "obj-6",
													"maxclass" : "newobj",
													"numinlets" : 1,
													"numoutlets" : 1,
													"outlettype" : [ "float" ],
													"patching_rect" : [ 72.0, 60.0, 28.0, 22.0 ],
													"style" : "",
													"text" : "sin"
												}

											}
 ],
										"lines" : [ 											{
												"patchline" : 												{
													"destination" : [ "obj-7", 0 ],
													"disabled" : 0,
													"hidden" : 0,
													"source" : [ "obj-1", 0 ]
												}

											}
, 											{
												"patchline" : 												{
													"destination" : [ "obj-6", 0 ],
													"disabled" : 0,
													"hidden" : 0,
													"source" : [ "obj-2", 0 ]
												}

											}
, 											{
												"patchline" : 												{
													"destination" : [ "obj-8", 1 ],
													"disabled" : 0,
													"hidden" : 0,
													"source" : [ "obj-6", 0 ]
												}

											}
, 											{
												"patchline" : 												{
													"destination" : [ "obj-8", 0 ],
													"disabled" : 0,
													"hidden" : 0,
													"source" : [ "obj-7", 0 ]
												}

											}
, 											{
												"patchline" : 												{
													"destination" : [ "obj-3", 0 ],
													"disabled" : 0,
													"hidden" : 0,
													"source" : [ "obj-8", 0 ]
												}

											}
 ]
									}
,
									"patching_rect" : [ 20.0, 169.0, 81.0, 22.0 ],
									"saved_object_attributes" : 									{
										"description" : "",
										"digest" : "",
										"fontsize" : 14.0,
										"globalpatchername" : "",
										"style" : "",
										"tags" : ""
									}
,
									"style" : "",
									"text" : "p sinAcosB"
								}

							}
, 							{
								"box" : 								{
									"fontname" : "Arial",
									"fontsize" : 14.0,
									"id" : "obj-5",
									"maxclass" : "newobj",
									"numinlets" : 1,
									"numoutlets" : 2,
									"outlettype" : [ "float", "bang" ],
									"patching_rect" : [ 20.0, 60.0, 81.0, 22.0 ],
									"style" : "",
									"text" : "t f b"
								}

							}
, 							{
								"box" : 								{
									"fontname" : "Arial",
									"fontsize" : 14.0,
									"id" : "obj-3",
									"maxclass" : "newobj",
									"numinlets" : 2,
									"numoutlets" : 1,
									"outlettype" : [ "float" ],
									"patching_rect" : [ 82.0, 98.0, 59.0, 22.0 ],
									"style" : "",
									"text" : "float 0."
								}

							}
, 							{
								"box" : 								{
									"comment" : "",
									"id" : "obj-22",
									"maxclass" : "inlet",
									"numinlets" : 0,
									"numoutlets" : 1,
									"outlettype" : [ "float" ],
									"patching_rect" : [ 20.0, 20.0, 25.0, 25.0 ],
									"style" : ""
								}

							}
, 							{
								"box" : 								{
									"comment" : "",
									"id" : "obj-23",
									"maxclass" : "outlet",
									"numinlets" : 1,
									"numoutlets" : 0,
									"patching_rect" : [ 20.0, 243.0, 25.0, 25.0 ],
									"style" : ""
								}

							}
 ],
						"lines" : [ 							{
								"patchline" : 								{
									"destination" : [ "obj-3", 1 ],
									"disabled" : 0,
									"hidden" : 0,
									"source" : [ "obj-1", 0 ]
								}

							}
, 							{
								"patchline" : 								{
									"destination" : [ "obj-15", 0 ],
									"disabled" : 0,
									"hidden" : 0,
									"source" : [ "obj-12", 0 ]
								}

							}
, 							{
								"patchline" : 								{
									"destination" : [ "obj-15", 1 ],
									"disabled" : 0,
									"hidden" : 0,
									"midpoints" : [ 129.5, 196.5, 129.0, 196.5 ],
									"source" : [ "obj-14", 0 ]
								}

							}
, 							{
								"patchline" : 								{
									"destination" : [ "obj-23", 0 ],
									"disabled" : 0,
									"hidden" : 0,
									"source" : [ "obj-15", 0 ]
								}

							}
, 							{
								"patchline" : 								{
									"destination" : [ "obj-5", 0 ],
									"disabled" : 0,
									"hidden" : 0,
									"source" : [ "obj-22", 0 ]
								}

							}
, 							{
								"patchline" : 								{
									"destination" : [ "obj-12", 1 ],
									"disabled" : 0,
									"hidden" : 0,
									"source" : [ "obj-3", 0 ]
								}

							}
, 							{
								"patchline" : 								{
									"destination" : [ "obj-14", 1 ],
									"disabled" : 0,
									"hidden" : 0,
									"midpoints" : [ 91.5, 133.0, 191.5, 133.0 ],
									"source" : [ "obj-3", 0 ]
								}

							}
, 							{
								"patchline" : 								{
									"destination" : [ "obj-12", 0 ],
									"disabled" : 0,
									"hidden" : 0,
									"source" : [ "obj-5", 0 ]
								}

							}
, 							{
								"patchline" : 								{
									"destination" : [ "obj-14", 0 ],
									"disabled" : 0,
									"hidden" : 0,
									"midpoints" : [ 29.5, 154.5, 129.5, 154.5 ],
									"source" : [ "obj-5", 0 ]
								}

							}
, 							{
								"patchline" : 								{
									"destination" : [ "obj-3", 0 ],
									"disabled" : 0,
									"hidden" : 0,
									"source" : [ "obj-5", 1 ]
								}

							}
 ]
					}
,
					"patching_rect" : [ 331.0, 310.0, 60.0, 24.0 ],
					"saved_object_attributes" : 					{
						"description" : "",
						"digest" : "",
						"fontsize" : 14.0,
						"globalpatchername" : "",
						"style" : "",
						"tags" : ""
					}
,
					"style" : "",
					"text" : "p delta2"
				}

			}
, 			{
				"box" : 				{
					"fontname" : "Arial",
					"fontsize" : 14.0,
					"id" : "obj-9",
					"maxclass" : "newobj",
					"numinlets" : 1,
					"numoutlets" : 1,
					"outlettype" : [ "" ],
					"patching_rect" : [ 331.0, 194.0, 181.0, 24.0 ],
					"style" : "",
					"text" : "expr $i1 * 2 * 3.14159 / 360"
				}

			}
, 			{
				"box" : 				{
					"bgcolor" : [ 0.862, 0.862, 0.862, 1.0 ],
					"clip" : 0,
					"degrees" : 360,
					"id" : "obj-7",
					"maxclass" : "dial",
					"needlecolor" : [ 1.0, 0.74902, 0.0, 1.0 ],
					"numinlets" : 1,
					"numoutlets" : 1,
					"outlettype" : [ "float" ],
					"outlinecolor" : [ 0.78, 0.78, 0.78, 1.0 ],
					"parameter_enable" : 0,
					"patching_rect" : [ 331.0, 59.0, 122.0, 122.0 ],
					"size" : 360.0,
					"style" : ""
				}

			}
, 			{
				"box" : 				{
					"fontname" : "Arial",
					"fontsize" : 14.0,
					"id" : "obj-5",
					"maxclass" : "comment",
					"numinlets" : 1,
					"numoutlets" : 0,
					"patching_rect" : [ 10.0, 467.0, 97.0, 22.0 ],
					"style" : "",
					"text" : "simple delta :"
				}

			}
, 			{
				"box" : 				{
					"id" : "obj-26",
					"maxclass" : "button",
					"numinlets" : 1,
					"numoutlets" : 1,
					"outlettype" : [ "bang" ],
					"patching_rect" : [ 68.0, 389.0, 31.0, 31.0 ],
					"style" : ""
				}

			}
, 			{
				"box" : 				{
					"id" : "obj-24",
					"maxclass" : "button",
					"numinlets" : 1,
					"numoutlets" : 1,
					"outlettype" : [ "bang" ],
					"patching_rect" : [ 8.0, 389.0, 31.0, 31.0 ],
					"style" : ""
				}

			}
, 			{
				"box" : 				{
					"color" : [ 0.827451, 0.737255, 0.835294, 1.0 ],
					"fontname" : "Arial",
					"fontsize" : 14.0,
					"id" : "obj-22",
					"maxclass" : "newobj",
					"numinlets" : 2,
					"numoutlets" : 1,
					"outlettype" : [ "int" ],
					"patcher" : 					{
						"fileversion" : 1,
						"appversion" : 						{
							"major" : 7,
							"minor" : 0,
							"revision" : 1,
							"architecture" : "x86",
							"modernui" : 1
						}
,
						"rect" : [ 596.0, 44.0, 133.0, 353.0 ],
						"bglocked" : 0,
						"openinpresentation" : 0,
						"default_fontsize" : 14.0,
						"default_fontface" : 0,
						"default_fontname" : "Arial",
						"gridonopen" : 1,
						"gridsize" : [ 20.0, 20.0 ],
						"gridsnaponopen" : 1,
						"objectsnaponopen" : 1,
						"statusbarvisible" : 2,
						"toolbarvisible" : 0,
						"lefttoolbarpinned" : 0,
						"toptoolbarpinned" : 0,
						"righttoolbarpinned" : 0,
						"bottomtoolbarpinned" : 0,
						"toolbars_unpinned_last_save" : 0,
						"tallnewobj" : 0,
						"boxanimatetime" : 200,
						"enablehscroll" : 1,
						"enablevscroll" : 1,
						"devicewidth" : 0.0,
						"description" : "",
						"digest" : "",
						"tags" : "",
						"style" : "",
						"subpatcher_template" : "",
						"boxes" : [ 							{
								"box" : 								{
									"fontname" : "Arial",
									"fontsize" : 14.0,
									"id" : "obj-3",
									"maxclass" : "newobj",
									"numinlets" : 3,
									"numoutlets" : 2,
									"outlettype" : [ "int", "int" ],
									"patching_rect" : [ 37.0, 238.0, 79.0, 22.0 ],
									"style" : "",
									"text" : "split -90 90"
								}

							}
, 							{
								"box" : 								{
									"fontname" : "Arial",
									"fontsize" : 14.0,
									"id" : "obj-2",
									"maxclass" : "newobj",
									"numinlets" : 1,
									"numoutlets" : 1,
									"outlettype" : [ "int" ],
									"patching_rect" : [ 90.0, 193.0, 26.0, 22.0 ],
									"style" : "",
									"text" : "t 0"
								}

							}
, 							{
								"box" : 								{
									"comment" : "",
									"id" : "obj-1",
									"maxclass" : "inlet",
									"numinlets" : 0,
									"numoutlets" : 1,
									"outlettype" : [ "bang" ],
									"patching_rect" : [ 90.0, 157.0, 25.0, 25.0 ],
									"style" : ""
								}

							}
, 							{
								"box" : 								{
									"fontname" : "Arial",
									"fontsize" : 14.0,
									"id" : "obj-12",
									"maxclass" : "newobj",
									"numinlets" : 1,
									"numoutlets" : 2,
									"outlettype" : [ "bang", "int" ],
									"patching_rect" : [ 20.0, 158.0, 36.0, 22.0 ],
									"style" : "",
									"text" : "t b i"
								}

							}
, 							{
								"box" : 								{
									"fontname" : "Arial",
									"fontsize" : 14.0,
									"id" : "obj-9",
									"maxclass" : "newobj",
									"numinlets" : 3,
									"numoutlets" : 1,
									"outlettype" : [ "int" ],
									"patching_rect" : [ 20.0, 276.0, 52.0, 22.0 ],
									"style" : "",
									"text" : "accum"
								}

							}
, 							{
								"box" : 								{
									"fontname" : "Arial",
									"fontsize" : 14.0,
									"id" : "obj-7",
									"maxclass" : "newobj",
									"numinlets" : 2,
									"numoutlets" : 1,
									"outlettype" : [ "int" ],
									"patching_rect" : [ 20.0, 129.0, 53.5, 22.0 ],
									"style" : "",
									"text" : "- 0"
								}

							}
, 							{
								"box" : 								{
									"fontname" : "Arial",
									"fontsize" : 14.0,
									"id" : "obj-6",
									"maxclass" : "newobj",
									"numinlets" : 2,
									"numoutlets" : 1,
									"outlettype" : [ "int" ],
									"patching_rect" : [ 54.0, 98.0, 29.5, 22.0 ],
									"style" : "",
									"text" : "int"
								}

							}
, 							{
								"box" : 								{
									"fontname" : "Arial",
									"fontsize" : 14.0,
									"id" : "obj-5",
									"maxclass" : "newobj",
									"numinlets" : 1,
									"numoutlets" : 3,
									"outlettype" : [ "int", "int", "bang" ],
									"patching_rect" : [ 20.0, 52.0, 53.0, 22.0 ],
									"style" : "",
									"text" : "t i i b"
								}

							}
, 							{
								"box" : 								{
									"comment" : "",
									"id" : "obj-20",
									"maxclass" : "inlet",
									"numinlets" : 0,
									"numoutlets" : 1,
									"outlettype" : [ "float" ],
									"patching_rect" : [ 20.0, 20.0, 25.0, 25.0 ],
									"style" : ""
								}

							}
, 							{
								"box" : 								{
									"comment" : "",
									"id" : "obj-21",
									"maxclass" : "outlet",
									"numinlets" : 1,
									"numoutlets" : 0,
									"patching_rect" : [ 20.0, 311.0, 25.0, 25.0 ],
									"style" : ""
								}

							}
 ],
						"lines" : [ 							{
								"patchline" : 								{
									"destination" : [ "obj-2", 0 ],
									"disabled" : 0,
									"hidden" : 0,
									"source" : [ "obj-1", 0 ]
								}

							}
, 							{
								"patchline" : 								{
									"destination" : [ "obj-3", 0 ],
									"disabled" : 0,
									"hidden" : 0,
									"source" : [ "obj-12", 1 ]
								}

							}
, 							{
								"patchline" : 								{
									"destination" : [ "obj-9", 0 ],
									"disabled" : 0,
									"hidden" : 0,
									"source" : [ "obj-12", 0 ]
								}

							}
, 							{
								"patchline" : 								{
									"destination" : [ "obj-9", 0 ],
									"disabled" : 0,
									"hidden" : 0,
									"midpoints" : [ 99.5, 225.0, 29.5, 225.0 ],
									"source" : [ "obj-2", 0 ]
								}

							}
, 							{
								"patchline" : 								{
									"destination" : [ "obj-5", 0 ],
									"disabled" : 0,
									"hidden" : 0,
									"source" : [ "obj-20", 0 ]
								}

							}
, 							{
								"patchline" : 								{
									"destination" : [ "obj-9", 1 ],
									"disabled" : 0,
									"hidden" : 0,
									"source" : [ "obj-3", 0 ]
								}

							}
, 							{
								"patchline" : 								{
									"destination" : [ "obj-6", 0 ],
									"disabled" : 0,
									"hidden" : 0,
									"source" : [ "obj-5", 2 ]
								}

							}
, 							{
								"patchline" : 								{
									"destination" : [ "obj-6", 1 ],
									"disabled" : 0,
									"hidden" : 0,
									"midpoints" : [ 46.5, 86.0, 74.0, 86.0 ],
									"source" : [ "obj-5", 1 ]
								}

							}
, 							{
								"patchline" : 								{
									"destination" : [ "obj-7", 0 ],
									"disabled" : 0,
									"hidden" : 0,
									"source" : [ "obj-5", 0 ]
								}

							}
, 							{
								"patchline" : 								{
									"destination" : [ "obj-7", 1 ],
									"disabled" : 0,
									"hidden" : 0,
									"source" : [ "obj-6", 0 ]
								}

							}
, 							{
								"patchline" : 								{
									"destination" : [ "obj-12", 0 ],
									"disabled" : 0,
									"hidden" : 0,
									"source" : [ "obj-7", 0 ]
								}

							}
, 							{
								"patchline" : 								{
									"destination" : [ "obj-21", 0 ],
									"disabled" : 0,
									"hidden" : 0,
									"source" : [ "obj-9", 0 ]
								}

							}
 ]
					}
,
					"patching_rect" : [ 8.0, 231.0, 53.0, 24.0 ],
					"saved_object_attributes" : 					{
						"description" : "",
						"digest" : "",
						"fontsize" : 14.0,
						"globalpatchername" : "",
						"style" : "",
						"tags" : ""
					}
,
					"style" : "",
					"text" : "p delta"
				}

			}
, 			{
				"box" : 				{
					"fontname" : "Arial",
					"fontsize" : 14.0,
					"id" : "obj-19",
					"maxclass" : "newobj",
					"numinlets" : 2,
					"numoutlets" : 2,
					"outlettype" : [ "bang", "" ],
					"patching_rect" : [ 68.0, 355.0, 40.0, 24.0 ],
					"style" : "",
					"text" : "sel 1"
				}

			}
, 			{
				"box" : 				{
					"fontname" : "Arial",
					"fontsize" : 14.0,
					"id" : "obj-18",
					"maxclass" : "newobj",
					"numinlets" : 2,
					"numoutlets" : 2,
					"outlettype" : [ "bang", "" ],
					"patching_rect" : [ 8.0, 355.0, 40.0, 24.0 ],
					"style" : "",
					"text" : "sel 1"
				}

			}
, 			{
				"box" : 				{
					"fontname" : "Arial",
					"fontsize" : 14.0,
					"id" : "obj-17",
					"maxclass" : "newobj",
					"numinlets" : 2,
					"numoutlets" : 1,
					"outlettype" : [ "int" ],
					"patching_rect" : [ 68.0, 322.0, 43.0, 24.0 ],
					"style" : "",
					"text" : "< -30"
				}

			}
, 			{
				"box" : 				{
					"fontname" : "Arial",
					"fontsize" : 14.0,
					"id" : "obj-16",
					"maxclass" : "newobj",
					"numinlets" : 2,
					"numoutlets" : 1,
					"outlettype" : [ "int" ],
					"patching_rect" : [ 8.0, 322.0, 38.0, 24.0 ],
					"style" : "",
					"text" : "> 30"
				}

			}
, 			{
				"box" : 				{
					"fontname" : "Arial",
					"fontsize" : 14.0,
					"id" : "obj-11",
					"maxclass" : "number",
					"numinlets" : 1,
					"numoutlets" : 2,
					"outlettype" : [ "", "bang" ],
					"parameter_enable" : 0,
					"patching_rect" : [ 8.0, 271.0, 50.0, 24.0 ],
					"style" : ""
				}

			}
, 			{
				"box" : 				{
					"angle" : 180.0,
					"background" : 1,
					"grad1" : [ 0.0, 0.0, 0.0, 1.0 ],
					"grad2" : [ 0.258824, 0.258824, 0.258824, 1.0 ],
					"id" : "obj-13",
					"maxclass" : "panel",
					"mode" : 1,
					"numinlets" : 1,
					"numoutlets" : 0,
					"patching_rect" : [ 2.0, 2.0, 585.0, 51.0 ],
					"proportion" : 0.39,
					"style" : "",
					"varname" : "autohelp_top_panel[1]"
				}

			}
 ],
		"lines" : [ 			{
				"patchline" : 				{
					"destination" : [ "obj-8", 0 ],
					"disabled" : 0,
					"hidden" : 0,
					"source" : [ "obj-10", 1 ]
				}

			}
, 			{
				"patchline" : 				{
					"destination" : [ "obj-8", 1 ],
					"disabled" : 0,
					"hidden" : 0,
					"midpoints" : [ 115.5, 531.0, 154.5, 531.0 ],
					"source" : [ "obj-10", 0 ]
				}

			}
, 			{
				"patchline" : 				{
					"destination" : [ "obj-16", 0 ],
					"disabled" : 0,
					"hidden" : 0,
					"source" : [ "obj-11", 0 ]
				}

			}
, 			{
				"patchline" : 				{
					"destination" : [ "obj-17", 0 ],
					"disabled" : 0,
					"hidden" : 0,
					"midpoints" : [ 17.5, 308.5, 77.5, 308.5 ],
					"source" : [ "obj-11", 0 ]
				}

			}
, 			{
				"patchline" : 				{
					"destination" : [ "obj-10", 0 ],
					"disabled" : 0,
					"hidden" : 0,
					"source" : [ "obj-12", 0 ]
				}

			}
, 			{
				"patchline" : 				{
					"destination" : [ "obj-22", 0 ],
					"disabled" : 0,
					"hidden" : 0,
					"source" : [ "obj-14", 0 ]
				}

			}
, 			{
				"patchline" : 				{
					"destination" : [ "obj-18", 0 ],
					"disabled" : 0,
					"hidden" : 0,
					"source" : [ "obj-16", 0 ]
				}

			}
, 			{
				"patchline" : 				{
					"destination" : [ "obj-19", 0 ],
					"disabled" : 0,
					"hidden" : 0,
					"source" : [ "obj-17", 0 ]
				}

			}
, 			{
				"patchline" : 				{
					"destination" : [ "obj-24", 0 ],
					"disabled" : 0,
					"hidden" : 0,
					"source" : [ "obj-18", 0 ]
				}

			}
, 			{
				"patchline" : 				{
					"destination" : [ "obj-26", 0 ],
					"disabled" : 0,
					"hidden" : 0,
					"source" : [ "obj-19", 0 ]
				}

			}
, 			{
				"patchline" : 				{
					"destination" : [ "obj-11", 0 ],
					"disabled" : 0,
					"hidden" : 0,
					"source" : [ "obj-22", 0 ]
				}

			}
, 			{
				"patchline" : 				{
					"destination" : [ "obj-22", 1 ],
					"disabled" : 0,
					"hidden" : 0,
					"midpoints" : [ 17.5, 430.0, 141.0, 430.0, 141.0, 216.0, 51.5, 216.0 ],
					"source" : [ "obj-24", 0 ]
				}

			}
, 			{
				"patchline" : 				{
					"destination" : [ "obj-37", 0 ],
					"disabled" : 0,
					"hidden" : 0,
					"source" : [ "obj-25", 0 ]
				}

			}
, 			{
				"patchline" : 				{
					"destination" : [ "obj-22", 1 ],
					"disabled" : 0,
					"hidden" : 0,
					"midpoints" : [ 77.5, 430.0, 141.0, 430.0, 141.0, 216.0, 51.5, 216.0 ],
					"source" : [ "obj-26", 0 ]
				}

			}
, 			{
				"patchline" : 				{
					"destination" : [ "obj-25", 1 ],
					"disabled" : 0,
					"hidden" : 0,
					"source" : [ "obj-27", 0 ]
				}

			}
, 			{
				"patchline" : 				{
					"destination" : [ "obj-30", 0 ],
					"disabled" : 0,
					"hidden" : 0,
					"source" : [ "obj-28", 0 ]
				}

			}
, 			{
				"patchline" : 				{
					"destination" : [ "obj-31", 0 ],
					"disabled" : 0,
					"hidden" : 0,
					"source" : [ "obj-29", 0 ]
				}

			}
, 			{
				"patchline" : 				{
					"destination" : [ "obj-33", 0 ],
					"disabled" : 0,
					"hidden" : 0,
					"source" : [ "obj-30", 0 ]
				}

			}
, 			{
				"patchline" : 				{
					"destination" : [ "obj-35", 0 ],
					"disabled" : 0,
					"hidden" : 0,
					"source" : [ "obj-31", 0 ]
				}

			}
, 			{
				"patchline" : 				{
					"destination" : [ "obj-27", 0 ],
					"disabled" : 0,
					"hidden" : 0,
					"midpoints" : [ 340.5, 499.0, 464.0, 499.0, 464.0, 268.0, 381.5, 268.0 ],
					"source" : [ "obj-33", 0 ]
				}

			}
, 			{
				"patchline" : 				{
					"destination" : [ "obj-27", 0 ],
					"disabled" : 0,
					"hidden" : 0,
					"midpoints" : [ 400.5, 499.0, 464.0, 499.0, 464.0, 268.0, 381.5, 268.0 ],
					"source" : [ "obj-35", 0 ]
				}

			}
, 			{
				"patchline" : 				{
					"destination" : [ "obj-28", 0 ],
					"disabled" : 0,
					"hidden" : 0,
					"source" : [ "obj-37", 0 ]
				}

			}
, 			{
				"patchline" : 				{
					"destination" : [ "obj-29", 0 ],
					"disabled" : 0,
					"hidden" : 0,
					"midpoints" : [ 340.5, 372.5, 400.5, 372.5 ],
					"source" : [ "obj-37", 0 ]
				}

			}
, 			{
				"patchline" : 				{
					"destination" : [ "obj-25", 0 ],
					"disabled" : 0,
					"hidden" : 0,
					"source" : [ "obj-6", 0 ]
				}

			}
, 			{
				"patchline" : 				{
					"destination" : [ "obj-27", 1 ],
					"disabled" : 0,
					"hidden" : 0,
					"source" : [ "obj-6", 1 ]
				}

			}
, 			{
				"patchline" : 				{
					"destination" : [ "obj-9", 0 ],
					"disabled" : 0,
					"hidden" : 0,
					"source" : [ "obj-7", 0 ]
				}

			}
, 			{
				"patchline" : 				{
					"destination" : [ "obj-4", 0 ],
					"disabled" : 0,
					"hidden" : 0,
					"source" : [ "obj-8", 0 ]
				}

			}
, 			{
				"patchline" : 				{
					"destination" : [ "obj-6", 0 ],
					"disabled" : 0,
					"hidden" : 0,
					"source" : [ "obj-9", 0 ]
				}

			}
 ],
		"dependency_cache" : [  ],
		"embedsnapshot" : 0
	}

}
