{
	"patcher" : 	{
		"fileversion" : 1,
		"rect" : [ 30.0, 44.0, 765.0, 366.0 ],
		"bgcolor" : [ 0.745098, 0.745098, 0.705882, 1.0 ],
		"bglocked" : 0,
		"defrect" : [ 30.0, 44.0, 765.0, 366.0 ],
		"openrect" : [ 0.0, 0.0, 0.0, 0.0 ],
		"openinpresentation" : 0,
		"default_fontsize" : 12.0,
		"default_fontface" : 0,
		"default_fontname" : "Arial",
		"gridonopen" : 0,
		"gridsize" : [ 15.0, 5.0 ],
		"gridsnaponopen" : 0,
		"toolbarvisible" : 0,
		"boxanimatetime" : 200,
		"imprint" : 0,
		"metadata" : [  ],
		"boxes" : [ 			{
				"box" : 				{
					"maxclass" : "panel",
					"numoutlets" : 0,
					"bgcolor" : [ 0.168627, 0.513726, 1.0, 1.0 ],
					"patching_rect" : [ 752.0, 3.0, 8.0, 47.0 ],
					"id" : "obj-2",
					"rounded" : 0,
					"numinlets" : 1
				}

			}
, 			{
				"box" : 				{
					"maxclass" : "panel",
					"numoutlets" : 0,
					"bgcolor" : [ 1.0, 0.945098, 0.094118, 1.0 ],
					"patching_rect" : [ 740.0, 3.0, 13.0, 47.0 ],
					"id" : "obj-3",
					"rounded" : 0,
					"numinlets" : 1
				}

			}
, 			{
				"box" : 				{
					"maxclass" : "comment",
					"text" : "andrewb@cycling74.com",
					"numoutlets" : 0,
					"fontsize" : 9.0,
					"patching_rect" : [ 604.0, 35.0, 120.0, 17.0 ],
					"id" : "obj-4",
					"fontname" : "Arial",
					"numinlets" : 1
				}

			}
, 			{
				"box" : 				{
					"maxclass" : "comment",
					"text" : "AlphaToast",
					"numoutlets" : 0,
					"fontsize" : 24.0,
					"patching_rect" : [ 591.0, 7.0, 152.0, 34.0 ],
					"id" : "obj-5",
					"fontname" : "Arial",
					"numinlets" : 1
				}

			}
, 			{
				"box" : 				{
					"maxclass" : "panel",
					"numoutlets" : 0,
					"bgcolor" : [ 0.909804, 0.427451, 0.0, 1.0 ],
					"patching_rect" : [ 724.0, 3.0, 17.0, 47.0 ],
					"id" : "obj-6",
					"rounded" : 0,
					"numinlets" : 1
				}

			}
, 			{
				"box" : 				{
					"maxclass" : "panel",
					"numoutlets" : 0,
					"bgcolor" : [ 0.87451, 0.956863, 1.0, 1.0 ],
					"patching_rect" : [ 560.0, 3.0, 166.0, 47.0 ],
					"id" : "obj-7",
					"rounded" : 0,
					"numinlets" : 1
				}

			}
, 			{
				"box" : 				{
					"maxclass" : "comment",
					"text" : "alpha-source",
					"numoutlets" : 0,
					"fontsize" : 9.650487,
					"patching_rect" : [ 115.831291, 123.783455, 65.564789, 18.0 ],
					"id" : "obj-8",
					"fontname" : "Arial",
					"numinlets" : 1
				}

			}
, 			{
				"box" : 				{
					"maxclass" : "comment",
					"text" : "source 2",
					"numoutlets" : 0,
					"fontsize" : 9.650487,
					"patching_rect" : [ 382.826416, 93.779984, 49.173595, 18.0 ],
					"id" : "obj-9",
					"fontname" : "Arial",
					"numinlets" : 1
				}

			}
, 			{
				"box" : 				{
					"maxclass" : "flonum",
					"numoutlets" : 2,
					"htextcolor" : [ 0.870588, 0.870588, 0.870588, 1.0 ],
					"triscale" : 0.9,
					"fontsize" : 9.650487,
					"outlettype" : [ "float", "bang" ],
					"bgcolor" : [ 0.866667, 0.866667, 0.866667, 1.0 ],
					"patching_rect" : [ 114.42054, 243.003342, 35.855747, 18.0 ],
					"id" : "obj-10",
					"fontname" : "Arial",
					"numinlets" : 1
				}

			}
, 			{
				"box" : 				{
					"maxclass" : "newobj",
					"text" : "jit.op @op + @val -5.",
					"numoutlets" : 2,
					"fontsize" : 9.650487,
					"outlettype" : [ "jit_matrix", "" ],
					"patching_rect" : [ 13.0, 263.477539, 111.665039, 18.0 ],
					"id" : "obj-11",
					"fontname" : "Arial",
					"numinlets" : 2
				}

			}
, 			{
				"box" : 				{
					"maxclass" : "newobj",
					"text" : "jit.op @op * @val 10.",
					"numoutlets" : 2,
					"fontsize" : 9.650487,
					"outlettype" : [ "jit_matrix", "" ],
					"patching_rect" : [ 13.0, 220.254196, 110.640587, 18.0 ],
					"id" : "obj-12",
					"fontname" : "Arial",
					"numinlets" : 2
				}

			}
, 			{
				"box" : 				{
					"maxclass" : "newobj",
					"text" : "jit.matrix 1 char 320 240",
					"numoutlets" : 2,
					"fontsize" : 9.650487,
					"outlettype" : [ "jit_matrix", "" ],
					"patching_rect" : [ 13.0, 286.226685, 132.154037, 18.0 ],
					"id" : "obj-13",
					"fontname" : "Arial",
					"numinlets" : 1
				}

			}
, 			{
				"box" : 				{
					"maxclass" : "newobj",
					"text" : "jit.matrix 1 float32 320 240",
					"numoutlets" : 2,
					"fontsize" : 9.650487,
					"outlettype" : [ "jit_matrix", "" ],
					"patching_rect" : [ 13.0, 177.030853, 145.471878, 18.0 ],
					"id" : "obj-14",
					"fontname" : "Arial",
					"numinlets" : 1
				}

			}
, 			{
				"box" : 				{
					"maxclass" : "flonum",
					"numoutlets" : 2,
					"htextcolor" : [ 0.870588, 0.870588, 0.870588, 1.0 ],
					"triscale" : 0.9,
					"fontsize" : 9.650487,
					"outlettype" : [ "float", "bang" ],
					"bgcolor" : [ 0.866667, 0.866667, 0.866667, 1.0 ],
					"patching_rect" : [ 113.396088, 199.779984, 35.855747, 18.0 ],
					"id" : "obj-15",
					"fontname" : "Arial",
					"numinlets" : 1
				}

			}
, 			{
				"box" : 				{
					"maxclass" : "newobj",
					"text" : "jit.pack 4",
					"numoutlets" : 2,
					"fontsize" : 9.650487,
					"outlettype" : [ "jit_matrix", "" ],
					"patching_rect" : [ 214.81662, 315.800537, 54.295845, 18.0 ],
					"id" : "obj-16",
					"fontname" : "Arial",
					"numinlets" : 4
				}

			}
, 			{
				"box" : 				{
					"maxclass" : "newobj",
					"text" : "jit.unpack 4",
					"numoutlets" : 5,
					"fontsize" : 9.650487,
					"outlettype" : [ "jit_matrix", "jit_matrix", "jit_matrix", "jit_matrix", "" ],
					"patching_rect" : [ 214.81662, 254.377899, 67.613693, 18.0 ],
					"id" : "obj-17",
					"fontname" : "Arial",
					"numinlets" : 1
				}

			}
, 			{
				"box" : 				{
					"maxclass" : "newobj",
					"text" : "jit.rgb2luma",
					"numoutlets" : 2,
					"fontsize" : 9.650487,
					"outlettype" : [ "jit_matrix", "" ],
					"patching_rect" : [ 13.0, 153.144272, 67.613693, 18.0 ],
					"id" : "obj-18",
					"fontname" : "Arial",
					"numinlets" : 1
				}

			}
, 			{
				"box" : 				{
					"maxclass" : "message",
					"text" : "open",
					"numoutlets" : 1,
					"fontsize" : 14.702909,
					"outlettype" : [ "" ],
					"patching_rect" : [ 31.440098, 89.13681, 43.733494, 21.0 ],
					"id" : "obj-19",
					"fontname" : "Arial",
					"numinlets" : 2
				}

			}
, 			{
				"box" : 				{
					"maxclass" : "newobj",
					"text" : "jit.qt.grab 320 240",
					"numoutlets" : 2,
					"fontsize" : 9.650487,
					"outlettype" : [ "jit_matrix", "" ],
					"patching_rect" : [ 13.0, 123.570396, 100.396088, 18.0 ],
					"id" : "obj-20",
					"fontname" : "Arial",
					"numinlets" : 1
				}

			}
, 			{
				"box" : 				{
					"maxclass" : "newobj",
					"text" : "jit.alphablend",
					"numoutlets" : 2,
					"fontsize" : 9.650487,
					"outlettype" : [ "jit_matrix", "" ],
					"patching_rect" : [ 214.81662, 335.687134, 127.031784, 18.0 ],
					"id" : "obj-21",
					"fontname" : "Arial",
					"numinlets" : 2
				}

			}
, 			{
				"box" : 				{
					"maxclass" : "newobj",
					"text" : "jit.qt.movie 320 240",
					"numoutlets" : 2,
					"fontsize" : 9.650487,
					"outlettype" : [ "jit_matrix", "" ],
					"patching_rect" : [ 323.408325, 109.704376, 107.567238, 18.0 ],
					"id" : "obj-22",
					"fontname" : "Arial",
					"numinlets" : 1
				}

			}
, 			{
				"box" : 				{
					"maxclass" : "newobj",
					"text" : "t b b b",
					"numoutlets" : 3,
					"fontsize" : 9.650487,
					"outlettype" : [ "bang", "bang", "bang" ],
					"patching_rect" : [ 13.0, 47.360806, 114.738388, 18.0 ],
					"id" : "obj-23",
					"fontname" : "Arial",
					"numinlets" : 1
				}

			}
, 			{
				"box" : 				{
					"maxclass" : "message",
					"text" : "read",
					"numoutlets" : 1,
					"fontsize" : 14.702909,
					"outlettype" : [ "" ],
					"patching_rect" : [ 337.75061, 78.683159, 43.733494, 21.0 ],
					"id" : "obj-24",
					"fontname" : "Arial",
					"numinlets" : 2
				}

			}
, 			{
				"box" : 				{
					"maxclass" : "jit.pwindow",
					"numoutlets" : 2,
					"outlettype" : [ "", "" ],
					"depthbuffer" : 0,
					"patching_rect" : [ 439.0, 119.0, 320.0, 240.0 ],
					"id" : "obj-25",
					"numinlets" : 1
				}

			}
, 			{
				"box" : 				{
					"maxclass" : "message",
					"text" : "read",
					"numoutlets" : 1,
					"fontsize" : 14.702909,
					"outlettype" : [ "" ],
					"patching_rect" : [ 237.354523, 78.683159, 43.733494, 21.0 ],
					"id" : "obj-26",
					"fontname" : "Arial",
					"numinlets" : 2
				}

			}
, 			{
				"box" : 				{
					"maxclass" : "toggle",
					"numoutlets" : 1,
					"outlettype" : [ "int" ],
					"patching_rect" : [ 13.0, 3.0, 22.366749, 22.366749 ],
					"id" : "obj-28",
					"numinlets" : 1
				}

			}
, 			{
				"box" : 				{
					"maxclass" : "newobj",
					"text" : "qmetro 33",
					"numoutlets" : 1,
					"fontsize" : 9.650487,
					"outlettype" : [ "bang" ],
					"patching_rect" : [ 13.0, 25.74913, 54.0, 18.0 ],
					"id" : "obj-29",
					"fontname" : "Arial",
					"numinlets" : 2
				}

			}
, 			{
				"box" : 				{
					"maxclass" : "newobj",
					"text" : "jit.qt.movie 320 240",
					"numoutlets" : 2,
					"fontsize" : 9.650487,
					"outlettype" : [ "jit_matrix", "" ],
					"patching_rect" : [ 214.81662, 109.704376, 107.567238, 18.0 ],
					"id" : "obj-30",
					"fontname" : "Arial",
					"numinlets" : 1
				}

			}
, 			{
				"box" : 				{
					"maxclass" : "comment",
					"text" : "source 1",
					"numoutlets" : 0,
					"fontsize" : 9.650487,
					"patching_rect" : [ 275.259155, 93.779984, 49.173595, 18.0 ],
					"id" : "obj-31",
					"fontname" : "Arial",
					"numinlets" : 1
				}

			}
 ],
		"lines" : [ 			{
				"patchline" : 				{
					"source" : [ "obj-28", 0 ],
					"destination" : [ "obj-29", 0 ],
					"hidden" : 0,
					"midpoints" : [  ]
				}

			}
, 			{
				"patchline" : 				{
					"source" : [ "obj-29", 0 ],
					"destination" : [ "obj-23", 0 ],
					"hidden" : 0,
					"midpoints" : [  ]
				}

			}
, 			{
				"patchline" : 				{
					"source" : [ "obj-21", 0 ],
					"destination" : [ "obj-25", 0 ],
					"hidden" : 0,
					"midpoints" : [ 224.31662, 357.0, 435.0, 357.0, 435.0, 115.0, 448.5, 115.0 ]
				}

			}
, 			{
				"patchline" : 				{
					"source" : [ "obj-22", 0 ],
					"destination" : [ "obj-21", 1 ],
					"hidden" : 0,
					"midpoints" : [  ]
				}

			}
, 			{
				"patchline" : 				{
					"source" : [ "obj-24", 0 ],
					"destination" : [ "obj-22", 0 ],
					"hidden" : 0,
					"midpoints" : [  ]
				}

			}
, 			{
				"patchline" : 				{
					"source" : [ "obj-23", 2 ],
					"destination" : [ "obj-22", 0 ],
					"hidden" : 0,
					"midpoints" : [ 118.238388, 74.65976, 332.908325, 74.65976 ]
				}

			}
, 			{
				"patchline" : 				{
					"source" : [ "obj-17", 3 ],
					"destination" : [ "obj-16", 3 ],
					"hidden" : 0,
					"midpoints" : [  ]
				}

			}
, 			{
				"patchline" : 				{
					"source" : [ "obj-17", 2 ],
					"destination" : [ "obj-16", 2 ],
					"hidden" : 0,
					"midpoints" : [  ]
				}

			}
, 			{
				"patchline" : 				{
					"source" : [ "obj-17", 1 ],
					"destination" : [ "obj-16", 1 ],
					"hidden" : 0,
					"midpoints" : [  ]
				}

			}
, 			{
				"patchline" : 				{
					"source" : [ "obj-16", 0 ],
					"destination" : [ "obj-21", 0 ],
					"hidden" : 0,
					"midpoints" : [  ]
				}

			}
, 			{
				"patchline" : 				{
					"source" : [ "obj-13", 0 ],
					"destination" : [ "obj-16", 0 ],
					"hidden" : 0,
					"midpoints" : [ 22.5, 311.250702, 224.31662, 311.250702 ]
				}

			}
, 			{
				"patchline" : 				{
					"source" : [ "obj-30", 0 ],
					"destination" : [ "obj-17", 0 ],
					"hidden" : 0,
					"midpoints" : [  ]
				}

			}
, 			{
				"patchline" : 				{
					"source" : [ "obj-26", 0 ],
					"destination" : [ "obj-30", 0 ],
					"hidden" : 0,
					"midpoints" : [  ]
				}

			}
, 			{
				"patchline" : 				{
					"source" : [ "obj-23", 1 ],
					"destination" : [ "obj-30", 0 ],
					"hidden" : 0,
					"midpoints" : [ 70.369194, 74.65976, 224.31662, 74.65976 ]
				}

			}
, 			{
				"patchline" : 				{
					"source" : [ "obj-10", 0 ],
					"destination" : [ "obj-11", 1 ],
					"hidden" : 0,
					"midpoints" : [  ]
				}

			}
, 			{
				"patchline" : 				{
					"source" : [ "obj-15", 0 ],
					"destination" : [ "obj-12", 1 ],
					"hidden" : 0,
					"midpoints" : [  ]
				}

			}
, 			{
				"patchline" : 				{
					"source" : [ "obj-11", 0 ],
					"destination" : [ "obj-13", 0 ],
					"hidden" : 0,
					"midpoints" : [  ]
				}

			}
, 			{
				"patchline" : 				{
					"source" : [ "obj-12", 0 ],
					"destination" : [ "obj-11", 0 ],
					"hidden" : 0,
					"midpoints" : [  ]
				}

			}
, 			{
				"patchline" : 				{
					"source" : [ "obj-14", 0 ],
					"destination" : [ "obj-12", 0 ],
					"hidden" : 0,
					"midpoints" : [  ]
				}

			}
, 			{
				"patchline" : 				{
					"source" : [ "obj-18", 0 ],
					"destination" : [ "obj-14", 0 ],
					"hidden" : 0,
					"midpoints" : [  ]
				}

			}
, 			{
				"patchline" : 				{
					"source" : [ "obj-20", 0 ],
					"destination" : [ "obj-18", 0 ],
					"hidden" : 0,
					"midpoints" : [  ]
				}

			}
, 			{
				"patchline" : 				{
					"source" : [ "obj-23", 0 ],
					"destination" : [ "obj-20", 0 ],
					"hidden" : 0,
					"midpoints" : [  ]
				}

			}
, 			{
				"patchline" : 				{
					"source" : [ "obj-19", 0 ],
					"destination" : [ "obj-20", 0 ],
					"hidden" : 0,
					"midpoints" : [  ]
				}

			}
 ]
	}

}
