max v2;#N vpatcher 453 44 1322 495;#P user panel 795 27 8 47;#X brgb 43 131 255;#X frgb 0 0 0;#X border 0;#X rounded 0;#X shadow 0;#X done;#P user panel 783 27 13 47;#X brgb 255 241 24;#X frgb 0 0 0;#X border 0;#X rounded 0;#X shadow 0;#X done;#P window setfont "Sans Serif" 9.;#P comment 647 59 120 196617 andrewb@cycling74.com;#P window setfont "Sans Serif" 24.;#P comment 653 30 114 196632 Animator;#P user panel 767 27 17 47;#X brgb 232 109 0;#X frgb 0 0 0;#X border 0;#X rounded 0;#X shadow 0;#X done;#P user panel 603 27 166 47;#X brgb 223 244 255;#X frgb 0 0 0;#X border 0;#X rounded 0;#X shadow 0;#X done;#P window setfont "Sans Serif" 9.;#P hidden newex 687 229 71 196617 prepend color;#P user multiSlider 521 103 125 94 0. 1. 4 2937 47 0 0 2 4 0 0;#M frgb 219 29 29;#M brgb 255 255 255;#M rgb2 127 127 127;#M rgb3 0 0 0;#M rgb4 121 182 0;#M rgb5 3 81 245;#M rgb6 181 181 181;#M rgb7 149 211 110;#M rgb8 187 9 201;#M rgb9 224 62 37;#M rgb10 7 114 128;#P objectname color;#P message 132 356 35 196617 write;#P hidden newex 223 65 71 196617 jit.fill point 2;#P user multiSlider 296 179 222 74 -1. 1. 20 2937 47 0 0 2 2 0 0;#M frgb 242 186 38;#M brgb 255 255 255;#M rgb2 127 127 127;#M rgb3 0 0 0;#M rgb4 37 52 91;#M rgb5 74 105 182;#M rgb6 112 158 18;#M rgb7 149 211 110;#M rgb8 187 9 201;#M rgb9 224 62 37;#M rgb10 7 114 128;#P objectname z;#P hidden newex 541 230 143 196617 jit.matrix point 3 float32 5 4;#P hidden newex 223 46 71 196617 jit.fill point 1;#P hidden newex 223 27 71 196617 jit.fill point 0;#P user multiSlider 296 27 222 74 -1. 1. 20 2937 47 0 0 2 2 0 0;#M frgb 241 105 223;#M brgb 255 255 255;#M rgb2 127 127 127;#M rgb3 0 0 0;#M rgb4 165 78 67;#M rgb5 74 105 182;#M rgb6 112 158 18;#M rgb7 149 211 110;#M rgb8 187 9 201;#M rgb9 224 62 37;#M rgb10 7 114 128;#P objectname x;#P user multiSlider 296 103 222 74 -1. 1. 20 2937 47 0 0 2 2 0 0;#M frgb 133 211 229;#M brgb 255 255 255;#M rgb2 127 127 127;#M rgb3 0 0 0;#M rgb4 78 141 57;#M rgb5 74 105 182;#M rgb6 112 158 18;#M rgb7 149 211 110;#M rgb8 187 9 201;#M rgb9 224 62 37;#M rgb10 7 114 128;#P objectname y;#N vpreset 1;#X append 1 1 13 281 205 function clear \; 13 281 205 function add 0. 1. 0 \; 13 281 205 function add 681.244873 2.70531 0 \; 13 281 205 function add 821.654114 2.451327 0 \; 13 281 205 function add 1050.469116 2.015929;#X append 1 1 0 \; 13 281 205 function add 1305.285889 3.648672 0 \; 13 281 205 function add 1320.886963 2.015929 0 \; 13 281 205 function add 1560.102783 2.59646 0 \; 13 281 205 function add 3037. 5.1 0 \; 13 281 205;#X append 1 1 function domain 3037. \; 13 281 205 function range 1. 5.1 \; 17 231 205 number int 3037 \;;#P preset 295 255 132 17;#P comment 181 298 23 196617 5--;#P comment 181 328 23 196617 4--;#P comment 181 354 24 196617 3--;#P comment 181 381 24 196617 2--;#P comment 181 407 24 196617 1--;#P comment 801 297 23 196617 --5;#P comment 801 327 23 196617 --4;#P comment 801 353 24 196617 --3;#P comment 801 380 24 196617 --2;#P toggle 160 181 15 0;#P newex 160 201 29 196617 gate;#P message 28 356 51 196617 recall \$1;#P message 140 329 14 196617 5;#P message 125 329 14 196617 4;#P message 110 329 14 196617 3;#P message 95 329 14 196617 2;#P message 80 329 14 196617 1;#P hidden message 80 356 49 196617 store \$1;#P newex 80 398 53 196617 autopattr;#X prestore color 4 0 0.693321 0.874655 0.369732 0.521216;#X prestore x 20 0 0.006382 0.76477 -0.345581 0.436892 0.631838 0.529161 0.463409 0.283735 0.207786 0.137461 0.189491 0.085765 -0.527778 0.082239 0.067469 -0.464503 -0.47365 -0.182531 -0.299265 -0.992615;#X prestore y 20 0 -0.221462 -0.397277 0.483467 0.509482 0.140651 0.389223 -0.206838 -0.626204 -0.565205 -0.040116 0.434203 -0.696207 -0.548505 0.1863 0.524586 -0.482039 -0.344913 0.789022 0.531303 0.42162;#X prestore z 20 0 -0.326617 0.359349 -0.05203 -0.476416 -0.52635 -0.60792 0.363543 0.26158 -0.390986 -0.60792 0.033401 -0.326282 -0.311512 -0.439491 0.342816 0.364971 0.372356 -0.35792 0.400133 0.292548;#P objectname u580002226;#P newex 80 378 91 196617 pattrstorage anim;#X autorestore anim.xml;#X client_rect 10 59 650 299;#X storage_rect 0 0 640 240;#P objectname anim;#P message 171 281 33 196617 clear;#P toggle 8 80 15 0;#P number 205 231 45 9 0 0 0 3 0 0 0 221 221 221 222 222 222 0 0 0;#P window setfont "Sans Serif" 12.;#P newex 134 227 67 196620 cpuclock;#P window setfont "Sans Serif" 9.;#P newex 134 252 68 196617 %;#P message 205 251 70 196617 setdomain \$1;#P user function 205 281 801 419 1 1 0 0;#X frgb 0 0 0;#X brgb 177 203 188;#X rgb2 85 85 85;#X rgb3 255 255 255;#X rgb4 0 0 0;#X rgb5 0 0 0;#X add 0. 1. 0;#X add 681.244873 2.70531 0;#X add 821.654114 2.451327 0;#X add 1050.469116 2.015929 0;#X add 1305.285889 3.648672 0;#X add 1320.886963 2.015929 0;#X add 1560.102783 2.59646 0;#X add 3037. 5.1 0;#X domain 3037.;#X range 1. 5.1;#X done;#P hidden newex 665 165 106 196617 bgcolor 190 190 180;#P hidden message 665 128 68 196617 fullscreen \$1;#P hidden toggle 648 128 15 0;#P hidden newex 690 103 35 196617 sel 27;#P hidden newex 648 103 40 196617 key;#P newex 8 100 60 196617 qmetro 0.5;#P hidden newex 665 146 186 196617 jit.window foo @depthbuffer 1 @fsaa 1;#P newex 8 157 219 196617 jit.gl.render foo @erase_color 0.7 0.65 0.3 1.;#P window linecount 2;#P hidden newex 541 249 262 196617 jit.gl.mesh foo @draw_mode tri_grid @auto_normals 1 @lighting_enable 1 @smooth_shading 1 @blend_enable 1;#P window linecount 1;#P newex 8 121 58 196617 t erase b b;#P comment 801 406 24 196617 --1;#P comment 413 421 128 196617 set animation breakpoints;#P comment 188 181 100 196617 <--turn on animation;#P connect 18 0 7 0;#P connect 7 0 3 0;#P fasten 3 0 5 0 13 135 13 135;#P fasten 3 1 5 0 37 142 13 142;#P fasten 13 0 28 0 210 423 11 423 11 350 33 350;#P hidden connect 23 0 22 0;#P hidden connect 24 0 22 0;#P hidden connect 25 0 22 0;#P hidden connect 26 0 22 0;#P hidden connect 27 0 22 0;#P hidden fasten 48 0 20 0 137 374 85 374;#P hidden connect 22 0 20 0;#P hidden fasten 28 0 20 0 33 375 85 375;#P fasten 29 0 16 0 165 220 139 220;#P connect 16 0 15 0;#P connect 30 0 29 0;#P fasten 3 2 29 1 61 147 184 147;#P connect 17 0 15 1;#P fasten 40 0 17 0 300 275 284 275 284 227 210 227;#P connect 17 0 14 0;#P fasten 40 0 13 0 300 278 210 278;#P hidden connect 19 0 13 0;#P fasten 15 0 13 0 139 275 210 275;#P connect 14 0 13 0;#P hidden connect 42 0 43 0;#P hidden connect 41 0 44 0;#P hidden connect 46 0 47 0;#P hidden connect 43 0 45 0;#P hidden connect 44 0 45 0;#P hidden connect 47 0 45 0;#P hidden connect 45 0 4 0;#P hidden fasten 50 0 4 0 692 248 546 248;#P hidden fasten 9 0 10 0 695 125 653 125;#P hidden fasten 10 0 11 0 664 143 664 128;#P hidden connect 11 0 6 0;#P hidden fasten 49 0 50 0 526 227 692 227;#P hidden fasten 8 0 9 0 689 120 689 105;#P pop;