max v2;#N vpatcher 346 54 938 652;#P user ezdac~ 85 83 129 116 0;#P user jit.pwindow 18 140 551 437 0 1 0 0 1 0;#P window setfont "Sans Serif" 9.;#P window linecount 1;#P newex 19 85 46 196617 metro 5;#P toggle 19 38 15 0;#N vpatcher 956 92 1336 647;#P origin 0 -53;#P window setfont "Sans Serif" 9.;#P window linecount 1;#P newex 98 87 56 196617 qlim 1000;#P newex 98 109 176 196617 t b b b;#P newex 98 275 185 196617 jit.rota 4 char 640 480 @boundmode 4;#N vpatcher 615 664 972 940;#P origin 0 -29;#P window setfont "Sans Serif" 9.;#P window linecount 1;#P comment 183 227 15 196617 y;#P window linecount 0;#P newex 10 153 43 196617 +~ 160;#P newex 10 133 44 196617 *~ 160;#P newex 175 151 43 196617 +~ 120;#P newex 157 62 40 196617 +~ 0.5;#P newex 157 43 41 196617 *~ 0.5;#P newex 157 82 38 196617 *~ 45;#P newex 157 24 58 196617 cycle~ 0.5;#P newex 175 111 54 196617 rand~ 2.5;#P newex 175 131 44 196617 *~ 120;#P newex 10 113 54 196617 rand~ 2.1;#P newex 247 155 69 196617 *~;#P newex 247 133 61 196617 cycle~ 500;#P newex 96 156 71 196617 *~;#P newex 96 134 61 196617 cycle~ 600;#P newex 175 207 27 196617 +~;#P newex 10 210 27 196617 +~;#P newex 230 111 67 196617 phasor~ 300;#P newex 68 114 67 196617 phasor~ 200;#P newex 230 179 27 196617 *~;#P newex 68 177 38 196617 *~;#N vpatcher 36 537 408 798;#P origin 0 50;#P inlet 123 98 15 0;#P inlet 77 99 15 0;#P window setfont "Sans Serif" 9.;#P newex 237 184 27 196617 +~;#P newex 254 163 41 196617 *~ 0.8;#P newex 254 144 64 196617 cycle~ 0.21;#P newex 134 182 27 196617 +~;#P newex 151 161 41 196617 *~ 0.8;#P newex 151 142 58 196617 cycle~ 0.2;#P newex 236 207 103 196617 jit.poke~ painter 2 2;#P newex 134 207 103 196617 jit.poke~ painter 2 1;#P newex 31 35 77 196617 train~ 100 0.5;#P newex 31 207 103 196617 jit.poke~ painter 2 3;#P connect 1 0 0 0;#P connect 10 0 0 1;#P lcolor 7;#P connect 11 0 0 2;#P lcolor 15;#P fasten 1 0 6 0 36 72 139 72;#P connect 6 0 2 0;#P connect 4 0 5 0;#P connect 5 0 6 1;#P fasten 10 0 2 1 82 203 185 203;#P lcolor 7;#P fasten 11 0 2 2 128 203 231 203;#P lcolor 15;#P fasten 10 0 3 0 82 203 241 203;#P lcolor 7;#P connect 9 0 3 0;#P fasten 1 0 9 0 36 72 242 72;#P connect 7 0 8 0;#P connect 8 0 9 1;#P fasten 10 0 3 1 82 203 287 203;#P lcolor 7;#P fasten 11 0 3 2 128 203 333 203;#P lcolor 15;#P pop;#P newobj 10 241 175 196617 p pokes;#P comment 20 227 15 196617 x;#P connect 12 0 20 0;#P connect 20 0 21 0;#P connect 21 0 6 0;#P connect 6 0 1 0;#P fasten 2 0 6 1 73 202 32 202;#P connect 4 0 2 0;#P connect 8 0 9 0;#P connect 9 0 2 1;#P connect 15 0 17 0;#P connect 17 0 18 0;#P connect 18 0 16 0;#P connect 16 0 9 1;#P connect 14 0 13 0;#P connect 13 0 19 0;#P connect 19 0 7 0;#P connect 7 0 1 1;#P fasten 3 0 7 1 235 203 197 203;#P connect 5 0 3 0;#P connect 10 0 11 0;#P connect 11 0 3 1;#P fasten 16 0 11 1 162 104 311 104;#P pop;#P newobj 32 55 65 196617 p writengine;#P message 98 211 48 196617 theta \$1;#P newex 98 180 53 196617 * 0.0003;#P newex 98 158 30 196617 - 50;#P newex 98 135 64 196617 random 100;#P message 264 182 67 196617 anchor_y \$1;#P message 181 182 67 196617 anchor_x \$1;#P newex 264 157 64 196617 random 480;#P newex 181 157 64 196617 random 640;#P newex 98 234 43 196617 jit.rota;#P inlet 7 20 15 0;#P outlet 98 302 47 0;#P newex 98 255 164 196617 jit.matrix painter 4 char 320 240;#P newex 7 73 90 196617 jit.matrix painter;#P connect 3 0 0 0;#P fasten 3 0 16 0 12 46 103 46;#P connect 16 0 15 0;#P connect 15 0 9 0;#P connect 9 0 10 0;#P connect 10 0 11 0;#P connect 11 0 12 0;#P fasten 7 0 4 0 186 207 103 207;#P fasten 8 0 4 0 269 211 103 211;#P fasten 12 0 4 0 103 233 103 233;#P fasten 0 0 4 0 12 231 103 231;#P connect 4 0 1 0;#P connect 1 0 14 0;#P connect 14 0 2 0;#P connect 15 1 5 0;#P connect 5 0 7 0;#P connect 15 2 6 0;#P connect 6 0 8 0;#P pop 1;#P newobj 19 105 41 196617 p video;#P comment 37 39 100 196617 TURN ON.;#P connect 2 0 3 0;#P connect 3 0 1 0;#P connect 1 0 4 0;#P fasten 2 0 5 0 24 65 90 65;#P pop;