max v2;#N vpatcher 94 44 631 648;#P window setfont "Sans Serif" 9.;#P newex 133 302 106 196617 bgcolor 180 190 200;#P comment 329 65 118 196617 andrewb@cycling74.com;#P button 199 56 15 0;#P newex 393 101 40 196617 * -0.1;#P flonum 393 82 54 9 0 0 0 3 0 0 0 221 221 221 222 222 222 0 0 0;#P message 393 123 50 196617 xfade \$1;#P newex 120 250 115 196617 jit.dimmap @invert 1 0;#P newex 5 302 125 196617 jit.glue @columns 2;#P newex 198 126 172 196617 jit.slide @slide_up 5 @slide_down 5;#N vpatcher 802 189 1086 496;#P window setfont "Sans Serif" 9.;#P window linecount 1;#P newex 155 195 31 196617 abs~;#P newex 155 175 45 196617 rand~ 2;#P window linecount 0;#P newex 53 184 31 196617 abs~;#P newex 143 123 31 196617 abs~;#P newex 97 124 31 196617 abs~;#P newex 53 164 45 196617 rand~ 2;#P newex 143 101 45 196617 rand~ 5;#P newex 97 101 45 196617 rand~ 5;#P newex 143 145 38 196617 *~ 21;#P newex 98 145 38 196617 *~ 21;#P newex 155 217 84 196617 jit.poke~ fix 2 1;#P newex 53 217 84 196617 jit.poke~ fix 2 0;#P connect 6 0 9 0;#P connect 9 0 0 0;#P connect 2 0 0 1;#P connect 4 0 7 0;#P connect 7 0 2 0;#P connect 3 0 0 2;#P connect 5 0 8 0;#P connect 8 0 3 0;#P connect 10 0 11 0;#P connect 11 0 1 0;#P fasten 2 0 1 1 103 207 197 207;#P fasten 3 0 1 2 148 207 234 207;#P pop;#P newobj 334 106 38 196617 p bot2;#N vpatcher 746 61 1125 331;#P window setfont "Sans Serif" 9.;#P window linecount 1;#P newex 250 184 31 196617 abs~;#P newex 155 186 31 196617 abs~;#P newex 53 189 31 196617 abs~;#P window linecount 0;#P newex 210 92 47 196617 *~ 0.15;#P newex 210 71 61 196617 cycle~ 520;#P newex 177 119 27 196617 +~;#P newex 105 71 47 196617 *~ 0.15;#P newex 105 50 61 196617 cycle~ 500;#P newex 73 106 27 196617 +~;#P newex 154 93 31 196617 abs~;#P newex 50 74 31 196617 abs~;#P newex 250 160 45 196617 rand~ 2;#P newex 155 163 45 196617 rand~ 9;#P newex 53 164 51 196617 rand~ 13;#P newex 154 71 45 196617 rand~ 4;#P newex 50 51 45 196617 rand~ 3;#P newex 143 145 44 196617 *~ 256;#P newex 98 145 44 196617 *~ 256;#P newex 250 217 94 196617 jit.poke~ brick 2 3;#P newex 155 217 94 196617 jit.poke~ brick 2 2;#P newex 53 217 100 196617 jit.poke~ brick 2 1;#P connect 5 0 10 0;#P connect 7 0 18 0;#P connect 18 0 0 0;#P connect 10 0 12 0;#P connect 14 0 12 1;#P connect 12 0 3 0;#P connect 3 0 0 1;#P connect 13 0 14 0;#P connect 15 0 4 0;#P connect 4 0 0 2;#P connect 6 0 11 0;#P connect 8 0 19 0;#P connect 19 0 1 0;#P connect 11 0 15 0;#P connect 17 0 15 1;#P fasten 3 0 1 1 103 207 202 207;#P connect 16 0 17 0;#P fasten 4 0 1 2 148 207 244 207;#P connect 9 0 20 0;#P connect 20 0 2 0;#P fasten 3 0 2 1 103 207 297 207;#P fasten 4 0 2 2 148 207 339 207;#P pop;#P newobj 17 193 32 196617 p bot;#P user ezdac~ 14 45 58 78 0;#P newex 199 106 133 196617 jit.matrix fix 2 char 20 20;#P newex 198 194 185 196617 jit.xfade @xfade -0.02;#P message 199 78 33 196617 clear;#P flonum 66 64 35 9 0.5 0 1 3 0 0 0 221 221 221 222 222 222 0 0 0;#P toggle 5 23 15 0;#P newex 5 82 71 196617 metro 2;#P user jit.pwindow 4 322 514 258 0 1 0 0 1 0;#P newex 20 257 81 196617 jit.matrix brick;#P newex 5 219 203 196617 jit.repos @boundmode 2 @in2_type char;#P newex 198 146 176 196617 jit.matrix 2 char 256 256 @interp 1;#P newex 198 172 177 196617 jit.expr @expr "norm[0]" "norm[1]";#P newex 5 173 155 196617 jit.matrix brick 4 char 256 256;#P window setfont "Sans Serif" 24.;#P comment 249 30 198 196632 VideoSynth no.2;#P connect 8 0 7 0;#P fasten 10 0 1 0 204 103 10 103;#P connect 7 0 1 0;#P connect 1 0 4 0;#P connect 4 0 17 0;#P connect 17 0 6 0;#P fasten 8 0 13 0 10 43 19 43;#P fasten 4 0 5 0 10 243 25 243;#P connect 9 0 7 1;#P fasten 4 0 18 0 10 243 125 243;#P connect 18 0 17 1;#P connect 12 0 16 0;#P connect 16 0 3 0;#P connect 3 0 2 0;#P connect 2 0 11 0;#P fasten 19 0 11 0 398 191 203 191;#P connect 11 0 4 1;#P connect 22 0 10 0;#P connect 10 0 12 0;#P fasten 7 0 12 0 10 103 204 103;#P fasten 3 0 11 1 203 167 378 167;#P connect 20 0 21 0;#P connect 21 0 19 0;#P pop;