max v2;#N vpatcher 442 102 1185 485;#P window setfont "Sans Serif" 9.;#P hidden newex 5 314 106 196617 bgcolor 200 195 190;#P newex 576 142 60 196617 loadmess 3;#P number 576 165 35 9 0 0 0 3 0 0 0 221 221 221 222 222 222 0 0 0;#P window linecount 4;#P comment 144 119 135 196617 This patch demonstrates \, in fairly plain terms \, how to use the "stroke" commands to create curves in OpenGL.;#P window linecount 1;#P comment 86 64 127 196617 andrewb@cycling74.com;#N vpatcher 10 59 304 301;#P window setfont "Sans Serif" 9.;#P newex 16 34 41 196617 r pulse;#P newex 16 96 121 196617 jit.matrix 3 float32 100;#P newex 16 54 50 196617 qlim 500;#P newex 16 116 184 196617 jit.slide @slide_up 20 @slide_down 20;#P newex 16 137 142 196617 jit.map @map 0 1 -0.01 0.01;#P newex 16 76 113 196617 jit.noise 3 float32 100;#P inlet 59 35 15 0;#P outlet 16 159 15 0;#P connect 7 0 5 0;#P connect 5 0 2 0;#P connect 2 0 6 0;#P fasten 7 0 6 0 21 52 7 52 7 94 21 94;#P connect 6 0 4 0;#P connect 4 0 3 0;#P connect 3 0 0 0;#P connect 1 0 5 1;#P pop;#P newobj 494 72 48 196617 p motion;#P toggle 6 255 15 0;#P newex 6 234 35 196617 sel 27;#P newex 6 214 40 196617 key;#P newex 6 274 91 196617 prepend fullscreen;#P newex 310 45 41 196617 r pulse;#P message 517 236 117 196617 reset \, glcolor 1 1 1 0.9;#P newex 450 125 114 196617 jit.op @op * @val 0.98;#P message 354 46 33 196617 clear;#P newex 450 147 77 196617 jit.matrix feed;#P newex 310 91 194 196617 jit.op @op +;#P number 494 55 35 9 0 0 0 3 0 0 0 221 221 221 222 222 222 0 0 0;#P newex 310 70 143 196617 jit.matrix feed 3 float32 100;#P message 387 206 106 196617 strokepoint \$1 \$2 \$3;#P window linecount 2;#P message 495 206 228 196617 beginstroke line \, strokeparam order \$1 \, line_width 3 \, strokeparam color 0.8 0.8 0.6 0.5;#P window linecount 1;#P newex 310 121 80 196617 t b l b;#P newex 310 144 41 196617 jit.iter;#P newex 30 103 41 196617 s pulse;#P message 16 149 34 196617 reset;#P newex 5 294 190 196617 jit.window demo @fsmenubar 0 @fsaa 1;#P newex 16 172 264 196617 jit.gl.handle demo @inherit_transform 1 @auto_rotate 1;#P number 47 30 35 9 0 0 0 3 0 0 0 221 221 221 222 222 222 0 0 0;#P toggle 6 30 15 0;#P objectname render_tog;#P newex 6 194 302 196617 jit.gl.render demo @blend_enable 1 @erase_color 0.25 0.3 0.2 1;#P newex 312 309 324 196617 jit.gl.sketch demo @blend_enable 1 @scale 2. 2. 2. @lighting_enable 1;#P newex 6 54 51 196617 qmetro 1;#P newex 6 76 58 196617 t b b erase;#P window setfont "Sans Serif" 24.;#P comment 86 30 127 196632 Twine Ball;#P window setfont "Sans Serif" 9.;#P message 325 227 54 196617 endstroke;#P newex 325 202 38 196617 sel 99;#P comment 612 165 32 196617 order;#P connect 26 0 11 0;#P connect 8 0 5 0;#P connect 5 0 4 0;#P connect 10 0 7 0;#P connect 4 0 7 0;#P fasten 4 2 7 0 59 98 11 98;#P fasten 27 0 28 0 11 233 11 233;#P connect 28 0 29 0;#P connect 29 0 26 0;#P connect 12 0 10 0;#P connect 4 1 13 0;#P connect 9 0 5 1;#P fasten 22 0 18 0 359 65 315 65;#P connect 25 0 18 0;#P connect 18 0 20 0;#P connect 20 0 15 0;#P fasten 15 1 14 0 350 141 315 141;#P fasten 24 0 6 0 522 300 317 300;#P fasten 16 0 6 0 500 280 317 280;#P fasten 17 0 6 0 392 259 317 259;#P fasten 2 0 6 0 330 251 317 251;#P connect 14 1 1 0;#P connect 1 0 2 0;#P fasten 14 0 17 0 315 190 392 190;#P fasten 20 0 23 0 315 115 455 115;#P connect 23 0 21 0;#P connect 19 0 30 0;#P connect 30 0 20 1;#P fasten 33 0 16 0 581 200 500 200;#P fasten 15 2 16 0 385 181 500 181;#P fasten 15 2 24 0 385 172 522 172;#P connect 34 0 33 0;#P pop;