max v2;#N vpatcher 425 144 1377 566;#P window setfont "Sans Serif" 9.;#P hidden newex 64 43 106 196617 bgcolor 200 200 205;#P comment 776 372 150 196617 andrewb@cycling74.com;#P hidden newex 64 62 48 196617 loadbang;#P number 186 308 35 9 0 0 0 3 0 0 0 221 221 221 222 222 222 0 0 0;#P message 186 329 65 196617 order \$1 \$1;#P comment 205 86 100 196617 send ctlmatrix;#P button 187 84 15 0;#P button 64 84 15 0;#P newex 813 232 115 196617 jit.dimmap @invert 0 1;#P newex 813 254 70 196617 jit.gl.slab foo;#B color 5;#P flonum 830 159 35 9 0 0 0 3 0 0 0 221 221 221 222 222 222 0 0 0;#P message 830 179 42 196617 rate \$1;#P message 873 179 28 196617 read;#P newex 813 203 103 196617 jit.qt.movie 320 240;#B color 5;#P message 538 109 68 196617 setall 0 \, bang;#P message 301 110 126 196617 exprfill "snorm[1]" \, bang;#P message 64 113 123 196617 exprfill "snorm[0]" \, bang;#P newex 11 284 53 196617 jit.pack 3;#P newex 497 105 20 196617 t b;#P newex 497 130 118 196617 jit.matrix 1 float32 5 5;#P user jit.cellblock 497 162 723 249 3 9 5 5 45 17 0 1 1 0 0 0 0 0 5 0 0 0 255 255 255 0 0 0 0 0 0 191 191 191 0 0 0 215 215 240 1 1 1 2 4 0 0 0;#P newex 21 113 20 196617 t b;#P newex 21 134 118 196617 jit.matrix 1 float32 5 5;#P user jit.cellblock 21 166 247 253 3 9 5 5 45 17 0 1 1 0 0 0 0 0 5 0 0 0 255 255 255 0 0 0 0 0 0 191 191 191 0 0 0 215 215 240 1 1 1 2 4 0 0 0;#P newex 11 306 115 196617 jit.dimmap @invert 0 1;#P newex 104 329 80 196617 jit.gl.handle foo;#P newex 11 371 186 196617 jit.window foo @depthbuffer 1 @fsaa 1;#P toggle 727 111 43 0;#P newex 727 156 51 196617 qmetro 5;#P newex 727 177 58 196617 t erase b b;#P newex 727 232 82 196617 jit.gl.render foo;#P newex 11 329 91 196617 prepend ctlmatrix;#P newex 258 106 20 196617 t b;#P newex 258 131 118 196617 jit.matrix 1 float32 5 5;#P user jit.cellblock 258 163 484 250 3 9 5 5 45 17 0 1 1 0 0 0 0 0 5 0 0 0 255 255 255 0 0 0 0 0 0 191 191 191 0 0 0 215 215 240 1 1 1 2 4 0 0 0;#P newex 11 351 247 196617 jit.gl.nurbs foo @color 1. 1. 1. 1. @scale 1.333 1. 1.;#P comment 82 85 100 196617 reset plane;#P window setfont "Sans Serif" 24.;#P comment 776 338 150 196632 Manipulator;#P fasten 15 0 20 0 26 159 16 159;#P connect 20 0 13 0;#P connect 13 0 6 0;#P fasten 28 0 2 0 818 329 256 329 256 348 16 348;#P fasten 12 0 2 0 109 348 16 348;#P connect 6 0 2 0;#P fasten 33 0 2 0 191 349 16 349;#P fasten 5 0 16 0 263 127 196 127 196 106 26 106;#P fasten 14 0 16 0 26 273 13 273 13 106 26 106;#P connect 16 0 15 0;#P fasten 21 0 15 0 69 132 26 132;#P connect 15 0 14 0;#P fasten 4 0 20 1 263 156 254 156 254 275 37 275;#P fasten 18 0 20 2 502 155 494 155 494 275 58 275;#P hidden connect 35 0 30 0;#P connect 30 0 21 0;#P connect 34 0 33 0;#P fasten 19 0 5 0 502 124 457 124 457 103 263 103;#P fasten 3 0 5 0 263 270 250 270 250 103 263 103;#P connect 5 0 4 0;#P fasten 22 0 4 0 306 129 263 129;#P connect 4 0 3 0;#P fasten 30 0 22 0 69 103 306 103;#P fasten 31 0 19 0 192 103 502 103;#P fasten 17 0 19 0 502 269 489 269 489 103 502 103;#P connect 19 0 18 0;#P fasten 23 0 18 0 543 128 502 128;#P connect 18 0 17 0;#P fasten 30 0 23 0 69 103 543 103;#P connect 10 0 9 0;#P connect 9 0 8 0;#P connect 8 0 7 0;#P fasten 8 1 7 0 756 213 732 213;#P fasten 8 2 24 0 780 198 818 198;#P fasten 26 0 24 0 835 198 818 198;#P fasten 25 0 24 0 878 198 818 198;#P connect 24 0 29 0;#P connect 29 0 28 0;#P connect 27 0 26 0;#P pop;