max v2;#N vpatcher 662 44 1459 510;#P origin 0 27;#P window setfont "Sans Serif" 9.;#P comment 671 76 96 196617 thanks to JKC also!;#P hidden newex 184 352 55 196617 route bpm;#P button 132 352 15 0;#P comment 11 395 54 196617 Turn on-->;#P window linecount 2;#P comment 519 313 247 196617 This patch uses jit.buffer~ to write and store 64-step sequences of control data for a synthesis engine.;#P window linecount 1;#P comment 647 62 120 196617 andrewb@cycling74.com;#P window setfont "Sans Serif" 24.;#P comment 647 28 120 196632 Squelcher;#P user multiSlider 26 128 28 64 0. 16. 2 2665 47 0 0 2 0 0 1;#M frgb 0 0 0;#M brgb 255 255 255;#M rgb2 127 127 127;#M rgb3 0 0 0;#M rgb4 37 52 91;#M rgb5 74 105 182;#M rgb6 112 158 18;#M rgb7 149 211 110;#M rgb8 187 9 201;#M rgb9 224 62 37;#M rgb10 7 114 128;#P window setfont "Sans Serif" 9.;#P comment 149 338 32 196617 bpm;#P comment 49 294 30 196617 noise;#P comment 66 278 13 196617 Q;#P comment 43 263 36 196617 filter2;#P comment 43 247 36 196617 filter1;#P comment 48 231 31 196617 width;#P comment 54 216 25 196617 freq;#P toggle 65 394 15 0;#P newex 81 419 181 196617 dac~;#N vpatcher 855 539 1414 789;#P window setfont "Sans Serif" 9.;#P newex 37 190 380 196617 jit.pack 4;#P inlet 39 39 15 0;#P message 39 57 124 196617 xinterval \$1 \, colwidth \$2;#P newex 19 78 51 196617 jit.altern;#P newex 19 106 54 196617 jit.brcosa;#P newex 37 146 124 196617 jit.matrix 1 float32 64 5;#B color 5;#P newex 37 167 505 196617 jit.scissors @rows 4;#P newex 19 127 66 196617 jit.rgb2luma;#B color 5;#P newex 37 212 131 196617 jit.buffer~ shape2 1.452 4;#P inlet 165 37 15 0;#P inlet 19 52 15 0;#P outlet 19 166 15 0;#P message 165 57 132 196617 brightness \$1 \, contrast \$2;#P connect 2 0 9 0;#P fasten 10 0 9 0 44 75 24 75;#P connect 9 0 8 0;#P connect 0 0 8 0;#P connect 8 0 5 0;#P connect 5 0 1 0;#P connect 5 0 7 0;#P connect 7 0 6 0;#P connect 6 0 12 0;#P connect 12 0 4 0;#P connect 11 0 10 0;#P connect 6 1 12 1;#P connect 3 0 0 0;#P connect 6 2 12 2;#P connect 6 3 12 3;#P pop 1;#P newobj 163 106 52 196617 p buffer2;#P window linecount 2;#P comment 421 340 49 196617 filt2 freq range;#P comment 353 340 49 196617 filt1 freq range;#P comment 287 339 46 196617 osc freq range;#P flonum 217 366 53 9 0 0 0 3 0 0 0 221 221 221 222 222 222 0 0 0;#P flonum 421 366 50 9 0 0 0 3 0 0 0 221 221 221 222 222 222 0 0 0;#P window linecount 1;#N vpatcher 882 426 1609 992;#P window setfont "Sans Serif" 9.;#P newex 84 288 34 196617 saw~;#P newex 72 346 47 196617 bitsafe~;#P newex 388 341 47 196617 bitsafe~;#P inlet 139 47 15 0;#P newex 102 68 47 196617 rate~ 4.;#P newex 217 482 41 196617 *~ 0.5;#P newex 175 482 41 196617 *~ 0.5;#P newex 179 222 47 196617 *~ 0.05;#P newex 179 201 41 196617 *~ 0.9;#P newex 275 291 44 196617 *~ 100;#P newex 555 320 44 196617 *~ 100;#P newex 102 123 477 196617 matrix~ 5 6;#P newex 388 361 41 196617 *~ 0.2;#P newex 72 365 41 196617 *~ 0.2;#P newex 352 415 44 196617 tapout~;#P newex 352 386 65 196617 tapin~ 1000;#P newex 50 420 44 196617 tapout~;#P newex 50 388 65 196617 tapin~ 1000;#P newex 487 150 47 196617 *~ 0.15;#N vpatcher 40 104 640 504;#P outlet 101 245 15 0;#P inlet 196 94 15 0;#P inlet 82 100 15 0;#P window setfont "Sans Serif" 9.;#P newex 101 207 27 196617 +~;#P newex 147 157 47 196617 *~ 0.01;#P newex 140 115 34 196617 pink~;#P connect 3 0 2 0;#P connect 2 0 5 0;#P connect 1 0 2 1;#P connect 0 0 1 0;#P connect 4 0 1 1;#P pop;#P newobj 256 183 58 196617 p fluctuate;#N vpatcher 40 104 640 504;#P outlet 101 245 15 0;#P inlet 196 94 15 0;#P inlet 82 100 15 0;#P window setfont "Sans Serif" 9.;#P newex 101 207 27 196617 +~;#P newex 147 157 47 196617 *~ 0.01;#P newex 140 115 34 196617 pink~;#P connect 3 0 2 0;#P connect 2 0 5 0;#P connect 1 0 2 1;#P connect 0 0 1 0;#P connect 4 0 1 1;#P pop;#P newobj 102 182 58 196617 p fluctuate;#P newex 410 242 55 196617 slide~ 4 4;#P newex 50 324 218 196617 lores~;#P newex 212 265 40 196617 slide~;#P newex 212 292 50 196617 *~ 4000;#P newex 447 291 50 196617 *~ 4000;#P newex 352 320 201 196617 lores~;#P newex 50 225 55 196617 slide~ 4 5;#P newex 50 264 62 196617 *~ 500;#P newex 50 288 32 196617 rect~;#P newex 218 103 360 196617 wave~ shape2 0 1.452 4;#P newex 102 103 113 196617 wave~ shape1 0 1.452;#N vpatcher 40 104 640 504;#P outlet 101 245 15 0;#P inlet 196 94 15 0;#P inlet 82 100 15 0;#P window setfont "Sans Serif" 9.;#P newex 101 207 27 196617 +~;#P newex 147 157 47 196617 *~ 0.01;#P newex 140 115 34 196617 pink~;#P connect 3 0 2 0;#P connect 2 0 5 0;#P connect 1 0 2 1;#P connect 0 0 1 0;#P connect 4 0 1 1;#P pop;#P newobj 410 217 58 196617 p fluctuate;#P inlet 274 242 15 0;#P inlet 487 271 15 0;#P inlet 162 200 15 0;#P inlet 17 86 15 0;#P inlet 52 40 15 0;#P outlet 681 105 15 0;#P outlet 217 504 15 0;#P outlet 175 504 15 0;#P fasten 20 0 13 0 107 212 55 212;#P connect 13 0 12 0;#P connect 12 0 11 0;#P connect 11 0 18 0;#P connect 18 0 23 0;#P fasten 27 0 23 0 77 384 55 384;#P fasten 31 0 24 0 280 411 55 411;#P connect 23 0 24 0;#P fasten 33 0 11 1 184 284 66 284;#P connect 26 0 39 0;#P connect 39 0 27 0;#P fasten 12 0 40 0 55 284 89 284;#P fasten 3 0 36 0 57 64 107 64;#P fasten 36 0 9 0 107 94 107 94;#P connect 9 0 29 0;#P connect 4 0 29 0;#P connect 29 0 20 0;#P connect 5 0 12 1;#P fasten 33 0 40 1 184 284 113 284;#P connect 37 0 36 1;#P fasten 22 0 20 1 492 176 155 176;#P fasten 16 0 18 1 217 312 159 312;#P fasten 26 0 34 0 357 449 180 449;#P connect 18 0 34 0;#P connect 34 0 0 0;#P connect 29 1 32 0;#P connect 32 0 33 0;#P fasten 21 0 17 0 261 249 217 249;#P connect 17 0 16 0;#P fasten 24 0 35 0 55 449 222 449;#P connect 14 0 35 0;#P connect 35 0 1 0;#P fasten 36 0 10 0 107 94 223 94;#P connect 10 0 29 1;#P connect 7 0 16 1;#P connect 29 2 21 0;#P fasten 29 3 18 2 338 312 263 312;#P fasten 17 0 31 0 217 287 280 287;#P fasten 22 0 21 1 492 176 309 176;#P connect 10 1 29 2;#P fasten 40 0 14 0 89 312 357 312;#P connect 14 0 25 0;#P fasten 28 0 25 0 393 382 357 382;#P fasten 30 0 26 0 560 408 357 408;#P connect 25 0 26 0;#P connect 24 0 38 0;#P connect 38 0 28 0;#P connect 29 4 8 0;#P connect 8 0 19 0;#P fasten 19 0 15 0 415 279 452 279;#P connect 15 0 14 1;#P connect 10 2 29 3;#P fasten 22 0 8 1 492 176 463 176;#P connect 29 5 22 0;#P connect 6 0 15 1;#P fasten 29 3 14 2 338 312 547 312;#P fasten 19 0 30 0 415 265 560 265;#P connect 10 3 29 4;#P fasten 36 0 2 0 107 97 686 97;#P pop;#P newobj 81 394 352 196617 p synth;#P flonum 353 366 50 9 0 0 0 3 0 0 0 221 221 221 222 222 222 0 0 0;#N vpatcher 10 59 324 239;#P window setfont "Sans Serif" 9.;#P newex 50 97 122 196617 jit.buffer~ shape1 1.452;#P newex 50 74 153 196617 jit.matrix shap1 1 float32 64 1;#P newex 50 50 75 196617 jit.fill shap1 0;#P inlet 50 30 15 0;#P connect 0 0 1 0;#P connect 1 0 2 0;#P connect 2 0 3 0;#P pop;#P newobj 163 316 52 196617 p buffer1;#P message 257 49 33 196617 close;#P user multiSlider 163 194 604 10 0. 1. 1 2680 15 0 0 2 0 0 0;#M frgb 195 53 53;#M brgb 255 255 255;#M rgb2 127 127 127;#M rgb3 244 189 184;#M rgb4 37 52 91;#M rgb5 74 105 182;#M rgb6 112 158 18;#M rgb7 149 211 110;#M rgb8 187 9 201;#M rgb9 224 62 37;#M rgb10 7 114 128;#P hidden newex 93 195 70 196617 snapshot~ 20;#P user multiSlider 163 204 604 107 0. 1. 64 2681 47 0 0 2 4 0 0;#M frgb 157 44 41;#M brgb 221 215 176;#M rgb2 127 127 127;#M rgb3 181 181 181;#M rgb4 37 52 91;#M rgb5 74 105 182;#M rgb6 112 158 18;#M rgb7 149 211 110;#M rgb8 187 9 201;#M rgb9 224 62 37;#M rgb10 7 114 128;#P flonum 149 352 35 9 0 0 0 3 0 0 0 221 221 221 222 222 222 0 0 0;#P comment 113 130 46 196617 contrast;#P comment 57 131 53 196617 brightness;#P user multiSlider 55 128 106 64 0. 4. 2 2681 47 0 0 2 0 0 1;#M frgb 0 0 0;#M brgb 255 255 255;#M rgb2 127 127 127;#M rgb3 0 0 0;#M rgb4 37 52 91;#M rgb5 74 105 182;#M rgb6 112 158 18;#M rgb7 149 211 110;#M rgb8 187 9 201;#M rgb9 224 62 37;#M rgb10 7 114 128;#P user jit.pwindow 162 125 606 71 0 1 0 0 1 0;#P message 226 49 30 196617 open;#P flonum 186 31 35 9 0.5 0 1 3 0 0 0 221 221 221 222 222 222 0 0 0;#P toggle 163 29 15 0;#P newex 163 49 58 196617 metro 200;#P newex 163 86 80 196617 jit.qt.grab 64 4;#B color 5;#P user matrixctrl 81 213 82 98 MatrixDefaultCell.pct MatrixDefaultBkgnd.pct 82 98 16 16 5 6 16 16 1 1 48 2 5120 0;#P newex 149 370 40 196617 sync~;#P flonum 285 366 53 9 0 0 0 3 0 0 0 221 221 221 222 222 222 0 0 0;#P window linecount 2;#P comment 220 339 48 196617 beats per loop;#P window linecount 1;#P comment 244 86 186 196617 <---You can also try jit.qt.movie here.;#P connect 4 0 21 0;#P fasten 29 0 28 0 70 414 86 414;#P connect 21 0 28 0;#P hidden connect 21 2 16 0;#P hidden connect 43 0 14 0;#P connect 42 0 3 0;#P connect 14 0 3 0;#P connect 3 0 21 1;#P connect 7 0 6 0;#P fasten 18 0 5 0 262 80 168 80;#P fasten 6 0 5 0 168 79 168 79;#P fasten 9 0 5 0 231 76 168 76;#P connect 5 0 27 0;#P connect 27 0 10 0;#P hidden connect 16 0 17 0;#P connect 15 0 19 0;#P hidden connect 37 0 27 1;#P hidden connect 3 1 43 0;#P hidden connect 11 0 27 2;#P connect 8 0 6 1;#P connect 23 0 21 2;#P connect 21 1 28 1;#P connect 2 0 21 3;#P connect 20 0 21 4;#P connect 22 0 21 5;#P pop;