max v2;#N vpatcher 545 159 1158 702;#P origin 0 5;#P window setfont "Sans Serif" 9.;#P comment 396 471 151 196617 see also: jit.peek~ and jit.poke~;#P window linecount 9;#P comment 428 328 117 196617 It is certainly possible to create much more detailed maps \, but in order to interpolate values \, I'm upsampling the map. Note that any matrix process can be applied to the data map once it is created.;#P window linecount 10;#P comment 248 326 117 196617 This patch demonstrates the use of a matrix to store and recall data in a 2-dimensional lookup table. This is particularly useful for generating a map of parameters. Note that you are limited only by number of planes.;#P window linecount 1;#P comment 291 51 69 196617 values;#P comment 450 224 117 196617 interpolate output values;#P comment 97 52 40 196617 turn on;#P message 49 220 35 196617 write;#P message 18 220 30 196617 read;#P newex 245 151 124 196617 unpack 0. 0. 0. 0. 0. 0. 0.;#P user multiSlider 245 48 138 100 0. 1. 7 2937 15 0 0 2 0 0 0;#M frgb 95 204 44;#M brgb 217 237 210;#M rgb2 127 127 127;#M rgb3 0 0 0;#M rgb4 37 52 91;#M rgb5 74 105 182;#M rgb6 112 158 18;#M rgb7 149 211 110;#M rgb8 187 9 201;#M rgb9 224 62 37;#M rgb10 7 114 128;#P newex 131 470 51 196617 zl slice 4;#P user pictslider 138 324 100 100 4 4 4 4 SliderDefaultKnob.pct 1 SliderDefaultBkgnd.pct 1 3187 0 8323072 127 1. 1.;#P newex 48 426 190 196617 pak getcell 0 0;#P newex 48 449 93 196617 jit.matrix package;#P message 91 220 33 196617 clear;#P comment 155 34 69 196617 store location;#P toggle 434 222 15 0;#P message 434 240 52 196617 interp \$1;#P newex 141 254 118 196617 jit.matrix 7 float32 8 8;#P user jit.pwindow 140 326 96 96 0 1 0 0 1 0;#P toggle 82 49 15 0;#P newex 82 69 46 196617 metro 5;#P newex 141 302 115 196617 jit.dimmap @invert 0 1;#P button 384 87 61 0;#P window linecount 2;#P message 141 222 289 196617 setcell 1 3 val 0. 0.100273 0.10654 0.072071 0.065804 0.065804 0.;#P number 193 163 24 9 0 0 0 3 0 0 0 221 221 221 222 222 222 0 0 0;#P number 167 163 25 9 0 0 0 3 0 0 0 221 221 221 222 222 222 0 0 0;#P window linecount 1;#P newex 141 201 62 196617 prepend set;#P user pictslider 141 48 100 100 4 4 4 4 SliderDefaultKnob.pct 1 SliderDefaultBkgnd.pct 1 2163 0 458752 7 1. 1.;#P newex 141 276 180 196617 jit.matrix package 7 float32 128 128;#P newex 141 180 206 196617 pak setcell 0 0 val 0. 0. 0. 0. 0. 0. 0.;#P comment 384 73 61 196617 store values;#P comment 19 204 116 196617 read/store as jit binary;#P connect 20 0 19 0;#P connect 12 0 11 0;#P connect 19 1 22 0;#P connect 21 0 20 1;#P connect 2 0 5 0;#P connect 5 0 8 0;#P fasten 9 0 8 0 389 219 146 219;#P fasten 25 0 14 0 23 251 146 251;#P fasten 26 0 14 0 54 251 146 251;#P fasten 18 0 14 0 96 251 146 251;#P connect 8 0 14 0;#P fasten 11 0 14 0 87 251 146 251;#P connect 14 0 3 0;#P fasten 15 0 3 0 439 272 146 272;#P connect 3 0 10 0;#P connect 10 0 13 0;#P connect 6 0 2 1;#P fasten 4 0 6 0 146 155 172 155;#P connect 7 0 2 2;#P fasten 4 1 7 0 236 155 198 155;#P connect 24 0 2 4;#P connect 21 1 20 2;#P connect 24 1 2 5;#P fasten 22 1 23 0 177 490 568 490 568 43 250 43;#P connect 23 0 24 0;#P connect 24 2 2 6;#P connect 24 3 2 7;#P connect 24 4 2 8;#P connect 24 5 2 9;#P connect 24 6 2 10;#P connect 16 0 15 0;#P pop;