{
	"patcher" : 	{
		"fileversion" : 1,
		"rect" : [ 230.0, 155.0, 640.0, 506.0 ],
		"bglocked" : 0,
		"defrect" : [ 230.0, 155.0, 640.0, 506.0 ],
		"openrect" : [ 0.0, 0.0, 0.0, 0.0 ],
		"openinpresentation" : 0,
		"default_fontsize" : 9.0,
		"default_fontface" : 0,
		"default_fontname" : "Arial",
		"gridonopen" : 0,
		"gridsize" : [ 15.0, 15.0 ],
		"gridsnaponopen" : 0,
		"toolbarvisible" : 0,
		"boxanimatetime" : 200,
		"imprint" : 0,
		"metadata" : [  ],
		"boxes" : [ 			{
				"box" : 				{
					"maxclass" : "newobj",
					"text" : "t l l",
					"numoutlets" : 2,
					"fontsize" : 9.0,
					"patching_rect" : [ 268.0, 129.0, 94.5, 17.0 ],
					"outlettype" : [ "", "" ],
					"id" : "obj-2",
					"fontname" : "Arial",
					"numinlets" : 1
				}

			}
, 			{
				"box" : 				{
					"maxclass" : "outlet",
					"numoutlets" : 0,
					"patching_rect" : [ 137.0, 319.0, 25.0, 25.0 ],
					"id" : "obj-7",
					"numinlets" : 1,
					"comment" : "(list) new box coordinates"
				}

			}
, 			{
				"box" : 				{
					"maxclass" : "inlet",
					"numoutlets" : 1,
					"patching_rect" : [ 268.0, 71.0, 25.0, 25.0 ],
					"outlettype" : [ "" ],
					"id" : "obj-6",
					"numinlets" : 0,
					"comment" : "(list) starting position"
				}

			}
, 			{
				"box" : 				{
					"maxclass" : "inlet",
					"numoutlets" : 1,
					"patching_rect" : [ 137.0, 71.0, 25.0, 25.0 ],
					"outlettype" : [ "" ],
					"id" : "obj-5",
					"numinlets" : 0,
					"comment" : "(matrix) source image"
				}

			}
, 			{
				"box" : 				{
					"maxclass" : "newobj",
					"text" : "t l l",
					"numoutlets" : 2,
					"fontsize" : 9.0,
					"patching_rect" : [ 137.0, 117.0, 32.5, 17.0 ],
					"outlettype" : [ "", "" ],
					"id" : "obj-3",
					"fontname" : "Arial",
					"numinlets" : 1
				}

			}
, 			{
				"box" : 				{
					"maxclass" : "newobj",
					"text" : "p calc_new_box_position",
					"numoutlets" : 1,
					"fontsize" : 9.0,
					"patching_rect" : [ 137.0, 290.0, 226.0, 17.0 ],
					"outlettype" : [ "" ],
					"id" : "obj-4",
					"fontname" : "Arial",
					"numinlets" : 3,
					"patcher" : 					{
						"fileversion" : 1,
						"rect" : [ 433.0, 236.0, 600.0, 426.0 ],
						"bglocked" : 0,
						"defrect" : [ 433.0, 236.0, 600.0, 426.0 ],
						"openrect" : [ 0.0, 0.0, 0.0, 0.0 ],
						"openinpresentation" : 0,
						"default_fontsize" : 9.0,
						"default_fontface" : 0,
						"default_fontname" : "Arial",
						"gridonopen" : 0,
						"gridsize" : [ 15.0, 15.0 ],
						"gridsnaponopen" : 0,
						"toolbarvisible" : 0,
						"boxanimatetime" : 200,
						"imprint" : 0,
						"metadata" : [  ],
						"boxes" : [ 							{
								"box" : 								{
									"maxclass" : "message",
									"text" : "$1 $2",
									"numoutlets" : 1,
									"fontsize" : 9.0,
									"patching_rect" : [ 257.0, 217.0, 33.0, 15.0 ],
									"outlettype" : [ "" ],
									"id" : "obj-7",
									"fontname" : "Arial",
									"numinlets" : 2,
									"presentation_rect" : [ 466.0, 215.0, 0.0, 0.0 ]
								}

							}
, 							{
								"box" : 								{
									"maxclass" : "message",
									"text" : "$3 $4",
									"numoutlets" : 1,
									"fontsize" : 9.0,
									"patching_rect" : [ 140.0, 217.0, 33.0, 15.0 ],
									"outlettype" : [ "" ],
									"id" : "obj-6",
									"fontname" : "Arial",
									"numinlets" : 2
								}

							}
, 							{
								"box" : 								{
									"maxclass" : "newobj",
									"text" : "p center_and_dim",
									"numoutlets" : 1,
									"fontsize" : 9.0,
									"patching_rect" : [ 332.0, 92.0, 83.0, 17.0 ],
									"outlettype" : [ "" ],
									"id" : "obj-32",
									"fontname" : "Arial",
									"numinlets" : 1,
									"patcher" : 									{
										"fileversion" : 1,
										"rect" : [ 0.0, 0.0, 640.0, 480.0 ],
										"bglocked" : 0,
										"defrect" : [ 0.0, 0.0, 640.0, 480.0 ],
										"openrect" : [ 0.0, 0.0, 0.0, 0.0 ],
										"openinpresentation" : 0,
										"default_fontsize" : 9.0,
										"default_fontface" : 0,
										"default_fontname" : "Arial",
										"gridonopen" : 0,
										"gridsize" : [ 15.0, 15.0 ],
										"gridsnaponopen" : 0,
										"toolbarvisible" : 0,
										"boxanimatetime" : 200,
										"imprint" : 0,
										"metadata" : [  ],
										"boxes" : [ 											{
												"box" : 												{
													"maxclass" : "newobj",
													"text" : "pack 0 0 0 0",
													"numoutlets" : 1,
													"fontsize" : 9.0,
													"patching_rect" : [ 111.0, 207.0, 60.0, 17.0 ],
													"outlettype" : [ "" ],
													"id" : "obj-28",
													"fontname" : "Arial",
													"numinlets" : 4
												}

											}
, 											{
												"box" : 												{
													"maxclass" : "newobj",
													"text" : "* 0.5",
													"numoutlets" : 1,
													"fontsize" : 9.0,
													"patching_rect" : [ 87.0, 166.0, 32.5, 17.0 ],
													"outlettype" : [ "float" ],
													"id" : "obj-27",
													"fontname" : "Arial",
													"numinlets" : 2
												}

											}
, 											{
												"box" : 												{
													"maxclass" : "newobj",
													"text" : "* 0.5",
													"numoutlets" : 1,
													"fontsize" : 9.0,
													"patching_rect" : [ 50.0, 166.0, 32.5, 17.0 ],
													"outlettype" : [ "float" ],
													"id" : "obj-26",
													"fontname" : "Arial",
													"numinlets" : 2
												}

											}
, 											{
												"box" : 												{
													"maxclass" : "newobj",
													"text" : "+",
													"numoutlets" : 1,
													"fontsize" : 9.0,
													"patching_rect" : [ 87.0, 143.0, 32.5, 17.0 ],
													"outlettype" : [ "int" ],
													"id" : "obj-25",
													"fontname" : "Arial",
													"numinlets" : 2
												}

											}
, 											{
												"box" : 												{
													"maxclass" : "newobj",
													"text" : "+",
													"numoutlets" : 1,
													"fontsize" : 9.0,
													"patching_rect" : [ 50.0, 143.0, 32.5, 17.0 ],
													"outlettype" : [ "int" ],
													"id" : "obj-24",
													"fontname" : "Arial",
													"numinlets" : 2
												}

											}
, 											{
												"box" : 												{
													"maxclass" : "newobj",
													"text" : "!-",
													"numoutlets" : 1,
													"fontsize" : 9.0,
													"patching_rect" : [ 166.0, 143.0, 32.5, 17.0 ],
													"outlettype" : [ "int" ],
													"id" : "obj-23",
													"fontname" : "Arial",
													"numinlets" : 2
												}

											}
, 											{
												"box" : 												{
													"maxclass" : "newobj",
													"text" : "!-",
													"numoutlets" : 1,
													"fontsize" : 9.0,
													"patching_rect" : [ 131.0, 143.0, 32.5, 17.0 ],
													"outlettype" : [ "int" ],
													"id" : "obj-22",
													"fontname" : "Arial",
													"numinlets" : 2
												}

											}
, 											{
												"box" : 												{
													"maxclass" : "newobj",
													"text" : "unpack 0 0 0 0",
													"numoutlets" : 4,
													"fontsize" : 9.0,
													"patching_rect" : [ 72.0, 100.0, 70.0, 17.0 ],
													"outlettype" : [ "int", "int", "int", "int" ],
													"id" : "obj-21",
													"fontname" : "Arial",
													"numinlets" : 1
												}

											}
, 											{
												"box" : 												{
													"maxclass" : "inlet",
													"numoutlets" : 1,
													"patching_rect" : [ 77.0, 40.0, 25.0, 25.0 ],
													"outlettype" : [ "" ],
													"id" : "obj-30",
													"numinlets" : 0,
													"comment" : ""
												}

											}
, 											{
												"box" : 												{
													"maxclass" : "outlet",
													"numoutlets" : 0,
													"patching_rect" : [ 116.0, 284.0, 25.0, 25.0 ],
													"id" : "obj-31",
													"numinlets" : 1,
													"comment" : ""
												}

											}
 ],
										"lines" : [ 											{
												"patchline" : 												{
													"source" : [ "obj-21", 0 ],
													"destination" : [ "obj-22", 0 ],
													"hidden" : 0,
													"midpoints" : [  ]
												}

											}
, 											{
												"patchline" : 												{
													"source" : [ "obj-21", 2 ],
													"destination" : [ "obj-22", 1 ],
													"hidden" : 0,
													"midpoints" : [  ]
												}

											}
, 											{
												"patchline" : 												{
													"source" : [ "obj-21", 1 ],
													"destination" : [ "obj-23", 0 ],
													"hidden" : 0,
													"midpoints" : [  ]
												}

											}
, 											{
												"patchline" : 												{
													"source" : [ "obj-21", 3 ],
													"destination" : [ "obj-23", 1 ],
													"hidden" : 0,
													"midpoints" : [  ]
												}

											}
, 											{
												"patchline" : 												{
													"source" : [ "obj-21", 0 ],
													"destination" : [ "obj-24", 0 ],
													"hidden" : 0,
													"midpoints" : [  ]
												}

											}
, 											{
												"patchline" : 												{
													"source" : [ "obj-21", 2 ],
													"destination" : [ "obj-24", 1 ],
													"hidden" : 0,
													"midpoints" : [  ]
												}

											}
, 											{
												"patchline" : 												{
													"source" : [ "obj-21", 1 ],
													"destination" : [ "obj-25", 0 ],
													"hidden" : 0,
													"midpoints" : [  ]
												}

											}
, 											{
												"patchline" : 												{
													"source" : [ "obj-21", 3 ],
													"destination" : [ "obj-25", 1 ],
													"hidden" : 0,
													"midpoints" : [  ]
												}

											}
, 											{
												"patchline" : 												{
													"source" : [ "obj-24", 0 ],
													"destination" : [ "obj-26", 0 ],
													"hidden" : 0,
													"midpoints" : [  ]
												}

											}
, 											{
												"patchline" : 												{
													"source" : [ "obj-25", 0 ],
													"destination" : [ "obj-27", 0 ],
													"hidden" : 0,
													"midpoints" : [  ]
												}

											}
, 											{
												"patchline" : 												{
													"source" : [ "obj-26", 0 ],
													"destination" : [ "obj-28", 0 ],
													"hidden" : 0,
													"midpoints" : [  ]
												}

											}
, 											{
												"patchline" : 												{
													"source" : [ "obj-27", 0 ],
													"destination" : [ "obj-28", 1 ],
													"hidden" : 0,
													"midpoints" : [  ]
												}

											}
, 											{
												"patchline" : 												{
													"source" : [ "obj-22", 0 ],
													"destination" : [ "obj-28", 2 ],
													"hidden" : 0,
													"midpoints" : [  ]
												}

											}
, 											{
												"patchline" : 												{
													"source" : [ "obj-23", 0 ],
													"destination" : [ "obj-28", 3 ],
													"hidden" : 0,
													"midpoints" : [  ]
												}

											}
, 											{
												"patchline" : 												{
													"source" : [ "obj-30", 0 ],
													"destination" : [ "obj-21", 0 ],
													"hidden" : 0,
													"midpoints" : [  ]
												}

											}
, 											{
												"patchline" : 												{
													"source" : [ "obj-28", 0 ],
													"destination" : [ "obj-31", 0 ],
													"hidden" : 0,
													"midpoints" : [  ]
												}

											}
 ]
									}
,
									"saved_object_attributes" : 									{
										"fontface" : 0,
										"fontsize" : 9.0,
										"default_fontface" : 0,
										"default_fontname" : "Arial",
										"globalpatchername" : "",
										"fontname" : "Arial",
										"default_fontsize" : 9.0
									}

								}

							}
, 							{
								"box" : 								{
									"maxclass" : "newobj",
									"text" : "t l l",
									"numoutlets" : 2,
									"fontsize" : 9.0,
									"patching_rect" : [ 332.0, 148.0, 32.5, 17.0 ],
									"outlettype" : [ "", "" ],
									"id" : "obj-29",
									"fontname" : "Arial",
									"numinlets" : 1
								}

							}
, 							{
								"box" : 								{
									"maxclass" : "newobj",
									"text" : "t b b l",
									"numoutlets" : 3,
									"fontsize" : 9.0,
									"patching_rect" : [ 305.0, 56.0, 46.0, 17.0 ],
									"outlettype" : [ "bang", "bang", "" ],
									"id" : "obj-17",
									"fontname" : "Arial",
									"numinlets" : 1
								}

							}
, 							{
								"box" : 								{
									"maxclass" : "inlet",
									"numoutlets" : 1,
									"patching_rect" : [ 305.0, 29.0, 15.0, 15.0 ],
									"outlettype" : [ "" ],
									"id" : "obj-15",
									"numinlets" : 0,
									"comment" : ""
								}

							}
, 							{
								"box" : 								{
									"maxclass" : "newobj",
									"text" : "zl join",
									"numoutlets" : 2,
									"fontsize" : 9.0,
									"patching_rect" : [ 50.0, 322.0, 108.0, 17.0 ],
									"outlettype" : [ "", "" ],
									"id" : "obj-1",
									"fontname" : "Arial",
									"numinlets" : 2
								}

							}
, 							{
								"box" : 								{
									"maxclass" : "newobj",
									"text" : "vexpr $f1+$f2",
									"numoutlets" : 1,
									"fontsize" : 9.0,
									"patching_rect" : [ 139.0, 301.0, 78.0, 17.0 ],
									"outlettype" : [ "" ],
									"id" : "obj-2",
									"fontname" : "Arial",
									"numinlets" : 2
								}

							}
, 							{
								"box" : 								{
									"maxclass" : "newobj",
									"text" : "vexpr $f2-$f1",
									"numoutlets" : 1,
									"fontsize" : 9.0,
									"patching_rect" : [ 50.0, 301.0, 77.0, 17.0 ],
									"outlettype" : [ "" ],
									"id" : "obj-3",
									"fontname" : "Arial",
									"numinlets" : 2
								}

							}
, 							{
								"box" : 								{
									"maxclass" : "newobj",
									"text" : "vexpr $f1+$f2",
									"numoutlets" : 1,
									"fontsize" : 9.0,
									"patching_rect" : [ 198.0, 239.0, 78.0, 17.0 ],
									"outlettype" : [ "" ],
									"id" : "obj-4",
									"fontname" : "Arial",
									"numinlets" : 2
								}

							}
, 							{
								"box" : 								{
									"maxclass" : "newobj",
									"text" : "vexpr ($f1*$f2)*0.5",
									"numoutlets" : 1,
									"fontsize" : 9.0,
									"patching_rect" : [ 50.0, 239.0, 109.0, 17.0 ],
									"outlettype" : [ "" ],
									"id" : "obj-8",
									"fontname" : "Arial",
									"numinlets" : 2
								}

							}
, 							{
								"box" : 								{
									"maxclass" : "newobj",
									"text" : "vexpr $f1-$f2",
									"numoutlets" : 1,
									"fontsize" : 9.0,
									"patching_rect" : [ 152.0, 146.0, 77.0, 17.0 ],
									"outlettype" : [ "" ],
									"id" : "obj-12",
									"fontname" : "Arial",
									"numinlets" : 2
								}

							}
, 							{
								"box" : 								{
									"maxclass" : "newobj",
									"text" : "vexpr $f1/$f2",
									"numoutlets" : 1,
									"fontsize" : 9.0,
									"patching_rect" : [ 50.0, 146.0, 78.0, 17.0 ],
									"outlettype" : [ "" ],
									"id" : "obj-13",
									"fontname" : "Arial",
									"numinlets" : 2
								}

							}
, 							{
								"box" : 								{
									"maxclass" : "newobj",
									"text" : "p one_anything",
									"numoutlets" : 1,
									"fontsize" : 9.0,
									"patching_rect" : [ 210.0, 120.0, 77.0, 17.0 ],
									"outlettype" : [ "" ],
									"id" : "obj-14",
									"fontname" : "Arial",
									"numinlets" : 2,
									"patcher" : 									{
										"fileversion" : 1,
										"rect" : [ 10.0, 59.0, 600.0, 426.0 ],
										"bglocked" : 0,
										"defrect" : [ 10.0, 59.0, 600.0, 426.0 ],
										"openrect" : [ 0.0, 0.0, 0.0, 0.0 ],
										"openinpresentation" : 0,
										"default_fontsize" : 9.0,
										"default_fontface" : 0,
										"default_fontname" : "Arial",
										"gridonopen" : 0,
										"gridsize" : [ 15.0, 15.0 ],
										"gridsnaponopen" : 0,
										"toolbarvisible" : 0,
										"boxanimatetime" : 200,
										"imprint" : 0,
										"metadata" : [  ],
										"boxes" : [ 											{
												"box" : 												{
													"maxclass" : "newobj",
													"text" : "zl reg",
													"numoutlets" : 2,
													"fontsize" : 9.0,
													"patching_rect" : [ 107.0, 131.0, 36.0, 17.0 ],
													"outlettype" : [ "", "" ],
													"id" : "obj-1",
													"fontname" : "Arial",
													"numinlets" : 2
												}

											}
, 											{
												"box" : 												{
													"maxclass" : "newobj",
													"text" : "t b l",
													"numoutlets" : 2,
													"fontsize" : 9.0,
													"patching_rect" : [ 107.0, 50.0, 27.0, 17.0 ],
													"outlettype" : [ "bang", "" ],
													"id" : "obj-2",
													"fontname" : "Arial",
													"numinlets" : 1
												}

											}
, 											{
												"box" : 												{
													"maxclass" : "newobj",
													"text" : "onebang",
													"numoutlets" : 2,
													"fontsize" : 9.0,
													"patching_rect" : [ 107.0, 101.0, 45.0, 17.0 ],
													"outlettype" : [ "bang", "bang" ],
													"id" : "obj-3",
													"fontname" : "Arial",
													"numinlets" : 2
												}

											}
, 											{
												"box" : 												{
													"maxclass" : "inlet",
													"numoutlets" : 1,
													"patching_rect" : [ 107.0, 30.0, 15.0, 15.0 ],
													"outlettype" : [ "" ],
													"id" : "obj-4",
													"numinlets" : 0,
													"comment" : ""
												}

											}
, 											{
												"box" : 												{
													"maxclass" : "inlet",
													"numoutlets" : 1,
													"patching_rect" : [ 142.0, 36.0, 15.0, 15.0 ],
													"outlettype" : [ "bang" ],
													"id" : "obj-5",
													"numinlets" : 0,
													"comment" : ""
												}

											}
, 											{
												"box" : 												{
													"maxclass" : "outlet",
													"numoutlets" : 0,
													"patching_rect" : [ 107.0, 171.0, 15.0, 15.0 ],
													"id" : "obj-6",
													"numinlets" : 1,
													"comment" : ""
												}

											}
 ],
										"lines" : [ 											{
												"patchline" : 												{
													"source" : [ "obj-5", 0 ],
													"destination" : [ "obj-3", 1 ],
													"hidden" : 0,
													"midpoints" : [  ]
												}

											}
, 											{
												"patchline" : 												{
													"source" : [ "obj-2", 1 ],
													"destination" : [ "obj-1", 1 ],
													"hidden" : 0,
													"midpoints" : [ 124.5, 71.0, 210.0, 71.0, 210.0, 123.0, 133.5, 123.0 ]
												}

											}
, 											{
												"patchline" : 												{
													"source" : [ "obj-1", 0 ],
													"destination" : [ "obj-6", 0 ],
													"hidden" : 0,
													"midpoints" : [  ]
												}

											}
, 											{
												"patchline" : 												{
													"source" : [ "obj-3", 0 ],
													"destination" : [ "obj-1", 0 ],
													"hidden" : 0,
													"midpoints" : [  ]
												}

											}
, 											{
												"patchline" : 												{
													"source" : [ "obj-2", 0 ],
													"destination" : [ "obj-3", 0 ],
													"hidden" : 0,
													"midpoints" : [  ]
												}

											}
, 											{
												"patchline" : 												{
													"source" : [ "obj-4", 0 ],
													"destination" : [ "obj-2", 0 ],
													"hidden" : 0,
													"midpoints" : [  ]
												}

											}
 ]
									}
,
									"saved_object_attributes" : 									{
										"fontface" : 0,
										"fontsize" : 9.0,
										"default_fontface" : 0,
										"default_fontname" : "Arial",
										"globalpatchername" : "",
										"fontname" : "Arial",
										"default_fontsize" : 9.0
									}

								}

							}
, 							{
								"box" : 								{
									"maxclass" : "newobj",
									"text" : "p one_anything",
									"numoutlets" : 1,
									"fontsize" : 9.0,
									"patching_rect" : [ 109.0, 120.0, 77.0, 17.0 ],
									"outlettype" : [ "" ],
									"id" : "obj-16",
									"fontname" : "Arial",
									"numinlets" : 2,
									"patcher" : 									{
										"fileversion" : 1,
										"rect" : [ 10.0, 59.0, 600.0, 426.0 ],
										"bglocked" : 0,
										"defrect" : [ 10.0, 59.0, 600.0, 426.0 ],
										"openrect" : [ 0.0, 0.0, 0.0, 0.0 ],
										"openinpresentation" : 0,
										"default_fontsize" : 9.0,
										"default_fontface" : 0,
										"default_fontname" : "Arial",
										"gridonopen" : 0,
										"gridsize" : [ 15.0, 15.0 ],
										"gridsnaponopen" : 0,
										"toolbarvisible" : 0,
										"boxanimatetime" : 200,
										"imprint" : 0,
										"metadata" : [  ],
										"boxes" : [ 											{
												"box" : 												{
													"maxclass" : "newobj",
													"text" : "zl reg",
													"numoutlets" : 2,
													"fontsize" : 9.0,
													"patching_rect" : [ 107.0, 131.0, 36.0, 17.0 ],
													"outlettype" : [ "", "" ],
													"id" : "obj-1",
													"fontname" : "Arial",
													"numinlets" : 2
												}

											}
, 											{
												"box" : 												{
													"maxclass" : "newobj",
													"text" : "t b l",
													"numoutlets" : 2,
													"fontsize" : 9.0,
													"patching_rect" : [ 107.0, 50.0, 27.0, 17.0 ],
													"outlettype" : [ "bang", "" ],
													"id" : "obj-2",
													"fontname" : "Arial",
													"numinlets" : 1
												}

											}
, 											{
												"box" : 												{
													"maxclass" : "newobj",
													"text" : "onebang",
													"numoutlets" : 2,
													"fontsize" : 9.0,
													"patching_rect" : [ 107.0, 101.0, 45.0, 17.0 ],
													"outlettype" : [ "bang", "bang" ],
													"id" : "obj-3",
													"fontname" : "Arial",
													"numinlets" : 2
												}

											}
, 											{
												"box" : 												{
													"maxclass" : "inlet",
													"numoutlets" : 1,
													"patching_rect" : [ 107.0, 30.0, 15.0, 15.0 ],
													"outlettype" : [ "" ],
													"id" : "obj-4",
													"numinlets" : 0,
													"comment" : ""
												}

											}
, 											{
												"box" : 												{
													"maxclass" : "inlet",
													"numoutlets" : 1,
													"patching_rect" : [ 142.0, 36.0, 15.0, 15.0 ],
													"outlettype" : [ "bang" ],
													"id" : "obj-5",
													"numinlets" : 0,
													"comment" : ""
												}

											}
, 											{
												"box" : 												{
													"maxclass" : "outlet",
													"numoutlets" : 0,
													"patching_rect" : [ 107.0, 171.0, 15.0, 15.0 ],
													"id" : "obj-6",
													"numinlets" : 1,
													"comment" : ""
												}

											}
 ],
										"lines" : [ 											{
												"patchline" : 												{
													"source" : [ "obj-5", 0 ],
													"destination" : [ "obj-3", 1 ],
													"hidden" : 0,
													"midpoints" : [  ]
												}

											}
, 											{
												"patchline" : 												{
													"source" : [ "obj-2", 1 ],
													"destination" : [ "obj-1", 1 ],
													"hidden" : 0,
													"midpoints" : [ 124.5, 71.0, 210.0, 71.0, 210.0, 123.0, 133.5, 123.0 ]
												}

											}
, 											{
												"patchline" : 												{
													"source" : [ "obj-1", 0 ],
													"destination" : [ "obj-6", 0 ],
													"hidden" : 0,
													"midpoints" : [  ]
												}

											}
, 											{
												"patchline" : 												{
													"source" : [ "obj-3", 0 ],
													"destination" : [ "obj-1", 0 ],
													"hidden" : 0,
													"midpoints" : [  ]
												}

											}
, 											{
												"patchline" : 												{
													"source" : [ "obj-2", 0 ],
													"destination" : [ "obj-3", 0 ],
													"hidden" : 0,
													"midpoints" : [  ]
												}

											}
, 											{
												"patchline" : 												{
													"source" : [ "obj-4", 0 ],
													"destination" : [ "obj-2", 0 ],
													"hidden" : 0,
													"midpoints" : [  ]
												}

											}
 ]
									}
,
									"saved_object_attributes" : 									{
										"fontface" : 0,
										"fontsize" : 9.0,
										"default_fontface" : 0,
										"default_fontname" : "Arial",
										"globalpatchername" : "",
										"fontname" : "Arial",
										"default_fontsize" : 9.0
									}

								}

							}
, 							{
								"box" : 								{
									"maxclass" : "inlet",
									"numoutlets" : 1,
									"patching_rect" : [ 50.0, 29.0, 15.0, 15.0 ],
									"outlettype" : [ "" ],
									"id" : "obj-18",
									"numinlets" : 0,
									"comment" : ""
								}

							}
, 							{
								"box" : 								{
									"maxclass" : "inlet",
									"numoutlets" : 1,
									"patching_rect" : [ 199.0, 29.0, 15.0, 15.0 ],
									"outlettype" : [ "" ],
									"id" : "obj-19",
									"numinlets" : 0,
									"comment" : ""
								}

							}
, 							{
								"box" : 								{
									"maxclass" : "outlet",
									"numoutlets" : 0,
									"patching_rect" : [ 50.0, 344.0, 15.0, 15.0 ],
									"id" : "obj-20",
									"numinlets" : 1,
									"comment" : ""
								}

							}
 ],
						"lines" : [ 							{
								"patchline" : 								{
									"source" : [ "obj-29", 1 ],
									"destination" : [ "obj-7", 0 ],
									"hidden" : 0,
									"midpoints" : [ 355.0, 194.0, 266.5, 194.0 ]
								}

							}
, 							{
								"patchline" : 								{
									"source" : [ "obj-29", 0 ],
									"destination" : [ "obj-6", 0 ],
									"hidden" : 0,
									"midpoints" : [ 341.5, 188.0, 149.5, 188.0 ]
								}

							}
, 							{
								"patchline" : 								{
									"source" : [ "obj-7", 0 ],
									"destination" : [ "obj-4", 1 ],
									"hidden" : 0,
									"midpoints" : [  ]
								}

							}
, 							{
								"patchline" : 								{
									"source" : [ "obj-6", 0 ],
									"destination" : [ "obj-8", 1 ],
									"hidden" : 0,
									"midpoints" : [  ]
								}

							}
, 							{
								"patchline" : 								{
									"source" : [ "obj-17", 2 ],
									"destination" : [ "obj-32", 0 ],
									"hidden" : 0,
									"midpoints" : [  ]
								}

							}
, 							{
								"patchline" : 								{
									"source" : [ "obj-32", 0 ],
									"destination" : [ "obj-29", 0 ],
									"hidden" : 0,
									"midpoints" : [  ]
								}

							}
, 							{
								"patchline" : 								{
									"source" : [ "obj-12", 0 ],
									"destination" : [ "obj-4", 0 ],
									"hidden" : 0,
									"midpoints" : [  ]
								}

							}
, 							{
								"patchline" : 								{
									"source" : [ "obj-13", 0 ],
									"destination" : [ "obj-8", 0 ],
									"hidden" : 0,
									"midpoints" : [  ]
								}

							}
, 							{
								"patchline" : 								{
									"source" : [ "obj-17", 1 ],
									"destination" : [ "obj-14", 1 ],
									"hidden" : 0,
									"midpoints" : [ 328.0, 91.0, 277.5, 91.0 ]
								}

							}
, 							{
								"patchline" : 								{
									"source" : [ "obj-17", 0 ],
									"destination" : [ "obj-16", 1 ],
									"hidden" : 0,
									"midpoints" : [ 314.5, 85.0, 176.5, 85.0 ]
								}

							}
, 							{
								"patchline" : 								{
									"source" : [ "obj-15", 0 ],
									"destination" : [ "obj-17", 0 ],
									"hidden" : 0,
									"midpoints" : [  ]
								}

							}
, 							{
								"patchline" : 								{
									"source" : [ "obj-14", 0 ],
									"destination" : [ "obj-12", 1 ],
									"hidden" : 0,
									"midpoints" : [  ]
								}

							}
, 							{
								"patchline" : 								{
									"source" : [ "obj-19", 0 ],
									"destination" : [ "obj-14", 0 ],
									"hidden" : 0,
									"midpoints" : [ 208.0, 59.0, 219.5, 59.0 ]
								}

							}
, 							{
								"patchline" : 								{
									"source" : [ "obj-4", 0 ],
									"destination" : [ "obj-2", 1 ],
									"hidden" : 0,
									"midpoints" : [  ]
								}

							}
, 							{
								"patchline" : 								{
									"source" : [ "obj-19", 0 ],
									"destination" : [ "obj-12", 0 ],
									"hidden" : 0,
									"midpoints" : [ 208.0, 139.0, 161.5, 139.0 ]
								}

							}
, 							{
								"patchline" : 								{
									"source" : [ "obj-2", 0 ],
									"destination" : [ "obj-1", 1 ],
									"hidden" : 0,
									"midpoints" : [  ]
								}

							}
, 							{
								"patchline" : 								{
									"source" : [ "obj-8", 0 ],
									"destination" : [ "obj-2", 0 ],
									"hidden" : 0,
									"midpoints" : [ 59.5, 292.0, 148.5, 292.0 ]
								}

							}
, 							{
								"patchline" : 								{
									"source" : [ "obj-16", 0 ],
									"destination" : [ "obj-13", 1 ],
									"hidden" : 0,
									"midpoints" : [  ]
								}

							}
, 							{
								"patchline" : 								{
									"source" : [ "obj-18", 0 ],
									"destination" : [ "obj-16", 0 ],
									"hidden" : 0,
									"midpoints" : [ 59.0, 56.0, 118.5, 56.0 ]
								}

							}
, 							{
								"patchline" : 								{
									"source" : [ "obj-4", 0 ],
									"destination" : [ "obj-3", 1 ],
									"hidden" : 0,
									"midpoints" : [ 207.5, 279.0, 117.5, 279.0 ]
								}

							}
, 							{
								"patchline" : 								{
									"source" : [ "obj-1", 0 ],
									"destination" : [ "obj-20", 0 ],
									"hidden" : 0,
									"midpoints" : [  ]
								}

							}
, 							{
								"patchline" : 								{
									"source" : [ "obj-3", 0 ],
									"destination" : [ "obj-1", 0 ],
									"hidden" : 0,
									"midpoints" : [  ]
								}

							}
, 							{
								"patchline" : 								{
									"source" : [ "obj-8", 0 ],
									"destination" : [ "obj-3", 0 ],
									"hidden" : 0,
									"midpoints" : [  ]
								}

							}
, 							{
								"patchline" : 								{
									"source" : [ "obj-18", 0 ],
									"destination" : [ "obj-13", 0 ],
									"hidden" : 0,
									"midpoints" : [  ]
								}

							}
 ]
					}
,
					"saved_object_attributes" : 					{
						"fontface" : 0,
						"fontsize" : 9.0,
						"default_fontface" : 0,
						"default_fontname" : "Arial",
						"globalpatchername" : "",
						"fontname" : "Arial",
						"default_fontsize" : 9.0
					}

				}

			}
, 			{
				"box" : 				{
					"maxclass" : "newobj",
					"text" : "p calc_new_box_shape",
					"numoutlets" : 2,
					"fontsize" : 9.0,
					"patching_rect" : [ 137.0, 268.0, 123.0, 17.0 ],
					"outlettype" : [ "", "" ],
					"id" : "obj-11",
					"fontname" : "Arial",
					"numinlets" : 1,
					"patcher" : 					{
						"fileversion" : 1,
						"rect" : [ 60.0, 82.0, 600.0, 426.0 ],
						"bglocked" : 0,
						"defrect" : [ 60.0, 82.0, 600.0, 426.0 ],
						"openrect" : [ 0.0, 0.0, 0.0, 0.0 ],
						"openinpresentation" : 0,
						"default_fontsize" : 9.0,
						"default_fontface" : 0,
						"default_fontname" : "Arial",
						"gridonopen" : 0,
						"gridsize" : [ 15.0, 15.0 ],
						"gridsnaponopen" : 0,
						"toolbarvisible" : 0,
						"boxanimatetime" : 200,
						"imprint" : 0,
						"metadata" : [  ],
						"boxes" : [ 							{
								"box" : 								{
									"maxclass" : "newobj",
									"text" : "pack 0. 0.",
									"numoutlets" : 1,
									"fontsize" : 9.0,
									"patching_rect" : [ 186.0, 207.0, 54.0, 17.0 ],
									"outlettype" : [ "" ],
									"id" : "obj-1",
									"fontname" : "Arial",
									"numinlets" : 2
								}

							}
, 							{
								"box" : 								{
									"maxclass" : "newobj",
									"text" : "pack 0. 0.",
									"numoutlets" : 1,
									"fontsize" : 9.0,
									"patching_rect" : [ 64.0, 207.0, 54.0, 17.0 ],
									"outlettype" : [ "" ],
									"id" : "obj-2",
									"fontname" : "Arial",
									"numinlets" : 2
								}

							}
, 							{
								"box" : 								{
									"maxclass" : "newobj",
									"text" : "unpack 0. 0. 0.",
									"numoutlets" : 3,
									"fontsize" : 9.0,
									"patching_rect" : [ 186.0, 153.0, 98.0, 17.0 ],
									"outlettype" : [ "float", "float", "float" ],
									"id" : "obj-3",
									"fontname" : "Arial",
									"numinlets" : 1
								}

							}
, 							{
								"box" : 								{
									"maxclass" : "outlet",
									"numoutlets" : 0,
									"patching_rect" : [ 186.0, 239.0, 15.0, 15.0 ],
									"id" : "obj-4",
									"numinlets" : 1,
									"comment" : ""
								}

							}
, 							{
								"box" : 								{
									"maxclass" : "newobj",
									"text" : "sqrt",
									"numoutlets" : 1,
									"fontsize" : 9.0,
									"patching_rect" : [ 97.0, 180.0, 29.0, 17.0 ],
									"outlettype" : [ "float" ],
									"id" : "obj-5",
									"fontname" : "Arial",
									"numinlets" : 1
								}

							}
, 							{
								"box" : 								{
									"maxclass" : "newobj",
									"text" : "sqrt",
									"numoutlets" : 1,
									"fontsize" : 9.0,
									"patching_rect" : [ 64.0, 180.0, 29.0, 17.0 ],
									"outlettype" : [ "float" ],
									"id" : "obj-6",
									"fontname" : "Arial",
									"numinlets" : 1
								}

							}
, 							{
								"box" : 								{
									"maxclass" : "newobj",
									"text" : "unpack 0. 0. 0.",
									"numoutlets" : 3,
									"fontsize" : 9.0,
									"patching_rect" : [ 64.0, 159.0, 76.0, 17.0 ],
									"outlettype" : [ "float", "float", "float" ],
									"id" : "obj-7",
									"fontname" : "Arial",
									"numinlets" : 1
								}

							}
, 							{
								"box" : 								{
									"maxclass" : "newobj",
									"text" : "jit.3m",
									"numoutlets" : 4,
									"fontsize" : 9.0,
									"patching_rect" : [ 50.0, 138.0, 53.0, 17.0 ],
									"outlettype" : [ "", "", "", "" ],
									"id" : "obj-8",
									"fontname" : "Arial",
									"numinlets" : 1
								}

							}
, 							{
								"box" : 								{
									"maxclass" : "newobj",
									"text" : "jit.op @op pow @val 2",
									"numoutlets" : 2,
									"fontsize" : 9.0,
									"patching_rect" : [ 50.0, 117.0, 110.0, 17.0 ],
									"outlettype" : [ "jit_matrix", "" ],
									"id" : "obj-9",
									"fontname" : "Arial",
									"numinlets" : 2
								}

							}
, 							{
								"box" : 								{
									"maxclass" : "newobj",
									"text" : "jit.op @op -",
									"numoutlets" : 2,
									"fontsize" : 9.0,
									"patching_rect" : [ 50.0, 96.0, 63.0, 17.0 ],
									"outlettype" : [ "jit_matrix", "" ],
									"id" : "obj-10",
									"fontname" : "Arial",
									"numinlets" : 2
								}

							}
, 							{
								"box" : 								{
									"maxclass" : "newobj",
									"text" : "jit.3m",
									"numoutlets" : 4,
									"fontsize" : 9.0,
									"patching_rect" : [ 67.0, 71.0, 53.0, 17.0 ],
									"outlettype" : [ "", "", "", "" ],
									"id" : "obj-11",
									"fontname" : "Arial",
									"numinlets" : 1
								}

							}
, 							{
								"box" : 								{
									"maxclass" : "newobj",
									"text" : "t l l",
									"numoutlets" : 2,
									"fontsize" : 9.0,
									"patching_rect" : [ 50.0, 50.0, 27.0, 17.0 ],
									"outlettype" : [ "", "" ],
									"id" : "obj-12",
									"fontname" : "Arial",
									"numinlets" : 1
								}

							}
, 							{
								"box" : 								{
									"maxclass" : "inlet",
									"numoutlets" : 1,
									"patching_rect" : [ 50.0, 30.0, 15.0, 15.0 ],
									"outlettype" : [ "jit_matrix" ],
									"id" : "obj-13",
									"numinlets" : 0,
									"comment" : ""
								}

							}
, 							{
								"box" : 								{
									"maxclass" : "outlet",
									"numoutlets" : 0,
									"patching_rect" : [ 64.0, 239.0, 15.0, 15.0 ],
									"id" : "obj-14",
									"numinlets" : 1,
									"comment" : ""
								}

							}
 ],
						"lines" : [ 							{
								"patchline" : 								{
									"source" : [ "obj-3", 1 ],
									"destination" : [ "obj-1", 1 ],
									"hidden" : 0,
									"midpoints" : [  ]
								}

							}
, 							{
								"patchline" : 								{
									"source" : [ "obj-1", 0 ],
									"destination" : [ "obj-4", 0 ],
									"hidden" : 0,
									"midpoints" : [  ]
								}

							}
, 							{
								"patchline" : 								{
									"source" : [ "obj-3", 0 ],
									"destination" : [ "obj-1", 0 ],
									"hidden" : 0,
									"midpoints" : [  ]
								}

							}
, 							{
								"patchline" : 								{
									"source" : [ "obj-11", 1 ],
									"destination" : [ "obj-3", 0 ],
									"hidden" : 0,
									"midpoints" : [ 87.833336, 92.0, 195.5, 92.0 ]
								}

							}
, 							{
								"patchline" : 								{
									"source" : [ "obj-5", 0 ],
									"destination" : [ "obj-2", 1 ],
									"hidden" : 0,
									"midpoints" : [ 106.5, 201.0, 108.5, 201.0 ]
								}

							}
, 							{
								"patchline" : 								{
									"source" : [ "obj-11", 1 ],
									"destination" : [ "obj-10", 1 ],
									"hidden" : 0,
									"midpoints" : [ 87.833336, 92.0, 103.5, 92.0 ]
								}

							}
, 							{
								"patchline" : 								{
									"source" : [ "obj-7", 1 ],
									"destination" : [ "obj-5", 0 ],
									"hidden" : 0,
									"midpoints" : [  ]
								}

							}
, 							{
								"patchline" : 								{
									"source" : [ "obj-12", 1 ],
									"destination" : [ "obj-11", 0 ],
									"hidden" : 0,
									"midpoints" : [  ]
								}

							}
, 							{
								"patchline" : 								{
									"source" : [ "obj-2", 0 ],
									"destination" : [ "obj-14", 0 ],
									"hidden" : 0,
									"midpoints" : [  ]
								}

							}
, 							{
								"patchline" : 								{
									"source" : [ "obj-6", 0 ],
									"destination" : [ "obj-2", 0 ],
									"hidden" : 0,
									"midpoints" : [  ]
								}

							}
, 							{
								"patchline" : 								{
									"source" : [ "obj-7", 0 ],
									"destination" : [ "obj-6", 0 ],
									"hidden" : 0,
									"midpoints" : [  ]
								}

							}
, 							{
								"patchline" : 								{
									"source" : [ "obj-8", 1 ],
									"destination" : [ "obj-7", 0 ],
									"hidden" : 0,
									"midpoints" : [  ]
								}

							}
, 							{
								"patchline" : 								{
									"source" : [ "obj-9", 0 ],
									"destination" : [ "obj-8", 0 ],
									"hidden" : 0,
									"midpoints" : [  ]
								}

							}
, 							{
								"patchline" : 								{
									"source" : [ "obj-10", 0 ],
									"destination" : [ "obj-9", 0 ],
									"hidden" : 0,
									"midpoints" : [  ]
								}

							}
, 							{
								"patchline" : 								{
									"source" : [ "obj-12", 0 ],
									"destination" : [ "obj-10", 0 ],
									"hidden" : 0,
									"midpoints" : [  ]
								}

							}
, 							{
								"patchline" : 								{
									"source" : [ "obj-13", 0 ],
									"destination" : [ "obj-12", 0 ],
									"hidden" : 0,
									"midpoints" : [  ]
								}

							}
 ]
					}
,
					"saved_object_attributes" : 					{
						"fontface" : 0,
						"fontsize" : 9.0,
						"default_fontface" : 0,
						"default_fontname" : "Arial",
						"globalpatchername" : "",
						"fontname" : "Arial",
						"default_fontsize" : 9.0
					}

				}

			}
, 			{
				"box" : 				{
					"maxclass" : "newobj",
					"text" : "cv.jit.features2track",
					"numoutlets" : 1,
					"fontsize" : 9.0,
					"patching_rect" : [ 181.0, 183.0, 106.0, 17.0 ],
					"outlettype" : [ "" ],
					"id" : "obj-17",
					"fontname" : "Arial",
					"numinlets" : 2
				}

			}
, 			{
				"box" : 				{
					"maxclass" : "newobj",
					"text" : "cv.jit.track",
					"numoutlets" : 2,
					"fontsize" : 9.0,
					"patching_rect" : [ 137.0, 241.0, 62.0, 17.0 ],
					"outlettype" : [ "jit_matrix", "" ],
					"id" : "obj-21",
					"fontname" : "Arial",
					"numinlets" : 1
				}

			}
 ],
		"lines" : [ 			{
				"patchline" : 				{
					"source" : [ "obj-3", 0 ],
					"destination" : [ "obj-21", 0 ],
					"hidden" : 0,
					"midpoints" : [  ]
				}

			}
, 			{
				"patchline" : 				{
					"source" : [ "obj-5", 0 ],
					"destination" : [ "obj-3", 0 ],
					"hidden" : 0,
					"midpoints" : [  ]
				}

			}
, 			{
				"patchline" : 				{
					"source" : [ "obj-3", 1 ],
					"destination" : [ "obj-17", 0 ],
					"hidden" : 0,
					"midpoints" : [ 160.0, 168.0, 190.5, 168.0 ]
				}

			}
, 			{
				"patchline" : 				{
					"source" : [ "obj-17", 0 ],
					"destination" : [ "obj-21", 0 ],
					"hidden" : 0,
					"midpoints" : [ 190.5, 207.0, 146.5, 207.0 ]
				}

			}
, 			{
				"patchline" : 				{
					"source" : [ "obj-11", 1 ],
					"destination" : [ "obj-4", 1 ],
					"hidden" : 0,
					"midpoints" : [  ]
				}

			}
, 			{
				"patchline" : 				{
					"source" : [ "obj-11", 0 ],
					"destination" : [ "obj-4", 0 ],
					"hidden" : 0,
					"midpoints" : [  ]
				}

			}
, 			{
				"patchline" : 				{
					"source" : [ "obj-21", 0 ],
					"destination" : [ "obj-11", 0 ],
					"hidden" : 0,
					"midpoints" : [  ]
				}

			}
, 			{
				"patchline" : 				{
					"source" : [ "obj-4", 0 ],
					"destination" : [ "obj-7", 0 ],
					"hidden" : 0,
					"midpoints" : [  ]
				}

			}
, 			{
				"patchline" : 				{
					"source" : [ "obj-6", 0 ],
					"destination" : [ "obj-2", 0 ],
					"hidden" : 0,
					"midpoints" : [  ]
				}

			}
, 			{
				"patchline" : 				{
					"source" : [ "obj-2", 0 ],
					"destination" : [ "obj-17", 1 ],
					"hidden" : 0,
					"midpoints" : [  ]
				}

			}
, 			{
				"patchline" : 				{
					"source" : [ "obj-2", 1 ],
					"destination" : [ "obj-4", 2 ],
					"hidden" : 0,
					"midpoints" : [  ]
				}

			}
 ]
	}

}
