{
	"patcher" : 	{
		"fileversion" : 1,
		"appversion" : 		{
			"major" : 7,
			"minor" : 0,
			"revision" : 1,
			"architecture" : "x86",
			"modernui" : 1
		}
,
		"rect" : [ 547.0, 44.0, 495.0, 469.0 ],
		"bglocked" : 0,
		"openinpresentation" : 0,
		"default_fontsize" : 12.0,
		"default_fontface" : 0,
		"default_fontname" : "Arial",
		"gridonopen" : 1,
		"gridsize" : [ 15.0, 15.0 ],
		"gridsnaponopen" : 1,
		"objectsnaponopen" : 1,
		"statusbarvisible" : 2,
		"toolbarvisible" : 0,
		"lefttoolbarpinned" : 0,
		"toptoolbarpinned" : 0,
		"righttoolbarpinned" : 0,
		"bottomtoolbarpinned" : 0,
		"toolbars_unpinned_last_save" : 0,
		"tallnewobj" : 0,
		"boxanimatetime" : 200,
		"enablehscroll" : 1,
		"enablevscroll" : 1,
		"devicewidth" : 0.0,
		"description" : "",
		"digest" : "",
		"tags" : "",
		"style" : "simple",
		"subpatcher_template" : "simple",
		"boxes" : [ 			{
				"box" : 				{
					"args" : [ "sensorBox (andrew benson)", "get and compress the arduino input (12 digtial / 6 analog)" ],
					"bgmode" : 1,
					"border" : 0,
					"clickthrough" : 1,
					"enablehscroll" : 0,
					"enablevscroll" : 0,
					"id" : "obj-9",
					"lockeddragscroll" : 0,
					"maxclass" : "bpatcher",
					"name" : "Max4VA-Title.maxpat",
					"numinlets" : 0,
					"numoutlets" : 0,
					"offset" : [ 0.0, -278.0 ],
					"patching_rect" : [ 1.0, -2.0, 419.0, 55.0 ],
					"presentation" : 1,
					"presentation_rect" : [ -22.0, -3.0, 487.519531, 73.0 ],
					"viewvisibility" : 1
				}

			}
, 			{
				"box" : 				{
					"bgcolor" : [ 0.311041, 0.314599, 0.318357, 1.0 ],
					"bgoncolor" : [ 0.0, 0.0, 0.0, 1.0 ],
					"fontsize" : 14.0,
					"id" : "obj-14",
					"legacytextcolor" : 1,
					"maxclass" : "textbutton",
					"numinlets" : 1,
					"numoutlets" : 3,
					"outlettype" : [ "", "", "int" ],
					"parameter_enable" : 0,
					"patching_rect" : [ 358.0, 442.5, 132.0, 20.0 ],
					"presentation" : 1,
					"presentation_rect" : [ 349.0, 365.5, 79.0, 17.0 ],
					"style" : "",
					"text" : "SensorBoxAB Mux",
					"textcolor" : [ 1.0, 1.0, 1.0, 1.0 ],
					"texton" : "Stop",
					"textoncolor" : [ 1.0, 1.0, 1.0, 1.0 ],
					"textovercolor" : [ 0.960784, 0.827451, 0.156863, 1.0 ],
					"usebgoncolor" : 1,
					"usetextovercolor" : 1
				}

			}
, 			{
				"box" : 				{
					"bgfillcolor_angle" : 270.0,
					"bgfillcolor_autogradient" : 0.79,
					"bgfillcolor_color" : [ 0.290196, 0.309804, 0.301961, 1.0 ],
					"bgfillcolor_color1" : [ 0.867, 0.867, 0.867, 1.0 ],
					"bgfillcolor_color2" : [ 0.867, 0.867, 0.867, 1.0 ],
					"bgfillcolor_proportion" : 0.39,
					"bgfillcolor_type" : "gradient",
					"fontface" : 0,
					"fontname" : "Arial",
					"fontsize" : 12.0,
					"hidden" : 1,
					"id" : "obj-18",
					"maxclass" : "message",
					"numinlets" : 2,
					"numoutlets" : 1,
					"outlettype" : [ "" ],
					"patching_rect" : [ 359.0, 445.0, 132.0, 22.0 ],
					"style" : "",
					"text" : "load sensorBoxMuxAB",
					"textcolor" : [ 0.0, 0.0, 0.0, 1.0 ]
				}

			}
, 			{
				"box" : 				{
					"bgcolor" : [ 1.0, 1.0, 1.0, 1.0 ],
					"color" : [ 0.8, 0.84, 0.71, 1.0 ],
					"fontface" : 0,
					"fontname" : "Arial",
					"fontsize" : 12.0,
					"hidden" : 1,
					"id" : "obj-21",
					"maxclass" : "newobj",
					"numinlets" : 1,
					"numoutlets" : 1,
					"outlettype" : [ "" ],
					"patching_rect" : [ 359.0, 443.0, 53.0, 22.0 ],
					"style" : "",
					"text" : "pcontrol",
					"textcolor" : [ 0.0, 0.0, 0.0, 1.0 ]
				}

			}
, 			{
				"box" : 				{
					"bgcolor" : [ 0.311041, 0.314599, 0.318357, 1.0 ],
					"bgoncolor" : [ 0.0, 0.0, 0.0, 1.0 ],
					"fontsize" : 14.0,
					"id" : "obj-35",
					"legacytextcolor" : 1,
					"maxclass" : "textbutton",
					"numinlets" : 1,
					"numoutlets" : 3,
					"outlettype" : [ "", "", "int" ],
					"parameter_enable" : 0,
					"patching_rect" : [ 359.0, 417.5, 132.0, 20.0 ],
					"presentation" : 1,
					"presentation_rect" : [ 482.0, 396.0, 79.0, 17.0 ],
					"style" : "",
					"text" : "open SensorBoxAB",
					"textcolor" : [ 1.0, 1.0, 1.0, 1.0 ],
					"texton" : "Stop",
					"textoncolor" : [ 1.0, 1.0, 1.0, 1.0 ],
					"textovercolor" : [ 0.960784, 0.827451, 0.156863, 1.0 ],
					"usebgoncolor" : 1,
					"usetextovercolor" : 1
				}

			}
, 			{
				"box" : 				{
					"bgfillcolor_angle" : 270.0,
					"bgfillcolor_autogradient" : 0.79,
					"bgfillcolor_color" : [ 0.290196, 0.309804, 0.301961, 1.0 ],
					"bgfillcolor_color1" : [ 0.867, 0.867, 0.867, 1.0 ],
					"bgfillcolor_color2" : [ 0.867, 0.867, 0.867, 1.0 ],
					"bgfillcolor_proportion" : 0.39,
					"bgfillcolor_type" : "gradient",
					"fontface" : 0,
					"fontname" : "Arial",
					"fontsize" : 12.0,
					"hidden" : 1,
					"id" : "obj-36",
					"maxclass" : "message",
					"numinlets" : 2,
					"numoutlets" : 1,
					"outlettype" : [ "" ],
					"patching_rect" : [ 357.0, 417.0, 105.0, 22.0 ],
					"style" : "",
					"text" : "SensorBoxAB.ino",
					"textcolor" : [ 0.0, 0.0, 0.0, 1.0 ]
				}

			}
, 			{
				"box" : 				{
					"bgcolor" : [ 1.0, 1.0, 1.0, 1.0 ],
					"color" : [ 0.8, 0.84, 0.71, 1.0 ],
					"fontface" : 0,
					"fontname" : "Arial",
					"fontsize" : 12.0,
					"hidden" : 1,
					"id" : "obj-33",
					"maxclass" : "newobj",
					"numinlets" : 1,
					"numoutlets" : 0,
					"patching_rect" : [ 358.0, 419.0, 82.0, 22.0 ],
					"style" : "",
					"text" : "imi.docloader",
					"textcolor" : [ 0.0, 0.0, 0.0, 1.0 ]
				}

			}
, 			{
				"box" : 				{
					"fontsize" : 10.0,
					"id" : "obj-11",
					"maxclass" : "newobj",
					"numinlets" : 0,
					"numoutlets" : 0,
					"patcher" : 					{
						"fileversion" : 1,
						"appversion" : 						{
							"major" : 7,
							"minor" : 0,
							"revision" : 1,
							"architecture" : "x86",
							"modernui" : 1
						}
,
						"rect" : [ 492.0, 44.0, 473.0, 84.0 ],
						"bglocked" : 0,
						"openinpresentation" : 0,
						"default_fontsize" : 12.0,
						"default_fontface" : 0,
						"default_fontname" : "Arial",
						"gridonopen" : 1,
						"gridsize" : [ 15.0, 15.0 ],
						"gridsnaponopen" : 1,
						"objectsnaponopen" : 1,
						"statusbarvisible" : 2,
						"toolbarvisible" : 0,
						"lefttoolbarpinned" : 0,
						"toptoolbarpinned" : 0,
						"righttoolbarpinned" : 0,
						"bottomtoolbarpinned" : 0,
						"toolbars_unpinned_last_save" : 0,
						"tallnewobj" : 0,
						"boxanimatetime" : 200,
						"enablehscroll" : 1,
						"enablevscroll" : 1,
						"devicewidth" : 0.0,
						"description" : "",
						"digest" : "",
						"tags" : "",
						"style" : "",
						"subpatcher_template" : "",
						"boxes" : [ 							{
								"box" : 								{
									"fontname" : "Arial",
									"fontsize" : 12.0,
									"id" : "obj-9",
									"linecount" : 5,
									"maxclass" : "comment",
									"numinlets" : 1,
									"numoutlets" : 0,
									"patching_rect" : [ 1.0, 5.0, 460.0, 74.0 ],
									"style" : "",
									"text" : "This patch gets the pin readings from an Arduino running the SensorBoxAB firmware, which provides the bare minimum functionality to use an Arduino as an efficient sensor interface for Max.  If you require output to the Arduino, use Firmata instead or rewrite the code.  Note that internal pullup resistors are turned on for the digital pins in the firmware,  so all you need to do is wire switches to ground."
								}

							}
 ],
						"lines" : [  ]
					}
,
					"patching_rect" : [ 440.0, 33.0, 50.0, 20.0 ],
					"saved_object_attributes" : 					{
						"description" : "",
						"digest" : "",
						"globalpatchername" : "",
						"style" : "",
						"tags" : ""
					}
,
					"style" : "default",
					"text" : "p tutorial"
				}

			}
, 			{
				"box" : 				{
					"bubble" : 1,
					"fontface" : 0,
					"fontname" : "Arial",
					"fontsize" : 12.0,
					"id" : "obj-29",
					"maxclass" : "comment",
					"numinlets" : 1,
					"numoutlets" : 0,
					"patching_rect" : [ 148.899994, 225.0, 134.0, 24.0 ],
					"style" : "",
					"text" : "byte unpacking stuff"
				}

			}
, 			{
				"box" : 				{
					"bubble" : 1,
					"fontface" : 0,
					"fontname" : "Arial",
					"fontsize" : 12.0,
					"id" : "obj-19",
					"maxclass" : "comment",
					"numinlets" : 1,
					"numoutlets" : 0,
					"patching_rect" : [ 92.0, 120.0, 75.0, 24.0 ],
					"style" : "",
					"text" : "start/stop"
				}

			}
, 			{
				"box" : 				{
					"bgfillcolor_angle" : 270.0,
					"bgfillcolor_autogradient" : 0.79,
					"bgfillcolor_color" : [ 0.290196, 0.309804, 0.301961, 1.0 ],
					"bgfillcolor_color1" : [ 0.867, 0.867, 0.867, 1.0 ],
					"bgfillcolor_color2" : [ 0.867, 0.867, 0.867, 1.0 ],
					"bgfillcolor_proportion" : 0.39,
					"bgfillcolor_type" : "gradient",
					"fontface" : 0,
					"fontname" : "Arial",
					"fontsize" : 12.0,
					"id" : "obj-22",
					"maxclass" : "message",
					"numinlets" : 2,
					"numoutlets" : 1,
					"outlettype" : [ "" ],
					"patching_rect" : [ 195.0, 124.0, 41.0, 22.0 ],
					"style" : "",
					"text" : "close",
					"textcolor" : [ 0.0, 0.0, 0.0, 1.0 ]
				}

			}
, 			{
				"box" : 				{
					"bgfillcolor_angle" : 270.0,
					"bgfillcolor_autogradient" : 0.79,
					"bgfillcolor_color" : [ 0.290196, 0.309804, 0.301961, 1.0 ],
					"bgfillcolor_color1" : [ 0.867, 0.867, 0.867, 1.0 ],
					"bgfillcolor_color2" : [ 0.867, 0.867, 0.867, 1.0 ],
					"bgfillcolor_proportion" : 0.39,
					"bgfillcolor_type" : "gradient",
					"fontface" : 0,
					"fontname" : "Arial",
					"fontsize" : 14.0,
					"id" : "obj-8",
					"maxclass" : "message",
					"numinlets" : 2,
					"numoutlets" : 1,
					"outlettype" : [ "" ],
					"patching_rect" : [ 60.0, 123.0, 28.0, 24.0 ],
					"style" : "",
					"text" : "99",
					"textcolor" : [ 0.0, 0.0, 0.0, 1.0 ]
				}

			}
, 			{
				"box" : 				{
					"bubble" : 1,
					"fontface" : 0,
					"fontname" : "Arial",
					"fontsize" : 12.0,
					"id" : "obj-7",
					"maxclass" : "comment",
					"numinlets" : 1,
					"numoutlets" : 0,
					"patching_rect" : [ 366.0, 253.0, 83.0, 24.0 ],
					"style" : "",
					"text" : "digital pins"
				}

			}
, 			{
				"box" : 				{
					"bubble" : 1,
					"fontface" : 0,
					"fontname" : "Arial",
					"fontsize" : 12.0,
					"id" : "obj-4",
					"maxclass" : "comment",
					"numinlets" : 1,
					"numoutlets" : 0,
					"patching_rect" : [ 130.0, 308.0, 89.0, 24.0 ],
					"style" : "",
					"text" : "analog pins"
				}

			}
, 			{
				"box" : 				{
					"id" : "obj-55",
					"maxclass" : "newobj",
					"numinlets" : 1,
					"numoutlets" : 2,
					"outlettype" : [ "list", "" ],
					"patcher" : 					{
						"fileversion" : 1,
						"appversion" : 						{
							"major" : 7,
							"minor" : 0,
							"revision" : 1,
							"architecture" : "x86",
							"modernui" : 1
						}
,
						"rect" : [ 491.0, 44.0, 332.0, 466.0 ],
						"bglocked" : 0,
						"openinpresentation" : 0,
						"default_fontsize" : 12.0,
						"default_fontface" : 0,
						"default_fontname" : "Helvetica",
						"gridonopen" : 1,
						"gridsize" : [ 15.0, 15.0 ],
						"gridsnaponopen" : 1,
						"objectsnaponopen" : 1,
						"statusbarvisible" : 2,
						"toolbarvisible" : 0,
						"lefttoolbarpinned" : 0,
						"toptoolbarpinned" : 0,
						"righttoolbarpinned" : 0,
						"bottomtoolbarpinned" : 0,
						"toolbars_unpinned_last_save" : 0,
						"tallnewobj" : 0,
						"boxanimatetime" : 200,
						"enablehscroll" : 1,
						"enablevscroll" : 1,
						"devicewidth" : 0.0,
						"description" : "",
						"digest" : "",
						"tags" : "",
						"style" : "",
						"subpatcher_template" : "",
						"boxes" : [ 							{
								"box" : 								{
									"fontname" : "Helvetica",
									"fontsize" : 12.0,
									"id" : "obj-9",
									"maxclass" : "comment",
									"numinlets" : 1,
									"numoutlets" : 0,
									"patching_rect" : [ 156.0, 410.0, 152.0, 18.0 ],
									"style" : "",
									"text" : "digital inputs output as list\n"
								}

							}
, 							{
								"box" : 								{
									"fontname" : "Arial",
									"fontsize" : 12.0,
									"id" : "obj-10",
									"maxclass" : "newobj",
									"numinlets" : 1,
									"numoutlets" : 1,
									"outlettype" : [ "" ],
									"patcher" : 									{
										"fileversion" : 1,
										"appversion" : 										{
											"major" : 7,
											"minor" : 0,
											"revision" : 1,
											"architecture" : "x86",
											"modernui" : 1
										}
,
										"rect" : [ 834.0, 288.0, 470.0, 225.0 ],
										"bglocked" : 0,
										"openinpresentation" : 0,
										"default_fontsize" : 12.0,
										"default_fontface" : 0,
										"default_fontname" : "Helvetica",
										"gridonopen" : 1,
										"gridsize" : [ 15.0, 15.0 ],
										"gridsnaponopen" : 1,
										"objectsnaponopen" : 1,
										"statusbarvisible" : 2,
										"toolbarvisible" : 0,
										"lefttoolbarpinned" : 0,
										"toptoolbarpinned" : 0,
										"righttoolbarpinned" : 0,
										"bottomtoolbarpinned" : 0,
										"toolbars_unpinned_last_save" : 0,
										"tallnewobj" : 0,
										"boxanimatetime" : 200,
										"enablehscroll" : 1,
										"enablevscroll" : 1,
										"devicewidth" : 0.0,
										"description" : "",
										"digest" : "",
										"tags" : "",
										"style" : "",
										"subpatcher_template" : "",
										"boxes" : [ 											{
												"box" : 												{
													"fontname" : "Helvetica",
													"fontsize" : 12.0,
													"id" : "obj-10",
													"linecount" : 2,
													"maxclass" : "comment",
													"numinlets" : 1,
													"numoutlets" : 0,
													"patching_rect" : [ 81.0, 18.0, 159.0, 30.0 ],
													"style" : "",
													"text" : "unpacks the digital input bytes to get individual pins"
												}

											}
, 											{
												"box" : 												{
													"id" : "obj-11",
													"maxclass" : "button",
													"numinlets" : 1,
													"numoutlets" : 1,
													"outlettype" : [ "bang" ],
													"patching_rect" : [ 40.0, 10.0, 20.0, 20.0 ],
													"style" : ""
												}

											}
, 											{
												"box" : 												{
													"fontname" : "Helvetica",
													"fontsize" : 12.0,
													"hidden" : 1,
													"id" : "obj-9",
													"maxclass" : "newobj",
													"numinlets" : 1,
													"numoutlets" : 11,
													"outlettype" : [ "int", "int", "int", "int", "int", "int", "int", "int", "int", "int", "int" ],
													"patching_rect" : [ 268.0, 23.0, 159.0, 18.0 ],
													"style" : "",
													"text" : "unpack 0 0 0 0 0 0 0 0 0 0 0"
												}

											}
, 											{
												"box" : 												{
													"fontname" : "Helvetica",
													"fontsize" : 12.0,
													"hidden" : 1,
													"id" : "obj-8",
													"maxclass" : "message",
													"numinlets" : 2,
													"numoutlets" : 1,
													"outlettype" : [ "" ],
													"patching_rect" : [ 268.0, 6.0, 197.0, 16.0 ],
													"style" : "",
													"text" : "1 2 4 8 16 32 64 128 256 512 1024"
												}

											}
, 											{
												"box" : 												{
													"fontname" : "Helvetica",
													"fontsize" : 12.0,
													"id" : "obj-4",
													"maxclass" : "newobj",
													"numinlets" : 2,
													"numoutlets" : 1,
													"outlettype" : [ "int" ],
													"patching_rect" : [ 378.0, 87.0, 35.0, 18.0 ],
													"style" : "",
													"text" : "== 0"
												}

											}
, 											{
												"box" : 												{
													"fontname" : "Helvetica",
													"fontsize" : 12.0,
													"id" : "obj-5",
													"maxclass" : "newobj",
													"numinlets" : 2,
													"numoutlets" : 1,
													"outlettype" : [ "int" ],
													"patching_rect" : [ 378.0, 65.0, 49.0, 18.0 ],
													"style" : "",
													"text" : "& 1024"
												}

											}
, 											{
												"box" : 												{
													"fontname" : "Helvetica",
													"fontsize" : 12.0,
													"id" : "obj-14",
													"maxclass" : "newobj",
													"numinlets" : 2,
													"numoutlets" : 1,
													"outlettype" : [ "int" ],
													"patching_rect" : [ 11.0, 88.0, 35.0, 18.0 ],
													"style" : "",
													"text" : "== 0"
												}

											}
, 											{
												"box" : 												{
													"comment" : "",
													"id" : "obj-42",
													"maxclass" : "outlet",
													"numinlets" : 1,
													"numoutlets" : 0,
													"patching_rect" : [ 11.0, 193.0, 25.0, 25.0 ],
													"style" : ""
												}

											}
, 											{
												"box" : 												{
													"fontname" : "Helvetica",
													"fontsize" : 12.0,
													"id" : "obj-41",
													"maxclass" : "newobj",
													"numinlets" : 11,
													"numoutlets" : 1,
													"outlettype" : [ "" ],
													"patching_rect" : [ 11.0, 166.0, 379.0, 18.0 ],
													"style" : "",
													"text" : "pack 0 0 0 0 0 0 0 0 0 0 0"
												}

											}
, 											{
												"box" : 												{
													"fontname" : "Helvetica",
													"fontsize" : 12.0,
													"id" : "obj-33",
													"maxclass" : "newobj",
													"numinlets" : 2,
													"numoutlets" : 1,
													"outlettype" : [ "int" ],
													"patching_rect" : [ 335.0, 87.0, 35.0, 18.0 ],
													"style" : "",
													"text" : "== 0"
												}

											}
, 											{
												"box" : 												{
													"fontname" : "Helvetica",
													"fontsize" : 12.0,
													"id" : "obj-34",
													"maxclass" : "newobj",
													"numinlets" : 2,
													"numoutlets" : 1,
													"outlettype" : [ "int" ],
													"patching_rect" : [ 335.0, 66.0, 42.0, 18.0 ],
													"style" : "",
													"text" : "& 512"
												}

											}
, 											{
												"box" : 												{
													"fontname" : "Helvetica",
													"fontsize" : 12.0,
													"id" : "obj-30",
													"maxclass" : "newobj",
													"numinlets" : 2,
													"numoutlets" : 1,
													"outlettype" : [ "int" ],
													"patching_rect" : [ 299.0, 87.0, 35.0, 18.0 ],
													"style" : "",
													"text" : "== 0"
												}

											}
, 											{
												"box" : 												{
													"fontname" : "Helvetica",
													"fontsize" : 12.0,
													"id" : "obj-31",
													"maxclass" : "newobj",
													"numinlets" : 2,
													"numoutlets" : 1,
													"outlettype" : [ "int" ],
													"patching_rect" : [ 299.0, 66.0, 42.0, 18.0 ],
													"style" : "",
													"text" : "& 256"
												}

											}
, 											{
												"box" : 												{
													"fontname" : "Helvetica",
													"fontsize" : 12.0,
													"id" : "obj-27",
													"maxclass" : "newobj",
													"numinlets" : 2,
													"numoutlets" : 1,
													"outlettype" : [ "int" ],
													"patching_rect" : [ 263.0, 87.0, 35.0, 18.0 ],
													"style" : "",
													"text" : "== 0"
												}

											}
, 											{
												"box" : 												{
													"fontname" : "Helvetica",
													"fontsize" : 12.0,
													"id" : "obj-28",
													"maxclass" : "newobj",
													"numinlets" : 2,
													"numoutlets" : 1,
													"outlettype" : [ "int" ],
													"patching_rect" : [ 263.0, 66.0, 42.0, 18.0 ],
													"style" : "",
													"text" : "& 128"
												}

											}
, 											{
												"box" : 												{
													"fontname" : "Helvetica",
													"fontsize" : 12.0,
													"id" : "obj-24",
													"maxclass" : "newobj",
													"numinlets" : 2,
													"numoutlets" : 1,
													"outlettype" : [ "int" ],
													"patching_rect" : [ 227.0, 87.0, 35.0, 18.0 ],
													"style" : "",
													"text" : "== 0"
												}

											}
, 											{
												"box" : 												{
													"fontname" : "Helvetica",
													"fontsize" : 12.0,
													"id" : "obj-25",
													"maxclass" : "newobj",
													"numinlets" : 2,
													"numoutlets" : 1,
													"outlettype" : [ "int" ],
													"patching_rect" : [ 227.0, 66.0, 35.0, 18.0 ],
													"style" : "",
													"text" : "& 64"
												}

											}
, 											{
												"box" : 												{
													"fontname" : "Helvetica",
													"fontsize" : 12.0,
													"id" : "obj-21",
													"maxclass" : "newobj",
													"numinlets" : 2,
													"numoutlets" : 1,
													"outlettype" : [ "int" ],
													"patching_rect" : [ 191.0, 87.0, 35.0, 18.0 ],
													"style" : "",
													"text" : "== 0"
												}

											}
, 											{
												"box" : 												{
													"fontname" : "Helvetica",
													"fontsize" : 12.0,
													"id" : "obj-22",
													"maxclass" : "newobj",
													"numinlets" : 2,
													"numoutlets" : 1,
													"outlettype" : [ "int" ],
													"patching_rect" : [ 191.0, 66.0, 35.0, 18.0 ],
													"style" : "",
													"text" : "& 32"
												}

											}
, 											{
												"box" : 												{
													"fontname" : "Helvetica",
													"fontsize" : 12.0,
													"id" : "obj-18",
													"maxclass" : "newobj",
													"numinlets" : 2,
													"numoutlets" : 1,
													"outlettype" : [ "int" ],
													"patching_rect" : [ 155.0, 87.0, 35.0, 18.0 ],
													"style" : "",
													"text" : "== 0"
												}

											}
, 											{
												"box" : 												{
													"fontname" : "Helvetica",
													"fontsize" : 12.0,
													"id" : "obj-19",
													"maxclass" : "newobj",
													"numinlets" : 2,
													"numoutlets" : 1,
													"outlettype" : [ "int" ],
													"patching_rect" : [ 155.0, 66.0, 35.0, 18.0 ],
													"style" : "",
													"text" : "& 16"
												}

											}
, 											{
												"box" : 												{
													"fontname" : "Helvetica",
													"fontsize" : 12.0,
													"id" : "obj-15",
													"maxclass" : "newobj",
													"numinlets" : 2,
													"numoutlets" : 1,
													"outlettype" : [ "int" ],
													"patching_rect" : [ 119.0, 87.0, 35.0, 18.0 ],
													"style" : "",
													"text" : "== 0"
												}

											}
, 											{
												"box" : 												{
													"fontname" : "Helvetica",
													"fontsize" : 12.0,
													"id" : "obj-16",
													"maxclass" : "newobj",
													"numinlets" : 2,
													"numoutlets" : 1,
													"outlettype" : [ "int" ],
													"patching_rect" : [ 119.0, 66.0, 32.5, 18.0 ],
													"style" : "",
													"text" : "& 8"
												}

											}
, 											{
												"box" : 												{
													"fontname" : "Helvetica",
													"fontsize" : 12.0,
													"id" : "obj-12",
													"maxclass" : "newobj",
													"numinlets" : 2,
													"numoutlets" : 1,
													"outlettype" : [ "int" ],
													"patching_rect" : [ 83.0, 88.0, 35.0, 18.0 ],
													"style" : "",
													"text" : "== 0"
												}

											}
, 											{
												"box" : 												{
													"fontname" : "Helvetica",
													"fontsize" : 12.0,
													"id" : "obj-13",
													"maxclass" : "newobj",
													"numinlets" : 2,
													"numoutlets" : 1,
													"outlettype" : [ "int" ],
													"patching_rect" : [ 83.0, 67.0, 32.5, 18.0 ],
													"style" : "",
													"text" : "& 4"
												}

											}
, 											{
												"box" : 												{
													"fontname" : "Helvetica",
													"fontsize" : 12.0,
													"id" : "obj-6",
													"maxclass" : "newobj",
													"numinlets" : 2,
													"numoutlets" : 1,
													"outlettype" : [ "int" ],
													"patching_rect" : [ 47.0, 88.0, 35.0, 18.0 ],
													"style" : "",
													"text" : "== 0"
												}

											}
, 											{
												"box" : 												{
													"fontname" : "Helvetica",
													"fontsize" : 12.0,
													"id" : "obj-3",
													"maxclass" : "newobj",
													"numinlets" : 2,
													"numoutlets" : 1,
													"outlettype" : [ "int" ],
													"patching_rect" : [ 11.0, 66.0, 32.5, 18.0 ],
													"style" : "",
													"text" : "& 1"
												}

											}
, 											{
												"box" : 												{
													"fontname" : "Helvetica",
													"fontsize" : 12.0,
													"id" : "obj-2",
													"maxclass" : "newobj",
													"numinlets" : 2,
													"numoutlets" : 1,
													"outlettype" : [ "int" ],
													"patching_rect" : [ 47.0, 66.0, 32.5, 18.0 ],
													"style" : "",
													"text" : "& 2"
												}

											}
, 											{
												"box" : 												{
													"comment" : "",
													"id" : "obj-1",
													"maxclass" : "inlet",
													"numinlets" : 0,
													"numoutlets" : 1,
													"outlettype" : [ "int" ],
													"patching_rect" : [ 11.0, 9.0, 25.0, 25.0 ],
													"style" : ""
												}

											}
 ],
										"lines" : [ 											{
												"patchline" : 												{
													"destination" : [ "obj-13", 0 ],
													"disabled" : 0,
													"hidden" : 0,
													"midpoints" : [ 20.5, 49.5, 92.5, 49.5 ],
													"source" : [ "obj-1", 0 ]
												}

											}
, 											{
												"patchline" : 												{
													"destination" : [ "obj-16", 0 ],
													"disabled" : 0,
													"hidden" : 0,
													"midpoints" : [ 20.5, 49.5, 128.5, 49.5 ],
													"source" : [ "obj-1", 0 ]
												}

											}
, 											{
												"patchline" : 												{
													"destination" : [ "obj-19", 0 ],
													"disabled" : 0,
													"hidden" : 0,
													"midpoints" : [ 20.5, 49.5, 164.5, 49.5 ],
													"source" : [ "obj-1", 0 ]
												}

											}
, 											{
												"patchline" : 												{
													"destination" : [ "obj-2", 0 ],
													"disabled" : 0,
													"hidden" : 0,
													"midpoints" : [ 20.5, 49.5, 56.5, 49.5 ],
													"source" : [ "obj-1", 0 ]
												}

											}
, 											{
												"patchline" : 												{
													"destination" : [ "obj-22", 0 ],
													"disabled" : 0,
													"hidden" : 0,
													"midpoints" : [ 20.5, 49.5, 200.5, 49.5 ],
													"source" : [ "obj-1", 0 ]
												}

											}
, 											{
												"patchline" : 												{
													"destination" : [ "obj-25", 0 ],
													"disabled" : 0,
													"hidden" : 0,
													"midpoints" : [ 20.5, 49.5, 236.5, 49.5 ],
													"source" : [ "obj-1", 0 ]
												}

											}
, 											{
												"patchline" : 												{
													"destination" : [ "obj-28", 0 ],
													"disabled" : 0,
													"hidden" : 0,
													"midpoints" : [ 20.5, 49.5, 272.5, 49.5 ],
													"source" : [ "obj-1", 0 ]
												}

											}
, 											{
												"patchline" : 												{
													"destination" : [ "obj-3", 0 ],
													"disabled" : 0,
													"hidden" : 0,
													"midpoints" : [ 20.5, 49.5, 20.5, 49.5 ],
													"source" : [ "obj-1", 0 ]
												}

											}
, 											{
												"patchline" : 												{
													"destination" : [ "obj-31", 0 ],
													"disabled" : 0,
													"hidden" : 0,
													"midpoints" : [ 20.5, 49.5, 308.5, 49.5 ],
													"source" : [ "obj-1", 0 ]
												}

											}
, 											{
												"patchline" : 												{
													"destination" : [ "obj-34", 0 ],
													"disabled" : 0,
													"hidden" : 0,
													"midpoints" : [ 20.5, 49.5, 344.5, 49.5 ],
													"source" : [ "obj-1", 0 ]
												}

											}
, 											{
												"patchline" : 												{
													"destination" : [ "obj-5", 0 ],
													"disabled" : 0,
													"hidden" : 0,
													"midpoints" : [ 20.5, 49.0, 387.5, 49.0 ],
													"source" : [ "obj-1", 0 ]
												}

											}
, 											{
												"patchline" : 												{
													"destination" : [ "obj-8", 0 ],
													"disabled" : 0,
													"hidden" : 1,
													"source" : [ "obj-11", 0 ]
												}

											}
, 											{
												"patchline" : 												{
													"destination" : [ "obj-41", 2 ],
													"disabled" : 0,
													"hidden" : 0,
													"source" : [ "obj-12", 0 ]
												}

											}
, 											{
												"patchline" : 												{
													"destination" : [ "obj-12", 0 ],
													"disabled" : 0,
													"hidden" : 0,
													"source" : [ "obj-13", 0 ]
												}

											}
, 											{
												"patchline" : 												{
													"destination" : [ "obj-41", 0 ],
													"disabled" : 0,
													"hidden" : 0,
													"source" : [ "obj-14", 0 ]
												}

											}
, 											{
												"patchline" : 												{
													"destination" : [ "obj-41", 3 ],
													"disabled" : 0,
													"hidden" : 0,
													"source" : [ "obj-15", 0 ]
												}

											}
, 											{
												"patchline" : 												{
													"destination" : [ "obj-15", 0 ],
													"disabled" : 0,
													"hidden" : 0,
													"source" : [ "obj-16", 0 ]
												}

											}
, 											{
												"patchline" : 												{
													"destination" : [ "obj-41", 4 ],
													"disabled" : 0,
													"hidden" : 0,
													"source" : [ "obj-18", 0 ]
												}

											}
, 											{
												"patchline" : 												{
													"destination" : [ "obj-18", 0 ],
													"disabled" : 0,
													"hidden" : 0,
													"source" : [ "obj-19", 0 ]
												}

											}
, 											{
												"patchline" : 												{
													"destination" : [ "obj-6", 0 ],
													"disabled" : 0,
													"hidden" : 0,
													"source" : [ "obj-2", 0 ]
												}

											}
, 											{
												"patchline" : 												{
													"destination" : [ "obj-41", 5 ],
													"disabled" : 0,
													"hidden" : 0,
													"source" : [ "obj-21", 0 ]
												}

											}
, 											{
												"patchline" : 												{
													"destination" : [ "obj-21", 0 ],
													"disabled" : 0,
													"hidden" : 0,
													"source" : [ "obj-22", 0 ]
												}

											}
, 											{
												"patchline" : 												{
													"destination" : [ "obj-41", 6 ],
													"disabled" : 0,
													"hidden" : 0,
													"source" : [ "obj-24", 0 ]
												}

											}
, 											{
												"patchline" : 												{
													"destination" : [ "obj-24", 0 ],
													"disabled" : 0,
													"hidden" : 0,
													"source" : [ "obj-25", 0 ]
												}

											}
, 											{
												"patchline" : 												{
													"destination" : [ "obj-41", 7 ],
													"disabled" : 0,
													"hidden" : 0,
													"source" : [ "obj-27", 0 ]
												}

											}
, 											{
												"patchline" : 												{
													"destination" : [ "obj-27", 0 ],
													"disabled" : 0,
													"hidden" : 0,
													"source" : [ "obj-28", 0 ]
												}

											}
, 											{
												"patchline" : 												{
													"destination" : [ "obj-14", 0 ],
													"disabled" : 0,
													"hidden" : 0,
													"source" : [ "obj-3", 0 ]
												}

											}
, 											{
												"patchline" : 												{
													"destination" : [ "obj-41", 8 ],
													"disabled" : 0,
													"hidden" : 0,
													"source" : [ "obj-30", 0 ]
												}

											}
, 											{
												"patchline" : 												{
													"destination" : [ "obj-30", 0 ],
													"disabled" : 0,
													"hidden" : 0,
													"source" : [ "obj-31", 0 ]
												}

											}
, 											{
												"patchline" : 												{
													"destination" : [ "obj-41", 9 ],
													"disabled" : 0,
													"hidden" : 0,
													"source" : [ "obj-33", 0 ]
												}

											}
, 											{
												"patchline" : 												{
													"destination" : [ "obj-33", 0 ],
													"disabled" : 0,
													"hidden" : 0,
													"source" : [ "obj-34", 0 ]
												}

											}
, 											{
												"patchline" : 												{
													"destination" : [ "obj-41", 10 ],
													"disabled" : 0,
													"hidden" : 0,
													"source" : [ "obj-4", 0 ]
												}

											}
, 											{
												"patchline" : 												{
													"destination" : [ "obj-42", 0 ],
													"disabled" : 0,
													"hidden" : 0,
													"source" : [ "obj-41", 0 ]
												}

											}
, 											{
												"patchline" : 												{
													"destination" : [ "obj-4", 0 ],
													"disabled" : 0,
													"hidden" : 0,
													"source" : [ "obj-5", 0 ]
												}

											}
, 											{
												"patchline" : 												{
													"destination" : [ "obj-41", 1 ],
													"disabled" : 0,
													"hidden" : 0,
													"source" : [ "obj-6", 0 ]
												}

											}
, 											{
												"patchline" : 												{
													"destination" : [ "obj-9", 0 ],
													"disabled" : 0,
													"hidden" : 1,
													"source" : [ "obj-8", 0 ]
												}

											}
, 											{
												"patchline" : 												{
													"destination" : [ "obj-13", 1 ],
													"disabled" : 0,
													"hidden" : 1,
													"source" : [ "obj-9", 2 ]
												}

											}
, 											{
												"patchline" : 												{
													"destination" : [ "obj-16", 1 ],
													"disabled" : 0,
													"hidden" : 1,
													"source" : [ "obj-9", 3 ]
												}

											}
, 											{
												"patchline" : 												{
													"destination" : [ "obj-19", 1 ],
													"disabled" : 0,
													"hidden" : 1,
													"source" : [ "obj-9", 4 ]
												}

											}
, 											{
												"patchline" : 												{
													"destination" : [ "obj-2", 1 ],
													"disabled" : 0,
													"hidden" : 1,
													"source" : [ "obj-9", 1 ]
												}

											}
, 											{
												"patchline" : 												{
													"destination" : [ "obj-22", 1 ],
													"disabled" : 0,
													"hidden" : 1,
													"source" : [ "obj-9", 5 ]
												}

											}
, 											{
												"patchline" : 												{
													"destination" : [ "obj-25", 1 ],
													"disabled" : 0,
													"hidden" : 1,
													"source" : [ "obj-9", 6 ]
												}

											}
, 											{
												"patchline" : 												{
													"destination" : [ "obj-28", 1 ],
													"disabled" : 0,
													"hidden" : 1,
													"source" : [ "obj-9", 7 ]
												}

											}
, 											{
												"patchline" : 												{
													"destination" : [ "obj-3", 1 ],
													"disabled" : 0,
													"hidden" : 1,
													"source" : [ "obj-9", 0 ]
												}

											}
, 											{
												"patchline" : 												{
													"destination" : [ "obj-31", 1 ],
													"disabled" : 0,
													"hidden" : 1,
													"source" : [ "obj-9", 8 ]
												}

											}
, 											{
												"patchline" : 												{
													"destination" : [ "obj-34", 1 ],
													"disabled" : 0,
													"hidden" : 1,
													"source" : [ "obj-9", 9 ]
												}

											}
, 											{
												"patchline" : 												{
													"destination" : [ "obj-5", 1 ],
													"disabled" : 0,
													"hidden" : 1,
													"source" : [ "obj-9", 10 ]
												}

											}
 ],
										"styles" : [ 											{
												"name" : "m4vatextbutton",
												"default" : 												{
													"accentcolor" : [ 1.0, 1.0, 1.0, 1.0 ],
													"elementcolor" : [ 0.264542, 0.246412, 0.247132, 1.0 ],
													"bgcolor" : [ 0.264542, 0.246412, 0.247132, 1.0 ],
													"selectioncolor" : [ 0.960784, 0.827451, 0.156863, 1.0 ],
													"color" : [ 1.0, 1.0, 1.0, 1.0 ],
													"fontsize" : [ 14.0 ]
												}
,
												"parentstyle" : "",
												"multi" : 0
											}
, 											{
												"name" : "simple",
												"parentstyle" : "",
												"multi" : 0
											}
 ]
									}
,
									"patching_rect" : [ 128.0, 373.0, 84.0, 20.0 ],
									"saved_object_attributes" : 									{
										"description" : "",
										"digest" : "",
										"fontname" : "Helvetica",
										"globalpatchername" : "",
										"style" : "",
										"tags" : ""
									}
,
									"style" : "",
									"text" : "p digitalParse"
								}

							}
, 							{
								"box" : 								{
									"fontname" : "Arial",
									"fontsize" : 12.0,
									"id" : "obj-8",
									"maxclass" : "newobj",
									"numinlets" : 1,
									"numoutlets" : 1,
									"outlettype" : [ "list" ],
									"patching_rect" : [ 10.0, 373.0, 59.0, 20.0 ],
									"style" : "",
									"text" : "listfunnel"
								}

							}
, 							{
								"box" : 								{
									"fontname" : "Arial",
									"fontsize" : 12.0,
									"id" : "obj-7",
									"maxclass" : "newobj",
									"numinlets" : 2,
									"numoutlets" : 1,
									"outlettype" : [ "" ],
									"patching_rect" : [ 10.0, 319.0, 114.0, 20.0 ],
									"style" : "",
									"text" : "vexpr $i1+($i2<<7)"
								}

							}
, 							{
								"box" : 								{
									"fontname" : "Arial",
									"fontsize" : 12.0,
									"id" : "obj-1",
									"maxclass" : "newobj",
									"numinlets" : 2,
									"numoutlets" : 2,
									"outlettype" : [ "", "" ],
									"patching_rect" : [ 10.0, 292.0, 114.0, 20.0 ],
									"style" : "",
									"text" : "zl delace 1"
								}

							}
, 							{
								"box" : 								{
									"fontname" : "Helvetica",
									"fontsize" : 12.0,
									"id" : "obj-5",
									"maxclass" : "comment",
									"numinlets" : 1,
									"numoutlets" : 0,
									"patching_rect" : [ 38.0, 439.0, 159.0, 18.0 ],
									"style" : "",
									"text" : "analog inputs output as list\n"
								}

							}
, 							{
								"box" : 								{
									"fontname" : "Helvetica",
									"fontsize" : 12.0,
									"id" : "obj-4",
									"linecount" : 2,
									"maxclass" : "comment",
									"numinlets" : 1,
									"numoutlets" : 0,
									"patching_rect" : [ 226.0, 314.0, 85.0, 30.0 ],
									"style" : "",
									"text" : "pack high/low bytes together"
								}

							}
, 							{
								"box" : 								{
									"fontname" : "Helvetica",
									"fontsize" : 12.0,
									"id" : "obj-3",
									"linecount" : 2,
									"maxclass" : "comment",
									"numinlets" : 1,
									"numoutlets" : 0,
									"patching_rect" : [ 115.0, 142.0, 119.0, 30.0 ],
									"style" : "",
									"text" : "everything over 127 is a control index"
								}

							}
, 							{
								"box" : 								{
									"fontname" : "Helvetica",
									"fontsize" : 12.0,
									"id" : "obj-2",
									"maxclass" : "comment",
									"numinlets" : 1,
									"numoutlets" : 0,
									"patching_rect" : [ 144.0, 46.0, 191.0, 18.0 ],
									"style" : "",
									"text" : "255 signals the end of a message\n"
								}

							}
, 							{
								"box" : 								{
									"fontname" : "Arial",
									"fontsize" : 12.0,
									"id" : "obj-51",
									"maxclass" : "newobj",
									"numinlets" : 3,
									"numoutlets" : 3,
									"outlettype" : [ "", "", "" ],
									"patching_rect" : [ 10.0, 261.0, 255.0, 20.0 ],
									"style" : "",
									"text" : "route 1 2"
								}

							}
, 							{
								"box" : 								{
									"fontname" : "Arial",
									"fontsize" : 12.0,
									"id" : "obj-49",
									"maxclass" : "newobj",
									"numinlets" : 2,
									"numoutlets" : 1,
									"outlettype" : [ "int" ],
									"patching_rect" : [ 179.0, 319.0, 38.0, 20.0 ],
									"style" : "",
									"text" : "<< 7"
								}

							}
, 							{
								"box" : 								{
									"fontname" : "Arial",
									"fontsize" : 12.0,
									"id" : "obj-38",
									"maxclass" : "newobj",
									"numinlets" : 2,
									"numoutlets" : 1,
									"outlettype" : [ "int" ],
									"patching_rect" : [ 128.0, 345.0, 70.0, 20.0 ],
									"style" : "",
									"text" : "+"
								}

							}
, 							{
								"box" : 								{
									"fontname" : "Arial",
									"fontsize" : 12.0,
									"id" : "obj-36",
									"maxclass" : "newobj",
									"numinlets" : 1,
									"numoutlets" : 2,
									"outlettype" : [ "int", "int" ],
									"patching_rect" : [ 128.0, 292.0, 70.0, 20.0 ],
									"style" : "",
									"text" : "unpack 0 0"
								}

							}
, 							{
								"box" : 								{
									"fontname" : "Arial",
									"fontsize" : 12.0,
									"id" : "obj-35",
									"maxclass" : "newobj",
									"numinlets" : 2,
									"numoutlets" : 1,
									"outlettype" : [ "int" ],
									"patching_rect" : [ 10.0, 196.0, 39.0, 20.0 ],
									"style" : "",
									"text" : "- 128"
								}

							}
, 							{
								"box" : 								{
									"fontname" : "Arial",
									"fontsize" : 12.0,
									"id" : "obj-29",
									"maxclass" : "newobj",
									"numinlets" : 1,
									"numoutlets" : 2,
									"outlettype" : [ "int", "int" ],
									"patching_rect" : [ 56.0, 87.0, 38.0, 20.0 ],
									"style" : "",
									"text" : "t i i"
								}

							}
, 							{
								"box" : 								{
									"fontname" : "Arial",
									"fontsize" : 12.0,
									"id" : "obj-26",
									"maxclass" : "newobj",
									"numinlets" : 2,
									"numoutlets" : 2,
									"outlettype" : [ "bang", "" ],
									"patching_rect" : [ 91.0, 45.0, 50.0, 20.0 ],
									"style" : "",
									"text" : "sel 255"
								}

							}
, 							{
								"box" : 								{
									"fontname" : "Arial",
									"fontsize" : 12.0,
									"id" : "obj-20",
									"maxclass" : "newobj",
									"numinlets" : 2,
									"numoutlets" : 2,
									"outlettype" : [ "", "" ],
									"patching_rect" : [ 10.0, 232.0, 78.0, 20.0 ],
									"style" : "",
									"text" : "zl group 100"
								}

							}
, 							{
								"box" : 								{
									"fontname" : "Arial",
									"fontsize" : 12.0,
									"id" : "obj-16",
									"maxclass" : "newobj",
									"numinlets" : 2,
									"numoutlets" : 1,
									"outlettype" : [ "int" ],
									"patching_rect" : [ 10.0, 147.0, 38.0, 20.0 ],
									"style" : "",
									"text" : "+ 1"
								}

							}
, 							{
								"box" : 								{
									"fontname" : "Arial",
									"fontsize" : 12.0,
									"id" : "obj-15",
									"maxclass" : "newobj",
									"numinlets" : 2,
									"numoutlets" : 1,
									"outlettype" : [ "int" ],
									"patching_rect" : [ 10.0, 122.0, 42.0, 20.0 ],
									"style" : "",
									"text" : "< 128"
								}

							}
, 							{
								"box" : 								{
									"fontname" : "Arial",
									"fontsize" : 12.0,
									"id" : "obj-14",
									"maxclass" : "newobj",
									"numinlets" : 2,
									"numoutlets" : 2,
									"outlettype" : [ "", "" ],
									"patching_rect" : [ 10.0, 171.0, 65.0, 20.0 ],
									"style" : "",
									"text" : "gate 2"
								}

							}
, 							{
								"box" : 								{
									"comment" : "",
									"id" : "obj-52",
									"maxclass" : "inlet",
									"numinlets" : 0,
									"numoutlets" : 1,
									"outlettype" : [ "int" ],
									"patching_rect" : [ 91.0, 8.0, 25.0, 25.0 ],
									"style" : ""
								}

							}
, 							{
								"box" : 								{
									"comment" : "",
									"id" : "obj-53",
									"maxclass" : "outlet",
									"numinlets" : 1,
									"numoutlets" : 0,
									"patching_rect" : [ 10.0, 433.0, 25.0, 25.0 ],
									"style" : ""
								}

							}
, 							{
								"box" : 								{
									"comment" : "",
									"id" : "obj-54",
									"maxclass" : "outlet",
									"numinlets" : 1,
									"numoutlets" : 0,
									"patching_rect" : [ 128.0, 405.0, 25.0, 25.0 ],
									"style" : ""
								}

							}
 ],
						"lines" : [ 							{
								"patchline" : 								{
									"destination" : [ "obj-7", 1 ],
									"disabled" : 0,
									"hidden" : 0,
									"source" : [ "obj-1", 1 ]
								}

							}
, 							{
								"patchline" : 								{
									"destination" : [ "obj-7", 0 ],
									"disabled" : 0,
									"hidden" : 0,
									"source" : [ "obj-1", 0 ]
								}

							}
, 							{
								"patchline" : 								{
									"destination" : [ "obj-54", 0 ],
									"disabled" : 0,
									"hidden" : 0,
									"source" : [ "obj-10", 0 ]
								}

							}
, 							{
								"patchline" : 								{
									"destination" : [ "obj-20", 0 ],
									"disabled" : 0,
									"hidden" : 0,
									"midpoints" : [ 65.5, 224.5, 19.5, 224.5 ],
									"source" : [ "obj-14", 1 ]
								}

							}
, 							{
								"patchline" : 								{
									"destination" : [ "obj-35", 0 ],
									"disabled" : 0,
									"hidden" : 0,
									"source" : [ "obj-14", 0 ]
								}

							}
, 							{
								"patchline" : 								{
									"destination" : [ "obj-16", 0 ],
									"disabled" : 0,
									"hidden" : 0,
									"source" : [ "obj-15", 0 ]
								}

							}
, 							{
								"patchline" : 								{
									"destination" : [ "obj-14", 0 ],
									"disabled" : 0,
									"hidden" : 0,
									"source" : [ "obj-16", 0 ]
								}

							}
, 							{
								"patchline" : 								{
									"destination" : [ "obj-51", 0 ],
									"disabled" : 0,
									"hidden" : 0,
									"source" : [ "obj-20", 0 ]
								}

							}
, 							{
								"patchline" : 								{
									"destination" : [ "obj-20", 0 ],
									"disabled" : 0,
									"hidden" : 0,
									"midpoints" : [ 100.5, 224.0, 19.5, 224.0 ],
									"source" : [ "obj-26", 0 ]
								}

							}
, 							{
								"patchline" : 								{
									"destination" : [ "obj-29", 0 ],
									"disabled" : 0,
									"hidden" : 0,
									"midpoints" : [ 131.5, 77.0, 65.5, 77.0 ],
									"source" : [ "obj-26", 1 ]
								}

							}
, 							{
								"patchline" : 								{
									"destination" : [ "obj-14", 1 ],
									"disabled" : 0,
									"hidden" : 0,
									"source" : [ "obj-29", 0 ]
								}

							}
, 							{
								"patchline" : 								{
									"destination" : [ "obj-15", 0 ],
									"disabled" : 0,
									"hidden" : 0,
									"midpoints" : [ 84.5, 115.5, 19.5, 115.5 ],
									"source" : [ "obj-29", 1 ]
								}

							}
, 							{
								"patchline" : 								{
									"destination" : [ "obj-20", 0 ],
									"disabled" : 0,
									"hidden" : 0,
									"source" : [ "obj-35", 0 ]
								}

							}
, 							{
								"patchline" : 								{
									"destination" : [ "obj-38", 0 ],
									"disabled" : 0,
									"hidden" : 0,
									"source" : [ "obj-36", 0 ]
								}

							}
, 							{
								"patchline" : 								{
									"destination" : [ "obj-49", 0 ],
									"disabled" : 0,
									"hidden" : 0,
									"source" : [ "obj-36", 1 ]
								}

							}
, 							{
								"patchline" : 								{
									"destination" : [ "obj-10", 0 ],
									"disabled" : 0,
									"hidden" : 0,
									"source" : [ "obj-38", 0 ]
								}

							}
, 							{
								"patchline" : 								{
									"destination" : [ "obj-38", 1 ],
									"disabled" : 0,
									"hidden" : 0,
									"source" : [ "obj-49", 0 ]
								}

							}
, 							{
								"patchline" : 								{
									"destination" : [ "obj-1", 0 ],
									"disabled" : 0,
									"hidden" : 0,
									"source" : [ "obj-51", 0 ]
								}

							}
, 							{
								"patchline" : 								{
									"destination" : [ "obj-36", 0 ],
									"disabled" : 0,
									"hidden" : 0,
									"midpoints" : [ 137.5, 283.0, 137.5, 283.0 ],
									"source" : [ "obj-51", 1 ]
								}

							}
, 							{
								"patchline" : 								{
									"destination" : [ "obj-26", 0 ],
									"disabled" : 0,
									"hidden" : 0,
									"source" : [ "obj-52", 0 ]
								}

							}
, 							{
								"patchline" : 								{
									"destination" : [ "obj-8", 0 ],
									"disabled" : 0,
									"hidden" : 0,
									"source" : [ "obj-7", 0 ]
								}

							}
, 							{
								"patchline" : 								{
									"destination" : [ "obj-53", 0 ],
									"disabled" : 0,
									"hidden" : 0,
									"source" : [ "obj-8", 0 ]
								}

							}
 ],
						"styles" : [ 							{
								"name" : "m4vatextbutton",
								"default" : 								{
									"accentcolor" : [ 1.0, 1.0, 1.0, 1.0 ],
									"elementcolor" : [ 0.264542, 0.246412, 0.247132, 1.0 ],
									"bgcolor" : [ 0.264542, 0.246412, 0.247132, 1.0 ],
									"selectioncolor" : [ 0.960784, 0.827451, 0.156863, 1.0 ],
									"color" : [ 1.0, 1.0, 1.0, 1.0 ],
									"fontsize" : [ 14.0 ]
								}
,
								"parentstyle" : "",
								"multi" : 0
							}
, 							{
								"name" : "simple",
								"parentstyle" : "",
								"multi" : 0
							}
 ]
					}
,
					"patching_rect" : [ 11.0, 226.0, 134.0, 22.0 ],
					"saved_object_attributes" : 					{
						"description" : "",
						"digest" : "",
						"fontname" : "Helvetica",
						"globalpatchername" : "",
						"style" : "",
						"tags" : ""
					}
,
					"style" : "default",
					"text" : "p parse-messages"
				}

			}
, 			{
				"box" : 				{
					"id" : "obj-13",
					"maxclass" : "toggle",
					"numinlets" : 1,
					"numoutlets" : 1,
					"outlettype" : [ "int" ],
					"parameter_enable" : 0,
					"patching_rect" : [ 366.0, 281.0, 20.0, 20.0 ],
					"style" : "default"
				}

			}
, 			{
				"box" : 				{
					"id" : "obj-97",
					"maxclass" : "newobj",
					"numinlets" : 1,
					"numoutlets" : 1,
					"outlettype" : [ "" ],
					"patching_rect" : [ 266.0, 124.0, 87.0, 22.0 ],
					"style" : "default",
					"text" : "prepend port"
				}

			}
, 			{
				"box" : 				{
					"id" : "obj-96",
					"maxclass" : "newobj",
					"numinlets" : 1,
					"numoutlets" : 1,
					"outlettype" : [ "clear" ],
					"patcher" : 					{
						"fileversion" : 1,
						"appversion" : 						{
							"major" : 7,
							"minor" : 0,
							"revision" : 1,
							"architecture" : "x86",
							"modernui" : 1
						}
,
						"rect" : [ 25.0, 69.0, 167.0, 301.0 ],
						"bglocked" : 0,
						"openinpresentation" : 0,
						"default_fontsize" : 12.0,
						"default_fontface" : 0,
						"default_fontname" : "Helvetica",
						"gridonopen" : 1,
						"gridsize" : [ 15.0, 15.0 ],
						"gridsnaponopen" : 1,
						"objectsnaponopen" : 1,
						"statusbarvisible" : 2,
						"toolbarvisible" : 0,
						"lefttoolbarpinned" : 0,
						"toptoolbarpinned" : 0,
						"righttoolbarpinned" : 0,
						"bottomtoolbarpinned" : 0,
						"toolbars_unpinned_last_save" : 0,
						"tallnewobj" : 0,
						"boxanimatetime" : 200,
						"enablehscroll" : 1,
						"enablevscroll" : 1,
						"devicewidth" : 0.0,
						"description" : "",
						"digest" : "",
						"tags" : "",
						"style" : "",
						"subpatcher_template" : "",
						"boxes" : [ 							{
								"box" : 								{
									"fontname" : "Arial",
									"fontsize" : 10.0,
									"id" : "obj-93",
									"maxclass" : "newobj",
									"numinlets" : 2,
									"numoutlets" : 2,
									"outlettype" : [ "", "" ],
									"patching_rect" : [ 50.0, 141.0, 43.0, 18.0 ],
									"style" : "",
									"text" : "zl iter 1"
								}

							}
, 							{
								"box" : 								{
									"fontname" : "Arial",
									"fontsize" : 10.0,
									"id" : "obj-92",
									"maxclass" : "newobj",
									"numinlets" : 1,
									"numoutlets" : 2,
									"outlettype" : [ "", "clear" ],
									"patching_rect" : [ 50.0, 120.0, 43.0, 18.0 ],
									"style" : "",
									"text" : "t l clear"
								}

							}
, 							{
								"box" : 								{
									"fontname" : "Arial",
									"fontsize" : 10.0,
									"id" : "obj-89",
									"maxclass" : "newobj",
									"numinlets" : 1,
									"numoutlets" : 1,
									"outlettype" : [ "" ],
									"patching_rect" : [ 50.0, 165.0, 83.0, 18.0 ],
									"style" : "",
									"text" : "prepend append"
								}

							}
, 							{
								"box" : 								{
									"fontname" : "Arial",
									"fontsize" : 10.0,
									"id" : "obj-85",
									"maxclass" : "newobj",
									"numinlets" : 2,
									"numoutlets" : 2,
									"outlettype" : [ "", "" ],
									"patching_rect" : [ 50.0, 100.0, 53.0, 18.0 ],
									"style" : "",
									"text" : "route port"
								}

							}
, 							{
								"box" : 								{
									"comment" : "",
									"id" : "obj-94",
									"maxclass" : "inlet",
									"numinlets" : 0,
									"numoutlets" : 1,
									"outlettype" : [ "" ],
									"patching_rect" : [ 50.0, 40.0, 25.0, 25.0 ],
									"style" : ""
								}

							}
, 							{
								"box" : 								{
									"comment" : "",
									"id" : "obj-95",
									"maxclass" : "outlet",
									"numinlets" : 1,
									"numoutlets" : 0,
									"patching_rect" : [ 45.0, 243.0, 25.0, 25.0 ],
									"style" : ""
								}

							}
 ],
						"lines" : [ 							{
								"patchline" : 								{
									"destination" : [ "obj-92", 0 ],
									"disabled" : 0,
									"hidden" : 0,
									"source" : [ "obj-85", 0 ]
								}

							}
, 							{
								"patchline" : 								{
									"destination" : [ "obj-95", 0 ],
									"disabled" : 0,
									"hidden" : 0,
									"source" : [ "obj-89", 0 ]
								}

							}
, 							{
								"patchline" : 								{
									"destination" : [ "obj-93", 0 ],
									"disabled" : 0,
									"hidden" : 0,
									"source" : [ "obj-92", 0 ]
								}

							}
, 							{
								"patchline" : 								{
									"destination" : [ "obj-95", 0 ],
									"disabled" : 0,
									"hidden" : 0,
									"source" : [ "obj-92", 1 ]
								}

							}
, 							{
								"patchline" : 								{
									"destination" : [ "obj-89", 0 ],
									"disabled" : 0,
									"hidden" : 0,
									"source" : [ "obj-93", 0 ]
								}

							}
, 							{
								"patchline" : 								{
									"destination" : [ "obj-85", 0 ],
									"disabled" : 0,
									"hidden" : 0,
									"source" : [ "obj-94", 0 ]
								}

							}
 ]
					}
,
					"patching_rect" : [ 197.0, 72.0, 53.0, 22.0 ],
					"saved_object_attributes" : 					{
						"description" : "",
						"digest" : "",
						"fontname" : "Helvetica",
						"globalpatchername" : "",
						"style" : "",
						"tags" : ""
					}
,
					"style" : "default",
					"text" : "p ports"
				}

			}
, 			{
				"box" : 				{
					"id" : "obj-88",
					"items" : [ "SparkFun-BT-COM0", ",", "BTGPS74R-SPP-1", ",", "Bluetooth-Modem", ",", "Bluetooth-Incoming-Port" ],
					"maxclass" : "umenu",
					"numinlets" : 1,
					"numoutlets" : 3,
					"outlettype" : [ "int", "", "" ],
					"parameter_enable" : 0,
					"patching_rect" : [ 197.0, 98.0, 156.0, 22.0 ],
					"style" : "default"
				}

			}
, 			{
				"box" : 				{
					"id" : "obj-48",
					"maxclass" : "toggle",
					"numinlets" : 1,
					"numoutlets" : 1,
					"outlettype" : [ "int" ],
					"parameter_enable" : 0,
					"patching_rect" : [ 341.100006, 281.0, 20.0, 20.0 ],
					"style" : "default"
				}

			}
, 			{
				"box" : 				{
					"id" : "obj-47",
					"maxclass" : "toggle",
					"numinlets" : 1,
					"numoutlets" : 1,
					"outlettype" : [ "int" ],
					"parameter_enable" : 0,
					"patching_rect" : [ 317.200012, 281.0, 20.0, 20.0 ],
					"style" : "default"
				}

			}
, 			{
				"box" : 				{
					"id" : "obj-46",
					"maxclass" : "toggle",
					"numinlets" : 1,
					"numoutlets" : 1,
					"outlettype" : [ "int" ],
					"parameter_enable" : 0,
					"patching_rect" : [ 293.299988, 281.0, 20.0, 20.0 ],
					"style" : "default"
				}

			}
, 			{
				"box" : 				{
					"id" : "obj-45",
					"maxclass" : "toggle",
					"numinlets" : 1,
					"numoutlets" : 1,
					"outlettype" : [ "int" ],
					"parameter_enable" : 0,
					"patching_rect" : [ 269.399994, 281.0, 20.0, 20.0 ],
					"style" : "default"
				}

			}
, 			{
				"box" : 				{
					"id" : "obj-44",
					"maxclass" : "toggle",
					"numinlets" : 1,
					"numoutlets" : 1,
					"outlettype" : [ "int" ],
					"parameter_enable" : 0,
					"patching_rect" : [ 245.5, 281.0, 20.0, 20.0 ],
					"style" : "default"
				}

			}
, 			{
				"box" : 				{
					"id" : "obj-43",
					"maxclass" : "toggle",
					"numinlets" : 1,
					"numoutlets" : 1,
					"outlettype" : [ "int" ],
					"parameter_enable" : 0,
					"patching_rect" : [ 221.600006, 281.0, 20.0, 20.0 ],
					"style" : "default"
				}

			}
, 			{
				"box" : 				{
					"id" : "obj-42",
					"maxclass" : "toggle",
					"numinlets" : 1,
					"numoutlets" : 1,
					"outlettype" : [ "int" ],
					"parameter_enable" : 0,
					"patching_rect" : [ 197.699997, 281.0, 20.0, 20.0 ],
					"style" : "default"
				}

			}
, 			{
				"box" : 				{
					"id" : "obj-41",
					"maxclass" : "toggle",
					"numinlets" : 1,
					"numoutlets" : 1,
					"outlettype" : [ "int" ],
					"parameter_enable" : 0,
					"patching_rect" : [ 173.800003, 281.0, 20.0, 20.0 ],
					"style" : "default"
				}

			}
, 			{
				"box" : 				{
					"id" : "obj-40",
					"maxclass" : "toggle",
					"numinlets" : 1,
					"numoutlets" : 1,
					"outlettype" : [ "int" ],
					"parameter_enable" : 0,
					"patching_rect" : [ 149.899994, 281.0, 20.0, 20.0 ],
					"style" : "default"
				}

			}
, 			{
				"box" : 				{
					"id" : "obj-39",
					"maxclass" : "toggle",
					"numinlets" : 1,
					"numoutlets" : 1,
					"outlettype" : [ "int" ],
					"parameter_enable" : 0,
					"patching_rect" : [ 126.0, 281.0, 20.0, 20.0 ],
					"style" : "default"
				}

			}
, 			{
				"box" : 				{
					"id" : "obj-37",
					"maxclass" : "newobj",
					"numinlets" : 1,
					"numoutlets" : 11,
					"outlettype" : [ "int", "int", "int", "int", "int", "int", "int", "int", "int", "int", "int" ],
					"patching_rect" : [ 126.0, 255.0, 258.0, 22.0 ],
					"style" : "default",
					"text" : "unpack 0 0 0 0 0 0 0 0 0 0 0"
				}

			}
, 			{
				"box" : 				{
					"bgcolor" : [ 1.0, 1.0, 1.0, 1.0 ],
					"id" : "obj-34",
					"knobcolor" : [ 0.2, 0.2, 0.2, 1.0 ],
					"knobshape" : 5,
					"maxclass" : "slider",
					"numinlets" : 1,
					"numoutlets" : 1,
					"outlettype" : [ "" ],
					"parameter_enable" : 0,
					"patching_rect" : [ 118.0, 338.0, 15.0, 124.0 ],
					"size" : 1024.0,
					"style" : ""
				}

			}
, 			{
				"box" : 				{
					"bgcolor" : [ 1.0, 1.0, 1.0, 1.0 ],
					"id" : "obj-28",
					"knobcolor" : [ 0.2, 0.2, 0.2, 1.0 ],
					"knobshape" : 5,
					"maxclass" : "slider",
					"numinlets" : 1,
					"numoutlets" : 1,
					"outlettype" : [ "" ],
					"parameter_enable" : 0,
					"patching_rect" : [ 97.0, 338.0, 15.0, 124.0 ],
					"size" : 1024.0,
					"style" : ""
				}

			}
, 			{
				"box" : 				{
					"bgcolor" : [ 1.0, 1.0, 1.0, 1.0 ],
					"id" : "obj-27",
					"knobcolor" : [ 0.2, 0.2, 0.2, 1.0 ],
					"knobshape" : 5,
					"maxclass" : "slider",
					"numinlets" : 1,
					"numoutlets" : 1,
					"outlettype" : [ "" ],
					"parameter_enable" : 0,
					"patching_rect" : [ 75.0, 338.0, 15.0, 124.0 ],
					"size" : 1024.0,
					"style" : ""
				}

			}
, 			{
				"box" : 				{
					"bgcolor" : [ 1.0, 1.0, 1.0, 1.0 ],
					"id" : "obj-25",
					"knobcolor" : [ 0.2, 0.2, 0.2, 1.0 ],
					"knobshape" : 5,
					"maxclass" : "slider",
					"numinlets" : 1,
					"numoutlets" : 1,
					"outlettype" : [ "" ],
					"parameter_enable" : 0,
					"patching_rect" : [ 54.0, 338.0, 15.0, 124.0 ],
					"size" : 1024.0,
					"style" : ""
				}

			}
, 			{
				"box" : 				{
					"bgcolor" : [ 1.0, 1.0, 1.0, 1.0 ],
					"id" : "obj-24",
					"knobcolor" : [ 0.2, 0.2, 0.2, 1.0 ],
					"knobshape" : 5,
					"maxclass" : "slider",
					"numinlets" : 1,
					"numoutlets" : 1,
					"outlettype" : [ "" ],
					"parameter_enable" : 0,
					"patching_rect" : [ 32.0, 338.0, 15.0, 124.0 ],
					"size" : 1024.0,
					"style" : ""
				}

			}
, 			{
				"box" : 				{
					"bgcolor" : [ 1.0, 1.0, 1.0, 1.0 ],
					"id" : "obj-23",
					"knobcolor" : [ 0.2, 0.2, 0.2, 1.0 ],
					"knobshape" : 5,
					"maxclass" : "slider",
					"numinlets" : 1,
					"numoutlets" : 1,
					"outlettype" : [ "" ],
					"parameter_enable" : 0,
					"patching_rect" : [ 11.0, 338.0, 15.0, 124.0 ],
					"size" : 1024.0,
					"style" : ""
				}

			}
, 			{
				"box" : 				{
					"id" : "obj-12",
					"maxclass" : "newobj",
					"numinlets" : 1,
					"numoutlets" : 6,
					"outlettype" : [ "", "", "", "", "", "" ],
					"patching_rect" : [ 11.0, 310.0, 126.0, 22.0 ],
					"style" : "default",
					"text" : "spray 6"
				}

			}
, 			{
				"box" : 				{
					"id" : "obj-6",
					"maxclass" : "toggle",
					"numinlets" : 1,
					"numoutlets" : 1,
					"outlettype" : [ "int" ],
					"parameter_enable" : 0,
					"patching_rect" : [ 11.0, 61.0, 20.0, 20.0 ],
					"style" : "default"
				}

			}
, 			{
				"box" : 				{
					"id" : "obj-5",
					"maxclass" : "newobj",
					"numinlets" : 2,
					"numoutlets" : 1,
					"outlettype" : [ "bang" ],
					"patching_rect" : [ 11.0, 92.0, 62.0, 22.0 ],
					"style" : "default",
					"text" : "qmetro 1"
				}

			}
, 			{
				"box" : 				{
					"bgfillcolor_angle" : 270.0,
					"bgfillcolor_autogradient" : 0.79,
					"bgfillcolor_color" : [ 0.290196, 0.309804, 0.301961, 1.0 ],
					"bgfillcolor_color1" : [ 0.867, 0.867, 0.867, 1.0 ],
					"bgfillcolor_color2" : [ 0.867, 0.867, 0.867, 1.0 ],
					"bgfillcolor_proportion" : 0.39,
					"bgfillcolor_type" : "gradient",
					"fontface" : 0,
					"fontname" : "Arial",
					"fontsize" : 12.0,
					"id" : "obj-2",
					"maxclass" : "message",
					"numinlets" : 2,
					"numoutlets" : 1,
					"outlettype" : [ "" ],
					"patching_rect" : [ 25.0, 160.0, 35.0, 22.0 ],
					"style" : "",
					"text" : "print",
					"textcolor" : [ 0.0, 0.0, 0.0, 1.0 ]
				}

			}
, 			{
				"box" : 				{
					"id" : "obj-1",
					"maxclass" : "newobj",
					"numinlets" : 1,
					"numoutlets" : 2,
					"outlettype" : [ "int", "" ],
					"patching_rect" : [ 11.0, 188.0, 156.0, 22.0 ],
					"style" : "default",
					"text" : "serial a 57600"
				}

			}
, 			{
				"box" : 				{
					"bgcolor" : [ 1.0, 1.0, 1.0, 1.0 ],
					"color" : [ 0.8, 0.84, 0.71, 1.0 ],
					"fontface" : 0,
					"fontname" : "Arial",
					"fontsize" : 12.0,
					"hidden" : 1,
					"id" : "obj-26",
					"maxclass" : "newobj",
					"numinlets" : 1,
					"numoutlets" : 1,
					"outlettype" : [ "bang" ],
					"patching_rect" : [ 25.0, 159.0, 60.0, 22.0 ],
					"style" : "",
					"text" : "loadbang",
					"textcolor" : [ 0.0, 0.0, 0.0, 1.0 ]
				}

			}
, 			{
				"box" : 				{
					"bgcolor" : [ 1.0, 1.0, 1.0, 1.0 ],
					"color" : [ 0.8, 0.84, 0.71, 1.0 ],
					"fontface" : 0,
					"fontname" : "Arial",
					"fontsize" : 12.0,
					"hidden" : 1,
					"id" : "obj-10",
					"maxclass" : "newobj",
					"numinlets" : 1,
					"numoutlets" : 1,
					"outlettype" : [ "bang" ],
					"patching_rect" : [ 196.0, 124.0, 66.0, 22.0 ],
					"style" : "",
					"text" : "closebang",
					"textcolor" : [ 0.0, 0.0, 0.0, 1.0 ]
				}

			}
, 			{
				"box" : 				{
					"background" : 1,
					"bgcolor" : [ 1.0, 0.788235, 0.470588, 1.0 ],
					"bgoncolor" : [ 0.55, 0.55, 0.55, 1.0 ],
					"fontname" : "Arial Bold",
					"hint" : "",
					"id" : "obj-31",
					"ignoreclick" : 1,
					"legacytextcolor" : 1,
					"maxclass" : "textbutton",
					"numinlets" : 1,
					"numoutlets" : 3,
					"outlettype" : [ "", "", "int" ],
					"parameter_enable" : 0,
					"patching_rect" : [ 34.5, 124.0, 20.0, 20.0 ],
					"rounded" : 60.0,
					"style" : "",
					"text" : "3",
					"textcolor" : [ 0.34902, 0.34902, 0.34902, 1.0 ],
					"textoncolor" : [ 1.0, 1.0, 1.0, 1.0 ],
					"textovercolor" : [ 0.2, 0.2, 0.2, 1.0 ],
					"usebgoncolor" : 1,
					"usetextovercolor" : 1
				}

			}
, 			{
				"box" : 				{
					"background" : 1,
					"bgcolor" : [ 1.0, 0.788235, 0.470588, 1.0 ],
					"bgoncolor" : [ 0.55, 0.55, 0.55, 1.0 ],
					"fontname" : "Arial Bold",
					"hint" : "",
					"id" : "obj-30",
					"ignoreclick" : 1,
					"legacytextcolor" : 1,
					"maxclass" : "textbutton",
					"numinlets" : 1,
					"numoutlets" : 3,
					"outlettype" : [ "", "", "int" ],
					"parameter_enable" : 0,
					"patching_rect" : [ 34.5, 61.0, 20.0, 20.0 ],
					"rounded" : 60.0,
					"style" : "",
					"text" : "2",
					"textcolor" : [ 0.34902, 0.34902, 0.34902, 1.0 ],
					"textoncolor" : [ 1.0, 1.0, 1.0, 1.0 ],
					"textovercolor" : [ 0.2, 0.2, 0.2, 1.0 ],
					"usebgoncolor" : 1,
					"usetextovercolor" : 1
				}

			}
, 			{
				"box" : 				{
					"background" : 1,
					"bgcolor" : [ 1.0, 0.788235, 0.470588, 1.0 ],
					"bgoncolor" : [ 0.55, 0.55, 0.55, 1.0 ],
					"fontname" : "Arial Bold",
					"hint" : "",
					"id" : "obj-52",
					"ignoreclick" : 1,
					"legacytextcolor" : 1,
					"maxclass" : "textbutton",
					"numinlets" : 1,
					"numoutlets" : 3,
					"outlettype" : [ "", "", "int" ],
					"parameter_enable" : 0,
					"patching_rect" : [ 360.0, 98.0, 20.0, 20.0 ],
					"rounded" : 60.0,
					"style" : "",
					"text" : "1",
					"textcolor" : [ 0.34902, 0.34902, 0.34902, 1.0 ],
					"textoncolor" : [ 1.0, 1.0, 1.0, 1.0 ],
					"textovercolor" : [ 0.2, 0.2, 0.2, 1.0 ],
					"usebgoncolor" : 1,
					"usetextovercolor" : 1,
					"varname" : "textbutton"
				}

			}
 ],
		"lines" : [ 			{
				"patchline" : 				{
					"color" : [ 0.760661, 0.766103, 0.765973, 1.0 ],
					"destination" : [ "obj-55", 0 ],
					"disabled" : 0,
					"hidden" : 0,
					"source" : [ "obj-1", 0 ]
				}

			}
, 			{
				"patchline" : 				{
					"color" : [ 0.760661, 0.766103, 0.765973, 1.0 ],
					"destination" : [ "obj-96", 0 ],
					"disabled" : 0,
					"hidden" : 0,
					"midpoints" : [ 157.5, 217.0, 180.0, 217.0, 180.0, 62.0, 206.5, 62.0 ],
					"source" : [ "obj-1", 1 ]
				}

			}
, 			{
				"patchline" : 				{
					"color" : [ 0.8, 0.839216, 0.709804, 1.0 ],
					"destination" : [ "obj-22", 0 ],
					"disabled" : 0,
					"hidden" : 1,
					"source" : [ "obj-10", 0 ]
				}

			}
, 			{
				"patchline" : 				{
					"color" : [ 0.760661, 0.766103, 0.765973, 1.0 ],
					"destination" : [ "obj-23", 0 ],
					"disabled" : 0,
					"hidden" : 0,
					"source" : [ "obj-12", 0 ]
				}

			}
, 			{
				"patchline" : 				{
					"color" : [ 0.760661, 0.766103, 0.765973, 1.0 ],
					"destination" : [ "obj-24", 0 ],
					"disabled" : 0,
					"hidden" : 0,
					"source" : [ "obj-12", 1 ]
				}

			}
, 			{
				"patchline" : 				{
					"color" : [ 0.760661, 0.766103, 0.765973, 1.0 ],
					"destination" : [ "obj-25", 0 ],
					"disabled" : 0,
					"hidden" : 0,
					"source" : [ "obj-12", 2 ]
				}

			}
, 			{
				"patchline" : 				{
					"color" : [ 0.760661, 0.766103, 0.765973, 1.0 ],
					"destination" : [ "obj-27", 0 ],
					"disabled" : 0,
					"hidden" : 0,
					"source" : [ "obj-12", 3 ]
				}

			}
, 			{
				"patchline" : 				{
					"color" : [ 0.760661, 0.766103, 0.765973, 1.0 ],
					"destination" : [ "obj-28", 0 ],
					"disabled" : 0,
					"hidden" : 0,
					"source" : [ "obj-12", 4 ]
				}

			}
, 			{
				"patchline" : 				{
					"color" : [ 0.760661, 0.766103, 0.765973, 1.0 ],
					"destination" : [ "obj-34", 0 ],
					"disabled" : 0,
					"hidden" : 0,
					"source" : [ "obj-12", 5 ]
				}

			}
, 			{
				"patchline" : 				{
					"color" : [ 0.8, 0.8, 0.8, 0.9 ],
					"destination" : [ "obj-18", 0 ],
					"disabled" : 0,
					"hidden" : 1,
					"source" : [ "obj-14", 0 ]
				}

			}
, 			{
				"patchline" : 				{
					"color" : [ 0.8, 0.8, 0.8, 0.9 ],
					"destination" : [ "obj-21", 0 ],
					"disabled" : 0,
					"hidden" : 1,
					"source" : [ "obj-18", 0 ]
				}

			}
, 			{
				"patchline" : 				{
					"color" : [ 0.8, 0.839216, 0.709804, 1.0 ],
					"destination" : [ "obj-1", 0 ],
					"disabled" : 0,
					"hidden" : 0,
					"source" : [ "obj-2", 0 ]
				}

			}
, 			{
				"patchline" : 				{
					"color" : [ 0.760661, 0.766103, 0.765973, 1.0 ],
					"destination" : [ "obj-1", 0 ],
					"disabled" : 0,
					"hidden" : 0,
					"midpoints" : [ 204.5, 150.5, 20.5, 150.5 ],
					"source" : [ "obj-22", 0 ]
				}

			}
, 			{
				"patchline" : 				{
					"color" : [ 0.8, 0.8, 0.8, 0.9 ],
					"destination" : [ "obj-2", 0 ],
					"disabled" : 0,
					"hidden" : 1,
					"source" : [ "obj-26", 0 ]
				}

			}
, 			{
				"patchline" : 				{
					"color" : [ 0.8, 0.8, 0.8, 0.9 ],
					"destination" : [ "obj-36", 0 ],
					"disabled" : 0,
					"hidden" : 1,
					"source" : [ "obj-35", 0 ]
				}

			}
, 			{
				"patchline" : 				{
					"color" : [ 0.8, 0.8, 0.8, 0.9 ],
					"destination" : [ "obj-33", 0 ],
					"disabled" : 0,
					"hidden" : 1,
					"source" : [ "obj-36", 0 ]
				}

			}
, 			{
				"patchline" : 				{
					"color" : [ 0.760661, 0.766103, 0.765973, 1.0 ],
					"destination" : [ "obj-13", 0 ],
					"disabled" : 0,
					"hidden" : 0,
					"source" : [ "obj-37", 10 ]
				}

			}
, 			{
				"patchline" : 				{
					"color" : [ 0.760661, 0.766103, 0.765973, 1.0 ],
					"destination" : [ "obj-39", 0 ],
					"disabled" : 0,
					"hidden" : 0,
					"source" : [ "obj-37", 0 ]
				}

			}
, 			{
				"patchline" : 				{
					"color" : [ 0.760661, 0.766103, 0.765973, 1.0 ],
					"destination" : [ "obj-40", 0 ],
					"disabled" : 0,
					"hidden" : 0,
					"source" : [ "obj-37", 1 ]
				}

			}
, 			{
				"patchline" : 				{
					"color" : [ 0.760661, 0.766103, 0.765973, 1.0 ],
					"destination" : [ "obj-41", 0 ],
					"disabled" : 0,
					"hidden" : 0,
					"source" : [ "obj-37", 2 ]
				}

			}
, 			{
				"patchline" : 				{
					"color" : [ 0.760661, 0.766103, 0.765973, 1.0 ],
					"destination" : [ "obj-42", 0 ],
					"disabled" : 0,
					"hidden" : 0,
					"source" : [ "obj-37", 3 ]
				}

			}
, 			{
				"patchline" : 				{
					"color" : [ 0.760661, 0.766103, 0.765973, 1.0 ],
					"destination" : [ "obj-43", 0 ],
					"disabled" : 0,
					"hidden" : 0,
					"source" : [ "obj-37", 4 ]
				}

			}
, 			{
				"patchline" : 				{
					"color" : [ 0.760661, 0.766103, 0.765973, 1.0 ],
					"destination" : [ "obj-44", 0 ],
					"disabled" : 0,
					"hidden" : 0,
					"source" : [ "obj-37", 5 ]
				}

			}
, 			{
				"patchline" : 				{
					"color" : [ 0.760661, 0.766103, 0.765973, 1.0 ],
					"destination" : [ "obj-45", 0 ],
					"disabled" : 0,
					"hidden" : 0,
					"source" : [ "obj-37", 6 ]
				}

			}
, 			{
				"patchline" : 				{
					"color" : [ 0.760661, 0.766103, 0.765973, 1.0 ],
					"destination" : [ "obj-46", 0 ],
					"disabled" : 0,
					"hidden" : 0,
					"source" : [ "obj-37", 7 ]
				}

			}
, 			{
				"patchline" : 				{
					"color" : [ 0.760661, 0.766103, 0.765973, 1.0 ],
					"destination" : [ "obj-47", 0 ],
					"disabled" : 0,
					"hidden" : 0,
					"source" : [ "obj-37", 8 ]
				}

			}
, 			{
				"patchline" : 				{
					"color" : [ 0.760661, 0.766103, 0.765973, 1.0 ],
					"destination" : [ "obj-48", 0 ],
					"disabled" : 0,
					"hidden" : 0,
					"source" : [ "obj-37", 9 ]
				}

			}
, 			{
				"patchline" : 				{
					"color" : [ 0.760661, 0.766103, 0.765973, 1.0 ],
					"destination" : [ "obj-1", 0 ],
					"disabled" : 0,
					"hidden" : 0,
					"source" : [ "obj-5", 0 ]
				}

			}
, 			{
				"patchline" : 				{
					"color" : [ 0.760661, 0.766103, 0.765973, 1.0 ],
					"destination" : [ "obj-12", 0 ],
					"disabled" : 0,
					"hidden" : 0,
					"source" : [ "obj-55", 0 ]
				}

			}
, 			{
				"patchline" : 				{
					"destination" : [ "obj-37", 0 ],
					"disabled" : 0,
					"hidden" : 0,
					"source" : [ "obj-55", 1 ]
				}

			}
, 			{
				"patchline" : 				{
					"color" : [ 0.760661, 0.766103, 0.765973, 1.0 ],
					"destination" : [ "obj-5", 0 ],
					"disabled" : 0,
					"hidden" : 0,
					"source" : [ "obj-6", 0 ]
				}

			}
, 			{
				"patchline" : 				{
					"color" : [ 0.760661, 0.766103, 0.765973, 1.0 ],
					"destination" : [ "obj-1", 0 ],
					"disabled" : 0,
					"hidden" : 0,
					"midpoints" : [ 69.5, 150.0, 20.5, 150.0 ],
					"source" : [ "obj-8", 0 ]
				}

			}
, 			{
				"patchline" : 				{
					"color" : [ 0.8, 0.839216, 0.709804, 1.0 ],
					"destination" : [ "obj-97", 0 ],
					"disabled" : 0,
					"hidden" : 0,
					"source" : [ "obj-88", 1 ]
				}

			}
, 			{
				"patchline" : 				{
					"color" : [ 0.0, 0.0, 0.0, 1.0 ],
					"destination" : [ "obj-88", 0 ],
					"disabled" : 0,
					"hidden" : 0,
					"source" : [ "obj-96", 0 ]
				}

			}
, 			{
				"patchline" : 				{
					"color" : [ 0.760661, 0.766103, 0.765973, 1.0 ],
					"destination" : [ "obj-1", 0 ],
					"disabled" : 0,
					"hidden" : 0,
					"midpoints" : [ 275.5, 150.0, 20.5, 150.0 ],
					"source" : [ "obj-97", 0 ]
				}

			}
 ],
		"dependency_cache" : [ 			{
				"name" : "imi.docloader.maxpat",
				"bootpath" : "/Users/Shared/Max 7/Packages/Max4VisualArts/patchers/Toolbox/imi_objects",
				"patcherrelativepath" : "../../Shared/Max 7/Packages/Max4VisualArts/patchers/Toolbox/imi_objects",
				"type" : "JSON",
				"implicit" : 1
			}
, 			{
				"name" : "Max4VA-Title.maxpat",
				"bootpath" : "/Users/Shared/Max 7/Packages/Max4VisualArts/patchers/zpatches",
				"patcherrelativepath" : "../../Shared/Max 7/Packages/Max4VisualArts/patchers/zpatches",
				"type" : "JSON",
				"implicit" : 1
			}
, 			{
				"name" : "shell.mxo",
				"type" : "iLaX"
			}
, 			{
				"name" : "strlen.mxo",
				"type" : "iLaX"
			}
 ],
		"embedsnapshot" : 0,
		"styles" : [ 			{
				"name" : "simple",
				"parentstyle" : "",
				"multi" : 0
			}
 ],
		"bgfillcolor_type" : "gradient",
		"bgfillcolor_color1" : [ 0.376471, 0.384314, 0.4, 1.0 ],
		"bgfillcolor_color2" : [ 0.290196, 0.309804, 0.301961, 1.0 ],
		"bgfillcolor_color" : [ 0.290196, 0.309804, 0.301961, 1.0 ],
		"bgfillcolor_angle" : 270.0,
		"bgfillcolor_proportion" : 0.39
	}

}
