max v2;#N vpatcher 209 185 960 610;#P window setfont "Sans Serif" 9.;#P hidden newex 238 47 106 196617 bgcolor 120 140 120;#P comment 560 62 118 196617 andrewb@cycling74.com;#P message 411 75 68 196617 fullscreen \$1;#P toggle 394 75 15 0;#P newex 436 50 35 196617 sel 27;#P newex 394 50 40 196617 key;#P newex 351 320 20 196617 t b;#P user ezdac~ 85 79 129 112 0;#P message 374 320 90 196617 position \$1 \$2 \$3;#P newex 374 278 41 196617 jit.iter;#P toggle 25 58 15 0;#P newex 25 79 57 196617 qmetro 10;#P newex 25 186 58 196617 t erase b b;#P window linecount 2;#P newex 351 361 310 196617 jit.gl.gridshape fo @lighting_enable 1 @depth_enable 1 @automatic 0 @scale 0.1 0.1 0.1 @blend_enable 1 @color 1. 0.7 0.6 0.3;#P window linecount 1;#P newex 411 93 222 196617 jit.window fo @depthbuffer 1 @fsaa 1 @sync 1;#P newex 25 328 214 196617 jit.gl.render fo @erase_color 0.7 0.7 0.5 0.9;#P comment 585 183 45 196617 BLUE= Z;#P comment 500 184 45 196617 GREEN=Y;#P comment 413 185 41 196617 RED= X;#P flonum 645 144 50 9 0 0 0 3 0 0 0 221 221 221 222 222 222 0 0 0;#P flonum 575 145 50 9 0 0 0 3 0 0 0 221 221 221 222 222 222 0 0 0;#P flonum 483 146 50 9 0 0 0 3 0 0 0 221 221 221 222 222 222 0 0 0;#P flonum 391 147 50 9 0 0 0 3 0 0 0 221 221 221 222 222 222 0 0 0;#P newex 391 166 55 196617 cycle~ 2.3;#P newex 575 164 55 196617 cycle~ 1.4;#P newex 575 242 91 196617 jit.poke~ posr 1 2;#P newex 645 182 41 196617 *~ 10.;#P newex 645 163 64 196617 phasor~ 0.7;#P newex 391 242 91 196617 jit.poke~ posr 1 0;#P newex 483 165 63 196617 cycle~ 0.99;#P newex 483 242 91 196617 jit.poke~ posr 1 1;#P number 274 110 35 9 0 0 0 3 0 0 0 221 221 221 222 222 222 0 0 0;#P message 274 131 39 196617 dim \$1;#P message 310 209 73 196617 slide_down \$1;#P number 244 181 35 9 0 0 0 3 0 0 0 221 221 221 222 222 222 0 0 0;#P message 244 209 60 196617 slide_up \$1;#P newex 163 242 182 196617 jit.slide @slide_up 20 @slide_down 20;#P user jit.pwindow 185 272 87 14 0 1 0 0 1 0;#P newex 163 150 138 196617 jit.matrix posr 3 float32 10;#P window setfont "Sans Serif" 24.;#P comment 611 28 100 196632 gLFO;#P connect 29 0 28 0;#P connect 28 0 27 0;#P fasten 27 1 24 0 54 221 30 221;#P connect 27 0 24 0;#P fasten 29 0 32 0 30 77 90 77;#P fasten 7 0 1 0 279 147 168 147;#P fasten 27 2 1 0 78 212 126 212 126 140 168 140;#P fasten 6 0 3 0 315 233 168 233;#P fasten 4 0 3 0 249 233 168 233;#P connect 1 0 3 0;#P fasten 3 0 2 0 168 266 191 266;#P fasten 5 0 4 0 249 202 249 202;#P connect 8 0 7 0;#P fasten 5 0 6 0 249 202 315 202;#P connect 30 0 33 0;#P fasten 31 0 26 0 379 344 356 344;#P connect 33 0 26 0;#P fasten 3 0 30 0 168 266 379 266;#P connect 30 0 31 0;#P connect 17 0 16 0;#P connect 16 0 11 0;#P lcolor 14;#P fasten 35 0 36 0 441 72 399 72;#P fasten 36 0 37 0 410 90 410 75;#P connect 37 0 25 0;#P fasten 34 0 35 0 435 67 435 52;#P fasten 13 0 11 1 650 213 477 213;#P lcolor 9;#P connect 18 0 10 0;#P connect 10 0 9 0;#P lcolor 14;#P fasten 13 0 9 1 650 213 569 213;#P lcolor 9;#P connect 19 0 15 0;#P connect 15 0 14 0;#P lcolor 14;#P connect 20 0 12 0;#P connect 12 0 13 0;#P fasten 13 0 14 1 650 213 661 213;#P lcolor 9;#P pop;