max v2;#N vpatcher 92 145 799 462;#P window setfont "Sans Serif" 9.;#P hidden newex 479 274 106 196617 bgcolor 120 120 100;#P comment 452 71 118 196617 andrewb@cycling74.com;#P window setfont Arial 20.;#P comment 445 45 125 131137556 Video Pillows;#P window setfont "Sans Serif" 9.;#P comment 127 149 39 196617 thresh;#P window linecount 3;#P comment 27 119 134 196617 Alpha channel masking is used to generate empty spaces;#P window linecount 2;#P comment 264 139 134 196617 this loads a cube 3-D matrix with pixel values;#P number 252 102 35 9 0 0 0 3 0 0 0 221 221 221 222 222 222 0 0 0;#P toggle 204 101 15 0;#P window linecount 1;#P newex 204 122 58 196617 metro 200;#P message 545 168 68 196617 fullscreen \$1;#P toggle 529 167 15 0;#P newex 570 143 35 196617 sel 27;#P newex 570 121 40 196617 keyup;#P toggle 22 35 15 0;#P newex 22 56 51 196617 qmetro 5;#P newex 545 190 75 196617 jit.window foo;#P newex 400 168 50 196617 t erase b;#B color 5;#P newex 240 213 153 196617 jit.gl.handle foo @auto_rotate 1;#P newex 400 214 219 196617 jit.gl.render foo @erase_color 0.9 0.8 0.85 1.;#P newex 22 213 216 196617 jit.gl.volume foo @bounds 0 @color 1. 1. 1. 1.;#P flonum 91 145 35 9 0 0 0 3 0 0 0 221 221 221 222 222 222 0 0 0;#N vpatcher 480 146 702 333;#P inlet 172 38 15 0;#P outlet 7 148 15 0;#P window setfont "Sans Serif" 9.;#P window linecount 1;#P newex 7 118 53 196617 jit.pack 4;#P newex 76 86 106 196617 jit.op @op > @val 0.4;#P newex 76 65 66 196617 jit.rgb2luma;#P window linecount 0;#P newex 7 65 66 196617 jit.unpack 4;#P inlet 7 38 15 0;#P comment 87 106 112 196617 this patch introduces a threshold \, so that only lum > x is visible.;#P connect 1 0 2 0;#P fasten 4 0 5 0 81 110 12 110;#P connect 5 0 6 0;#P connect 2 1 5 1;#P connect 2 2 5 2;#P connect 2 3 5 3;#P fasten 1 0 3 0 12 59 81 59;#P connect 3 0 4 0;#P connect 7 0 4 1;#P pop;#P newobj 22 166 79 196617 p alpha-channel;#P message 204 167 178 196617 dstdimstart 0 0 \$1 \, dstdimend 9 9 \$1;#P newex 204 147 58 196617 random 20;#B color 5;#P flonum 97 38 35 9 0 0 0 3 0 0 0 221 221 221 222 222 222 0 0 0;#P message 97 58 42 196617 rate \$1;#P message 140 58 28 196617 read;#P newex 22 95 105 196617 jit.qt.movie 320 240;#B color 5;#P newex 22 191 227 196617 jit.matrix pillow 4 char 10 10 20 @usedstdim 1;#P comment 170 58 67 196617 read a movie;#P connect 16 0 15 0;#P connect 15 0 2 0;#P fasten 4 0 2 0 102 85 27 85;#P fasten 3 0 2 0 145 85 27 85;#P connect 2 0 8 0;#P connect 8 0 1 0;#P fasten 7 0 1 0 209 187 27 187;#P connect 1 0 10 0;#P fasten 12 0 10 0 245 235 14 235 14 210 27 210;#P connect 9 0 8 1;#P connect 5 0 4 0;#P connect 22 0 21 0;#P connect 21 0 6 0;#P connect 6 0 7 0;#P connect 23 0 21 1;#P fasten 15 0 13 0 27 90 405 90;#P fasten 10 0 11 0 27 234 397 234 397 209 405 209;#P connect 13 0 11 0;#P fasten 13 1 11 0 445 198 405 198;#P fasten 18 0 19 0 575 163 534 163;#P connect 19 0 20 0;#P connect 20 0 14 0;#P connect 17 0 18 0;#P pop;