max v2;#N vpatcher 162 147 990 716;#P window setfont "Sans Serif" 9.;#P hidden newex 541 500 106 196617 bgcolor 100 120 100;#P comment 217 93 118 196617 read in a video.;#P window linecount 6;#P comment 12 306 118 196617 Here I'm mapping the original video onto the form as a texture \, which makes for a nice overlapping transparency effect.;#P window linecount 2;#P comment 337 171 118 196617 this loads the 3-D video cube.;#P toggle 379 345 15 0;#P window linecount 1;#P message 379 362 92 196617 lighting_enable \$1;#P window linecount 3;#P comment 141 296 118 196617 fiddle with these settings to find the best shapes;#P flonum 129 190 35 9 0 0 0 3 0 0 0 221 221 221 222 222 222 0 0 0;#P window linecount 1;#N vpatcher 480 146 702 333;#P outlet 103 70 15 0;#P inlet 172 38 15 0;#P outlet 7 148 15 0;#P window setfont "Sans Serif" 9.;#P window linecount 1;#P newex 7 118 53 196617 jit.pack 4;#P newex 76 86 106 196617 jit.op @op > @val 0.4;#P newex 76 47 66 196617 jit.rgb2luma;#P window linecount 0;#P newex 7 65 66 196617 jit.unpack 4;#P inlet 7 20 15 0;#P connect 0 0 1 0;#P fasten 3 0 4 0 81 110 12 110;#P connect 4 0 5 0;#P connect 1 1 4 1;#P connect 1 2 4 2;#P connect 1 3 4 3;#P fasten 0 0 2 0 12 44 81 44;#P connect 2 0 3 0;#P connect 2 0 7 0;#P connect 6 0 3 1;#P pop;#P newobj 41 208 97 196617 p alpha-channel;#P toggle 272 149 15 0;#P newex 272 170 63 196617 qmetro 200;#P message 283 109 33 196617 start;#P message 253 109 29 196617 stop;#P newex 41 229 85 196617 jit.gl.texture foo;#P newex 377 315 70 196617 prepend mode;#P user ubumenu 377 294 100 196617 0 1 1 0;#X add cubes;#X add tetra;#X prefix_set 0 0 <none> 0;#X pattrmode 1;#P flonum 320 296 35 9 0 0 0 3 0 0 0 221 221 221 222 222 222 0 0 0;#P message 320 316 55 196617 epsilon \$1;#P flonum 260 296 35 9 0 0 0 3 0 0 0 221 221 221 222 222 222 0 0 0;#P message 260 316 59 196617 isolevel \$1;#P newex 128 385 330 196617 jit.gl.isosurf foo @blend_enable 1 @lighting_enable 1 @color 1. 1. 1. 1.;#B color 5;#P message 531 364 68 196617 fullscreen \$1;#P toggle 514 364 15 0;#P newex 556 339 35 196617 sel 27;#P newex 514 339 40 196617 keyup;#P toggle 128 88 15 0;#P newex 128 109 51 196617 qmetro 5;#P newex 531 383 75 196617 jit.window foo;#P newex 513 276 50 196617 t erase b;#B color 5;#P newex 160 354 153 196617 jit.gl.handle foo @auto_rotate 1;#P newex 513 316 290 196617 jit.gl.render foo @blend_enable 1 @erase_color 0.8 0.8 0.7 1.;#P message 272 217 193 196617 dstdimstart 0 0 \$1 \, dstdimend 19 19 \$1;#P newex 272 193 58 196617 random 20;#B color 5;#P flonum 181 89 35 9 0 0 0 3 0 0 0 221 221 221 222 222 222 0 0 0;#P message 181 109 42 196617 rate \$1;#P message 224 109 28 196617 read;#P newex 128 148 63 196617 jit.qt.movie;#B color 5;#P newex 128 244 251 196617 jit.matrix fortress 1 float32 20 20 20 @usedstdim 1;#P window setfont "Sans Serif" 20.;#P comment 482 102 208 196628 Crumbling Fortresses;#P window setfont "Sans Serif" 9.;#P comment 572 131 118 196617 andrewb@cycling74.com;#P fasten 3 0 31 0 133 175 46 175;#P connect 31 0 26 0;#P connect 14 0 13 0;#P connect 13 0 3 0;#P fasten 28 0 3 0 288 140 133 140;#P fasten 27 0 3 0 258 140 133 140;#P fasten 4 0 3 0 229 140 133 140;#P fasten 5 0 3 0 186 140 133 140;#P connect 32 0 31 1;#P fasten 8 0 2 0 277 240 133 240;#P connect 31 1 2 0;#P fasten 26 0 19 0 46 270 133 270;#P fasten 25 0 19 0 382 342 133 342;#P fasten 22 0 19 0 325 342 133 342;#P fasten 20 0 19 0 265 342 133 342;#P fasten 10 0 19 0 165 378 133 378;#P fasten 34 0 19 0 384 381 133 381;#P connect 2 0 19 0;#P connect 6 0 5 0;#P connect 21 0 20 0;#P connect 30 0 29 0;#P connect 29 0 7 0;#P connect 7 0 8 0;#P connect 23 0 22 0;#P fasten 24 1 25 0 427 312 382 312;#P connect 35 0 34 0;#P fasten 13 0 11 0 133 140 518 140;#P fasten 11 1 9 0 558 304 518 304;#P connect 11 0 9 0;#P fasten 16 0 17 0 561 361 519 361;#P fasten 17 0 18 0 530 379 530 364;#P connect 18 0 12 0;#P fasten 15 0 16 0 555 356 555 341;#P pop;