max v2;#N vpatcher 147 63 746 502;#P origin -19 0;#P window setfont "Sans Serif" 9.;#P hidden newex 544 328 106 196617 bgcolor 200 220 180;#P window linecount 3;#P comment 245 83 155 196617 Using Jitter 1.5 audio-->matrix features to generate psychedelic visuals.;#P toggle 109 35 15 0;#P window linecount 1;#P message 120 264 33 196617 clear;#P flonum 201 75 35 9 0 0 0 3 0 0 0 221 221 221 222 222 222 0 0 0;#P newex 154 360 191 196617 jit.rota @anchor_x 160 @anchor_y 120;#P newex 154 104 41 196617 *~ 0.2;#P newex 477 185 58 196617 metro 500;#P message 12 336 68 196617 fullscreen \$1;#P toggle -3 335 15 0;#P newex 38 314 35 196617 sel 27;#P newex -4 314 40 196617 key;#P newex 154 291 314 196617 jit.lumakey @lum 0.16 @tol 0.1 @minkey 0. @maxkey 1. @fade 0.4;#P newex 154 263 129 196617 jit.matrix 4 char 320 240;#P number 193 145 35 9 0 0 0 3 0 0 0 221 221 221 222 222 222 0 0 0;#P message 193 162 69 196617 framesize \$1;#P user ezdac~ 64 135 108 168 0;#P newex 109 135 46 196617 metro 5;#P message 201 35 37 196617 loop 1;#P toggle 154 35 15 0;#P message 170 35 30 196617 open;#N sfplay~  1 120960 0 ;#P newobj 154 75 44 196617 sfplay~;#P newex 154 187 177 196617 jit.catch~ @mode 2 @downsample 16;#P newex 12 360 138 196617 jit.window swirly @interp 1;#P newex 154 241 92 196617 jit.graph @mode 1;#N vpatcher 113 576 713 976;#P window setfont "Sans Serif" 9.;#P newex 87 50 142 196617 t b b b;#P message 219 95 43 196617 \$1 500;#P newex 219 116 40 196617 line 0.;#P newex 219 73 64 196617 random 256;#P message 153 95 43 196617 \$1 500;#P newex 153 116 40 196617 line 0.;#P newex 153 73 64 196617 random 256;#P message 87 95 43 196617 \$1 500;#P newex 87 116 40 196617 line 0.;#P newex 87 73 64 196617 random 256;#P flonum 159 149 35 9 0 0 0 3 0 0 0 221 221 221 222 222 222 0 0 0;#P flonum 123 149 35 9 0 0 0 3 0 0 0 221 221 221 222 222 222 0 0 0;#P flonum 87 149 35 9 0 0 0 3 0 0 0 221 221 221 222 222 222 0 0 0;#P newex 50 177 109 196617 pak 255 255 255 255;#P newex 50 210 67 196617 prepend frgb;#P inlet 87 30 15 0;#P outlet 50 232 15 0;#P connect 3 0 2 0;#P connect 2 0 0 0;#P connect 4 0 3 1;#P connect 1 0 16 0;#P connect 16 0 7 0;#P connect 7 0 9 0;#P connect 9 0 8 0;#P connect 8 0 4 0;#P connect 5 0 3 2;#P connect 11 0 5 0;#P connect 6 0 3 3;#P connect 16 1 10 0;#P connect 10 0 12 0;#P connect 12 0 11 0;#P connect 14 0 6 0;#P connect 16 2 13 0;#P connect 13 0 15 0;#P connect 15 0 14 0;#P pop;#P newobj 200 216 46 196617 p colors;#N vpatcher 328 627 662 845;#P window setfont "Sans Serif" 9.;#P message 50 105 48 196617 theta \$1;#P newex 50 77 114 196617 expr ($i1-50)*0.0003;#P newex 50 57 64 196617 random 100;#P message 165 116 131 196617 anchor_x \$1 \, anchor_y \$2;#P newex 165 95 75 196617 pak 1 1;#P newex 230 72 64 196617 random 240;#P newex 165 72 64 196617 random 320;#P inlet 50 30 15 0;#P outlet 50 180 15 0;#P connect 1 0 6 0;#P connect 6 0 7 0;#P connect 7 0 8 0;#P fasten 5 0 0 0 170 155 55 155;#P connect 8 0 0 0;#P fasten 1 0 2 0 55 47 170 47;#P connect 2 0 4 0;#P connect 4 0 5 0;#P fasten 1 0 3 0 55 47 235 47;#P connect 3 0 4 1;#P pop;#P newobj 197 325 46 196617 p rotate;#P comment 37 36 100 196617 start rendering;#P window setfont "Sans Serif" 24.;#P comment 373 30 100 196632 Shifty;#P window setfont "Sans Serif" 9.;#P comment 373 66 118 196617 andrewb@cycling74.com;#P fasten 19 0 20 0 43 333 2 333;#P hidden connect 20 0 21 0;#P connect 17 0 6 0;#P connect 21 0 6 0;#P fasten 18 0 19 0 37 331 37 316;#P fasten 27 0 13 0 114 126 69 126;#P fasten 23 0 13 0 159 127 69 127;#P fasten 23 0 13 1 159 127 103 127;#P connect 27 0 12 0;#P connect 11 0 8 0;#P connect 9 0 8 0;#P connect 10 0 8 0;#P connect 8 0 23 0;#P fasten 12 0 7 0 114 180 159 180;#P fasten 14 0 7 0 198 183 159 183;#P connect 23 0 7 0;#P fasten 4 0 5 0 205 236 159 236;#P connect 7 0 5 0;#P connect 5 0 16 0;#P connect 16 0 17 0;#P connect 26 0 17 0;#P fasten 3 0 24 0 202 351 159 351;#P connect 17 0 24 0;#P connect 25 0 23 1;#P connect 15 0 14 0;#P fasten 22 0 3 0 482 316 202 316;#P fasten 22 0 4 0 482 213 205 213;#P fasten 24 0 17 1 159 384 463 384;#P fasten 27 0 22 0 114 126 482 126;#P pop;