max v2;#N vpatcher 358 100 1281 577;#P user jit.pwindow 200 349 106 84 0 1 0 0 1 0;#P window setfont "Sans Serif" 9.;#P window linecount 1;#P hidden newex 616 418 100 196617 bgcolor 80 100 180;#P comment 658 93 100 196617 2. Load a MovieFile;#P comment 767 287 64 196617 sprite_scale;#P comment 740 163 96 196617 brightnessThreshold;#P flonum 38 151 35 9 0 0 0 3 0 0 0 221 221 221 222 222 222 0 0 0;#P newex 22 169 27 196617 *~;#P newex 201 283 118 196617 jit.scissors @columns 3;#P flonum 449 57 35 9 0 0 0 3 0 0 0 221 221 221 222 222 222 0 0 0;#P user jit.pwindow 21 261 104 15 0 1 0 0 1 0;#P flonum 731 286 35 9 0 0 0 3 0 0 0 221 221 221 222 222 222 0 0 0;#P flonum 704 163 35 9 0 0 0 3 0 0 0 221 221 221 222 222 222 0 0 0;#P message 417 395 68 196617 fullscreen \$1;#P toggle 400 395 15 0;#P newex 442 370 35 196617 sel 27;#P newex 400 370 40 196617 key;#P newex 417 414 91 196617 jit.window flicker;#P message 708 107 28 196617 read;#P message 778 107 27 196617 stop;#P message 744 107 31 196617 start;#P newex 645 140 105 196617 jit.qt.movie 100 100;#P window linecount 2;#P newex 399 307 244 196617 jit.gl.render flicker @blend_enable 1 @depth_enable 0 @viewalign 1 @erase_color 0.1 0.15 0.3 1.;#P window linecount 1;#P newex 688 253 184 196617 jit.slide @slide_up 10 @slide_down 10;#P newex 148 121 31 196617 dac~;#P newex 399 83 60 196617 qmetro 0.5;#P newex 688 231 176 196617 jit.matrix soundgrid 3 float32 12 12;#P newex 201 256 130 196617 jit.matrix 1 float32 36 24;#P user jit.pwindow 20 277 106 84 0 1 0 0 1 0;#P newex 201 307 72 196617 jit.pack 3;#P newex 399 104 66 196617 t b b b erase;#P comment 416 42 65 196617 3. Turn it on;#N counter 0 24;#X flags 0 0;#P newobj 201 154 68 196617 counter 0 24;#P newex 201 328 176 196617 jit.matrix soundgrid 3 float32 12 12;#P message 201 175 166 196617 dstdimstart 0 \$1 \, dstdimend 35 \$1;#P newex 201 235 195 196617 jit.matrix 1 float32 36 24 @usedstdim 1;#P toggle 386 42 29 0;#P newex 22 211 97 196617 jit.catch~ @mode 2;#P message 22 91 31 196617 open;#N sfplay~  1 120960 0 ;#P newobj 22 121 60 196617 sfplay~;#P message 54 91 35 196617 loop 1;#P comment 8 77 100 196617 1. Load a SoundFile;#P comment 726 59 119 196617 andrewb@cycling74.com;#N vpatcher 488 577 718 789;#P window setfont "Sans Serif" 9.;#P newex 16 78 106 196617 jit.op @op > @val 0.1;#P newex 16 58 66 196617 jit.rgb2luma;#P newex 130 134 53 196617 jit.pack 4;#P newex 130 58 66 196617 jit.unpack 4;#P inlet 16 27 15 0;#P inlet 112 58 15 0;#P outlet 130 156 15 0;#P connect 2 0 5 0;#P connect 5 0 6 0;#P connect 1 0 6 1;#P fasten 2 0 3 0 21 48 135 48;#P fasten 6 0 4 0 21 100 135 100;#P connect 4 0 0 0;#P connect 3 1 4 1;#P connect 3 2 4 2;#P connect 3 3 4 3;#P pop 1;#P newobj 645 192 69 196617 p make-alpha;#N vpatcher 842 534 1442 934;#P window setfont "Sans Serif" 9.;#P window linecount 1;#P message 186 50 78 196617 scale \$1 \$1 \$1;#P newex 51 126 20 196617 t b;#P message 73 126 90 196617 position \$1 \$2 \$3;#P newex 73 103 41 196617 jit.iter;#P window linecount 2;#P newex 50 167 293 196617 jit.gl.videoplane flicker @blend_enable 1 @interp 1 @viewalign 1 @dest_dim 100 100 @automatic 0 @dim 2 2 @displaylist 1;#P inlet 50 147 15 0;#P inlet 73 83 15 0;#P inlet 186 30 15 0;#P connect 2 0 3 0;#P fasten 7 0 3 0 191 155 55 155;#P connect 6 0 3 0;#P fasten 5 0 3 0 78 150 55 150;#P connect 4 0 6 0;#P connect 1 0 4 0;#P connect 4 0 5 0;#P connect 0 0 7 0;#P pop;#P newobj 645 306 97 196617 p sprite-generation;#P window setfont "Sans Serif" 24.;#P comment 658 24 196 196632 Dancing Sprites;#P fasten 18 0 17 0 206 276 26 276;#P fasten 9 0 6 0 391 117 27 117;#P fasten 5 0 6 0 59 113 27 113;#P connect 7 0 6 0;#P connect 6 0 38 0;#P fasten 15 0 8 0 404 138 184 138 184 202 27 202;#P connect 38 0 8 0;#P connect 8 0 35 0;#P connect 39 0 38 1;#P fasten 9 0 21 0 391 117 153 117;#P fasten 15 0 13 0 404 138 206 138;#P connect 13 0 11 0;#P connect 11 0 10 0;#P fasten 8 0 10 0 27 231 206 231;#P connect 10 0 18 0;#P connect 18 0 37 0;#P connect 37 0 16 0;#P connect 16 0 12 0;#P connect 12 0 44 0;#P connect 37 1 16 1;#P connect 37 2 16 2;#P fasten 9 0 20 0 391 77 404 77;#P connect 20 0 15 0;#P fasten 15 3 23 0 458 138 404 138;#P connect 15 0 23 0;#P fasten 30 0 31 0 447 392 405 392;#P fasten 31 0 32 0 416 410 416 395;#P connect 32 0 28 0;#P fasten 29 0 30 0 441 387 441 372;#P connect 36 0 20 1;#P fasten 25 0 24 0 749 133 650 133;#P fasten 26 0 24 0 783 133 650 133;#P fasten 27 0 24 0 713 133 650 133;#P fasten 15 2 24 0 440 129 650 129;#P connect 24 0 2 0;#P connect 2 0 1 0;#P fasten 15 1 19 0 422 224 693 224;#P connect 19 0 22 0;#P connect 22 0 1 1;#P connect 33 0 2 1;#P connect 34 0 1 2;#P pop;