max v2;#N vpatcher 455 99 1159 573;#P origin -16 0;#P window setfont "Sans Serif" 9.;#P flonum 580 353 35 9 0 0 0 3 0 0 0 221 221 221 222 222 222 0 0 0;#P flonum 544 353 35 9 0 0 0 3 0 0 0 221 221 221 222 222 222 0 0 0;#P flonum 616 353 35 9 0 0 0 3 0 0 0 221 221 221 222 222 222 0 0 0;#P flonum 508 353 35 9 0 0 0 3 0 0 0 221 221 221 222 222 222 0 0 0;#P window linecount 1;#P newex 509 372 142 196617 pak color 1. 1. 1. 1.;#P newex 459 214 104 196617 prepend draw_pixels;#B color 5;#P newex 459 193 85 196617 route jit_matrix;#B color 5;#P newex 247 196 192 196617 jit.matrix 1 float32 50 50 50 @interp 1;#P newex 247 153 64 196617 metro 1000;#P newex 566 214 86 196617 jit.gl.texture foo;#B color 5;#P message 604 84 28 196617 read;#P newex 503 150 103 196617 jit.qt.movie 320 240;#B color 5;#P newex 247 216 73 196617 jit.matrix rad;#P newex 247 174 119 196617 jit.noise 1 float32 5 5 5;#P hidden newex 508 437 100 196617 bgcolor 60 100 190;#P newex 59 72 48 196617 r eraser;#B color 5;#P window linecount 0;#P comment 68 99 100 196617;#P toggle 471 315 15 0;#P toggle 491 353 15 0;#P toggle 450 353 15 0;#P window linecount 1;#P newex 409 374 92 196617 pak poly_mode 0 0;#P toggle 311 358 15 0;#P message 311 375 96 196617 smooth_shading \$1;#P comment 472 53 119 196617 andrewb@cycling74.com;#P comment 47 29 102 196617 <-- start rendering;#P newex 31 136 184 196617 jit.slide @slide_up 30 @slide_down 20;#P toggle 218 359 15 0;#P message 218 376 92 196617 lighting_enable \$1;#P newex 185 318 70 196617 prepend mode;#P user ubumenu 185 297 100 196617 0 1 1 0;#X add cubes;#X add tetra;#X prefix_set 0 0 <none> 0;#X pattrmode 1;#P flonum 128 299 35 9 0 0 0 3 0 0 0 221 221 221 222 222 222 0 0 0;#P message 128 319 55 196617 epsilon \$1;#P flonum 70 300 35 9 0 0 0 3 0 0 0 221 221 221 222 222 222 0 0 0;#P message 68 319 59 196617 isolevel \$1;#P window linecount 2;#P newex 31 406 379 196617 jit.gl.isosurf foo @lighting_enable 1 @color 1 1 1 1 @isolevel 0.41 @blend_enable 1 @depth_enable 1 @smooth_shading 1 @scale 2. 2. 2. @cull_face 1 1;#B color 5;#P window linecount 1;#P message 507 302 68 196617 fullscreen \$1;#P toggle 490 302 15 0;#P newex 532 277 35 196617 sel 27;#P newex 490 277 40 196617 keyup;#P toggle 31 25 15 0;#P newex 31 49 51 196617 qmetro 5;#P window linecount 2;#P newex 507 320 143 196617 jit.window foo @depthbuffer 1 @fsaa 1;#P window linecount 1;#P newex 212 73 90 196617 t erase b b;#B color 5;#P newex 63 375 153 196617 jit.gl.handle foo @auto_rotate 1;#P newex 212 113 290 196617 jit.gl.render foo @blend_enable 1 @erase_color 0.8 0.8 0.7 1.;#P newex 31 113 163 196617 jit.matrix rad 1 float32 50 50 50;#P window setfont "Sans Serif" 20.;#P comment 483 25 173 196628 videoBlobs;#P window setfont "Sans Serif" 9.;#P newex 31 160 109 196617 jit.xfade @xfade 0.95;#P window linecount 4;#P newex 39 200 141 196617 jit.matrix 1 float32 50 50 50 @usesrcdim 1 @srcdimstart 1 1 1 @srcdimend 48 48 48 @interp 1;#P window linecount 1;#N vpatcher 271 464 521 857;#P origin 0 -34;#P inlet 24 22 15 0;#P toggle 24 39 15 0;#P window setfont "Sans Serif" 9.;#P window linecount 0;#P newex 24 59 58 196617 metro 200;#N counter 2 0 49;#X flags 0 0;#P newobj 24 79 77 196617 counter 2 0 49;#P message 24 99 192 196617 srcdimstart 0 0 \$1 \, srcdimend 49 49 \$1;#P user jit.pwindow 2 188 183 178 0 1 0 0 1 0;#P window linecount 1;#P newex 3 131 211 196617 jit.matrix 1 float32 50 50 50 @usesrcdim 1;#P inlet 3 39 15 0;#P window linecount 4;#P comment 89 129 124 196617 This pwindow scrolls back and forth through the z dimension of our 3-d matrix;#P fasten 4 0 2 0 29 125 8 125;#P connect 1 0 2 0;#P connect 2 0 3 0;#P connect 8 0 7 0;#P connect 7 0 6 0;#P connect 6 0 5 0;#P connect 5 0 4 0;#P pop;#P newobj 57 182 77 196617 p matrix-show;#P connect 10 0 9 0;#P connect 9 0 4 0;#P connect 34 0 4 0;#P connect 4 0 24 0;#P connect 24 0 2 0;#P connect 24 0 15 0;#P connect 2 0 15 0;#P fasten 40 0 15 0 571 269 36 269;#P fasten 45 0 15 0 514 402 36 402;#P fasten 21 0 15 0 190 353 36 353;#P fasten 18 0 15 0 133 353 36 353;#P fasten 16 0 15 0 73 353 36 353;#P fasten 6 0 15 0 68 399 36 399;#P fasten 22 0 15 0 223 402 36 402;#P fasten 27 0 15 0 316 402 36 402;#P fasten 29 0 15 0 414 402 36 402;#P fasten 2 0 1 0 36 188 44 188;#P fasten 2 0 0 0 36 179 62 179;#P connect 17 0 16 0;#P fasten 10 0 0 1 36 45 129 45;#P connect 19 0 18 0;#P fasten 1 0 2 1 44 257 186 257 186 156 135 156;#P fasten 20 1 21 0 235 315 190 315;#P fasten 9 0 7 0 36 69 217 69;#P fasten 44 0 5 0 464 238 456 238 456 99 217 99;#P fasten 7 1 5 0 257 101 217 101;#P connect 7 0 5 0;#P connect 23 0 22 0;#P fasten 10 0 41 0 36 45 252 45;#P connect 41 0 36 0;#P connect 36 0 42 0;#P connect 42 0 37 0;#P connect 28 0 27 0;#P fasten 32 0 30 0 476 340 455 340;#P connect 30 0 29 1;#P fasten 38 0 43 0 508 180 464 180;#P connect 43 0 44 0;#P fasten 12 0 13 0 537 299 495 299;#P fasten 32 0 31 0 476 340 496 340;#P connect 31 0 29 2;#P fasten 39 0 38 0 609 140 508 140;#P fasten 7 2 38 0 297 96 508 96;#P fasten 13 0 14 0 506 317 506 302;#P connect 14 0 8 0;#P fasten 11 0 12 0 531 294 531 279;#P connect 46 0 45 1;#P fasten 38 0 40 0 508 180 571 180;#P connect 48 0 45 2;#P connect 49 0 45 3;#P connect 47 0 45 4;#P pop;