max v2;#N vpatcher 10 59 547 354;#P window setfont "Sans Serif" 9.;#P comment 54 249 233 196617 Play with the metro speed to adjust tone/rhythm;#P comment 41 26 79 196617 Load your movie;#P comment 340 63 167 196617 andrewb@cycling74.com;#P message 120 40 33 196617 start;#P message 127 59 29 196617 stop;#P comment 376 122 89 196617 Pick your scanline;#P number 340 119 35 9 0 0 0 3 0 0 0 221 221 221 222 222 222 0 0 0;#P message 340 137 174 196617 srcdimstart 0 \$1 \, srcdimend 319 \$1;#P user jit.pwindow 174 181 164 52 0 1 0 0 1 0;#P user jit.pwindow 175 30 164 123 0 1 0 0 1 0;#P user ezdac~ 7 228 51 261 0;#P newex 7 184 106 196617 jit.release~ @mode 1;#B color 5;#P newex 7 118 66 196617 jit.rgb2luma;#P newex 7 157 381 196617 jit.matrix 1 float32 320 @usesrcdim 1 @srcdimstart 0 120 @srcdimend 319 120;#P flonum 81 40 35 9 0 0 0 3 0 0 0 221 221 221 222 222 222 0 0 0;#P message 81 60 42 196617 rate \$1;#P message 52 60 28 196617 read;#P flonum 41 40 35 9 0.5 0 1 3 0 0 0 221 221 221 222 222 222 0 0 0;#P toggle 7 40 15 0;#P newex 7 60 44 196617 metro 2;#P newex 7 97 103 196617 jit.qt.movie 320 240;#B color 5;#P window setfont "Sans Serif" 24.;#P comment 340 31 167 196632 ScanMusic;#P connect 3 0 2 0;#P fasten 18 0 1 0 125 87 12 87;#P fasten 17 0 1 0 132 87 12 87;#P fasten 2 0 1 0 12 90 12 90;#P fasten 5 0 1 0 57 87 12 87;#P fasten 6 0 1 0 86 87 12 87;#P connect 1 0 9 0;#P connect 9 0 8 0;#P fasten 14 0 8 0 345 154 12 154;#P connect 8 0 10 0;#P connect 10 0 11 0;#P connect 4 0 2 1;#P fasten 10 0 11 1 12 215 46 215;#P connect 7 0 6 0;#P fasten 8 0 13 0 12 175 180 175;#P fasten 9 0 12 0 12 147 171 147 171 28 181 28;#P connect 15 0 14 0;#P pop;