max v2;#N vpatcher 446 44 1420 709;#P origin 0 -106;#P window setfont "Sans Serif" 9.;#P window linecount 1;#P newex 754 571 106 196617 bgcolor 100 100 200;#P window setfont "Sans Serif" 10.;#P comment 745 392 132 196618 andrewb@cycling74.com;#P toggle 29 569 15 0;#P toggle 11 569 15 0;#P window setfont "Sans Serif" 9.;#P newex -31 596 94 196617 pak poly_mode 0 0;#P window linecount 3;#P comment 441 561 148 196617 I'm using texture coordinates to warp the texture map. similar to jit.repos;#P window linecount 1;#P comment 100 96 90 196617 generate a plane;#P window linecount 2;#P comment 147 36 90 196617 random motion of vertices;#P window linecount 1;#P comment 87 404 91 196617 choose a primitive;#P window linecount 3;#P comment 806 246 91 196617 read in your favorite fragment shader;#P window linecount 1;#P comment 786 128 91 196617 read in a QT movie;#P window linecount 3;#P comment 537 118 43 196617 texture warp amount;#P comment 458 117 43 196617 rate of vertex motion;#P button 62 86 37 0;#P window linecount 1;#P newex 37 196 42 196617 r dimm;#P button 385 425 15 0;#P newex 357 425 27 196617 t b l;#P newex 357 404 42 196617 r dimm;#P newex 249 135 42 196617 r dimm;#P newex 247 86 27 196617 t b l;#P newex 247 65 42 196617 r dimm;#P newex 18 107 27 196617 t b l;#P newex 18 86 42 196617 r dimm;#P newex 352 132 42 196617 s dimm;#P flonum 530 100 35 9 0 0 0 3 0 0 0 221 221 221 222 222 222 0 0 0;#P message 530 440 50 196617 xfade \$1;#P user jit.pwindow 356 560 82 62 0 1 0 0 1 0;#P newex 537 489 311 196617 jit.expr @expr "(sin(norm[0]*PI))*0.5" "(sin(norm[1]*PI))*0.5";#P newex 357 533 49 196617 jit.xfade;#P message 777 246 28 196617 read;#P newex 766 290 76 196617 jit.gl.slab gooo;#B color 5;#P newex 357 449 118 196617 jit.matrix 2 float32 5 5;#P newex 357 489 177 196617 jit.expr @expr "norm[0]" "norm[1]";#P message 786 143 28 196617 read;#P newex 766 223 103 196617 jit.qt.movie 320 240;#B color 5;#P message 587 273 68 196617 fullscreen \$1;#P toggle 570 273 15 0;#P newex 612 248 35 196617 sel 27;#P newex 570 248 40 196617 key;#P newex 18 133 219 196617 jit.gl.gridshape @shape plane @matrixoutput 1;#P newex 116 438 99 196617 prepend draw_mode;#P user ubumenu 87 419 68 196617 0 1 1 0;#X add points;#X add lines;#X add line_strip;#X add line_loop;#X add triangles;#X add tri_strip;#X add tri_fan;#X add quads;#X add quad_strip;#X add polygon;#X add tri_grid;#X prefix_set 0 0 <none> 0;#X pattrmode 1;#P user jit.fpsgui 663 254 60 196617 0;#P number 352 96 35 9 0 0 0 3 0 0 0 221 221 221 222 222 222 0 0 0;#P message 352 114 56 196617 dim \$1 \$1;#P newex 663 103 82 196617 t b b b erase;#P newex 663 227 88 196617 jit.gl.render gooo;#P newex 587 291 153 196617 jit.window gooo @depthbuffer 1;#P newex 59 624 399 196617 jit.gl.mesh gooo @blend_enable 1 @viewalign 1 @scale 1.33 1 1 @draw_mode tri_grid;#P flonum 286 23 35 9 0 0 0 3 0 0 0 221 221 221 222 222 222 0 0 0;#P toggle 238 22 15 0;#P newex 238 44 58 196617 metro 500;#P newex 238 181 118 196617 jit.matrix 3 float32 5 5;#P newex 44 362 73 196617 jit.matrix kro;#P toggle 663 59 15 0;#P newex 663 81 52 196617 metro 20;#P newex 18 226 136 196617 jit.matrix kro 3 float32 5 5;#P newex 18 320 64 196617 jit.op @op +;#P flonum 451 100 40 9 0 0 0 3 0 0 0 221 221 221 222 222 222 0 0 0;#P newex 238 205 223 196617 jit.expr @expr "((in[0]*2.)-1.)*(in[1]*0.01)";#P newex 238 114 110 196617 jit.noise 3 float32 5 5;#P comment 351 81 64 196617 #of vertices;#P window setfont "Sans Serif" 24.;#P comment 679 359 198 196632 TextureDistorter;#P connect 59 0 58 1;#P connect 40 0 41 0;#P fasten 49 0 23 0 67 129 23 129;#P connect 41 1 23 0;#P connect 41 0 23 0;#P fasten 17 1 6 0 692 176 23 176;#P connect 48 0 6 0;#P connect 23 0 6 0;#P connect 6 0 5 0;#P fasten 5 0 9 0 23 340 49 340;#P connect 60 0 58 2;#P connect 58 0 14 0;#P fasten 5 0 14 0 23 418 64 418;#P fasten 22 0 14 0 121 523 64 523;#P fasten 32 0 14 0 771 329 244 329 244 534 64 534;#P fasten 3 0 5 1 179 291 77 291;#P fasten 34 0 14 1 362 556 112 556;#P connect 21 1 22 0;#P connect 12 0 11 0;#P connect 43 1 2 0;#P connect 43 0 2 0;#P connect 11 0 2 0;#P fasten 17 1 10 0 692 176 243 176;#P connect 44 0 10 0;#P connect 2 0 10 0;#P connect 10 0 3 0;#P connect 42 0 43 0;#P connect 13 0 11 1;#P connect 19 0 18 0;#P connect 18 0 39 0;#P connect 45 0 46 0;#P connect 47 0 31 0;#P connect 46 0 31 0;#P connect 46 1 31 0;#P connect 31 0 30 0;#P connect 30 0 34 0;#P fasten 37 0 34 0 535 517 362 517;#P connect 34 0 36 0;#P fasten 38 0 47 0 535 424 390 424;#P fasten 35 0 34 1 542 522 401 522;#P connect 4 0 3 1;#P connect 38 0 37 0;#P fasten 31 0 35 0 362 477 542 477;#P fasten 25 0 26 0 617 270 575 270;#P fasten 26 0 27 0 586 288 586 273;#P connect 27 0 15 0;#P fasten 24 0 25 0 611 265 611 250;#P connect 8 0 7 0;#P connect 7 0 17 0;#P fasten 17 3 16 0 740 216 668 216;#P connect 17 0 16 0;#P connect 16 0 20 0;#P fasten 17 2 28 0 716 175 771 175;#P fasten 29 0 28 0 791 218 771 218;#P connect 28 0 32 0;#P connect 33 0 32 0;#P pop;